{
.appVersion = "3134";
.formatVersion = 3;
DisplayStrings = (
"Aa Bb Cc Dd Ee Ff Gg Hh Ii Jj Kk Ll Mm Nn Oo Pp Qq Rr Ss Tt Uu Vv Ww Xx Yy Zz
1234567890
!@#&

Amoeba Grotesque

Build Business
Build System
Build People

For one thing, time is the very thing that we are least willing to allow.?"
);
customParameters = (
{
name = vendorID;
value = AMMP;
},
{
name = panose;
value = (
0,
0,
8,
0,
0,
0,
0,
0,
0,
0
);
},
{
name = unicodeRanges;
value = (
0,
1,
2,
29
);
},
{
name = codePageRanges;
value = (
"1252",
"1250",
"1254",
"1257",
"1258",
"bit 29"
);
},
{
name = blueScale;
value = 0.037;
},
{
name = glyphOrder;
value = (
.notdef,
space,
A,
Aacute,
Abreve,
uni1EAE,
uni1EB6,
uni1EB0,
uni1EB2,
uni1EB4,
uni01CD,
Acircumflex,
uni1EA4,
uni1EAC,
uni1EA6,
uni1EA8,
uni1EAA,
Adieresis,
uni1EA0,
Agrave,
uni1EA2,
Amacron,
Aogonek,
Aring,
Atilde,
AE,
B,
C,
Cacute,
Ccaron,
Ccedilla,
Cdotaccent,
D,
Eth,
Dcaron,
Dcroat,
E,
Eacute,
Ecaron,
Ecircumflex,
uni1EBE,
uni1EC6,
uni1EC0,
uni1EC2,
uni1EC4,
Edieresis,
Edotaccent,
uni1EB8,
Egrave,
uni1EBA,
Emacron,
Eogonek,
uni1EBC,
F,
G,
Gbreve,
uni0122,
Gdotaccent,
H,
Hbar,
I,
Iacute,
uni01CF,
Icircumflex,
Idieresis,
Idotaccent,
uni1ECA,
Igrave,
uni1EC8,
Imacron,
Iogonek,
Itilde,
J,
K,
uni0136,
L,
Lacute,
Lcaron,
uni013B,
Lslash,
M,
N,
Nacute,
Ncaron,
uni0145,
Eng,
Ntilde,
O,
Oacute,
uni01D1,
Ocircumflex,
uni1ED0,
uni1ED8,
uni1ED2,
uni1ED4,
uni1ED6,
Odieresis,
uni1ECC,
Ograve,
uni1ECE,
Ohorn,
uni1EDA,
uni1EE2,
uni1EDC,
uni1EDE,
uni1EE0,
Ohungarumlaut,
Omacron,
Oslash,
Otilde,
OE,
P,
Thorn,
Q,
R,
Racute,
Rcaron,
uni0156,
S,
Sacute,
Scaron,
Scedilla,
uni0218,
uni1E9E,
T,
Tbar,
Tcaron,
uni0162,
uni021A,
U,
Uacute,
uni01D3,
Ucircumflex,
Udieresis,
uni01D7,
uni01D9,
uni01DB,
uni01D5,
uni1EE4,
Ugrave,
uni1EE6,
Uhorn,
uni1EE8,
uni1EF0,
uni1EEA,
uni1EEC,
uni1EEE,
Uhungarumlaut,
Umacron,
Uogonek,
Uring,
Utilde,
V,
W,
Wacute,
Wcircumflex,
Wdieresis,
Wgrave,
X,
Y,
Yacute,
Ycircumflex,
Ydieresis,
uni1EF4,
Ygrave,
uni1EF6,
uni1EF8,
Z,
Zacute,
Zcaron,

glyphs = (
{
glyphname = .notdef;
layers = (
{
hints = (
{
horizontal = 1;
place = (0, 51);
place = (0, 51);
type = Stem;
},
{
horizontal = 1;
place = (420, 51);
place = (420, 51);
type = Stem;
},
{
place = (72, 50);
place = (72, 50);
type = Stem;
},
{
place = (425, 51);
place = (425, 51);
type = Stem;
}
);
layerId = m01;
shapes = (
{
closed = 1;
nodes = (
(72,0,l),
(476,0,l),
(476,471,l),
(72,471,l)
);
},
{
closed = 1;
nodes = (
(122,51,l),
(122,420,l),
(425,420,l),
(425,51,l)
);
}
);
width = 547;
}
);
note = ".notdef";
},
{
glyphname = A;
kernLeft = A;
kernRight = A;
lastChange = "2022-12-21 16:00:23 +0000";
layers = (
{
hints = (
{
horizontal = 1;
place = (0, 21);
target = up;
type = BottomGhost;
},
{
horizontal = 1;
place = (144, 115);
place = (144, 115);
type = Stem;
},
{
horizontal = 1;
place = (697, -20);
target = down;
type = TopGhost;
},
{
place = (4, 651);
place = (4, 651);
type = Stem;
}
);
layerId = m01;
shapes = (
{
closed = 1;
nodes = (
(376,697,o),
(327,697,qs),
(283,697,l),
(4,0,l),
(140,0,l),
(193,144,l),
(466,144,l),
(519,0,l),
(655,0,l),
(396,650,ls)
);
},
{
closed = 1;
nodes = (
(330,513,l),
(424,259,l),
(236,259,l)
);
}
);
width = 659;
}
);
note = A;
unicode = 65;
},
{
glyphname = Aacute;
kernLeft = A;
kernRight = A;
layers = (
{
hints = (
{
horizontal = 1;
place = (0, 21);
target = up;
type = BottomGhost;
},
{
horizontal = 1;
place = (144, 115);
place = (144, 115);
type = Stem;
},
{
horizontal = 1;
place = (697, -20);
target = down;
type = TopGhost;
},
{
horizontal = 1;
place = (759, 142);
place = (759, 142);
type = Stem;
},
{
place = (4, 651);
place = (4, 651);
type = Stem;
}
);
layerId = m01;
shapes = (
{
closed = 1;
nodes = (
(526,901,l),
(397,901,l),
(286,759,l),
(374,759,l)
);
},
{
closed = 1;
nodes = (
(519,0,l),
(655,0,l),
(377,697,l),
(283,697,l),
(4,0,l),
(140,0,l),
(193,144,l),
(466,144,l)
);
},
{
closed = 1;
nodes = (
(236,259,l),
(330,513,l),
(424,259,l)
);
}
);
width = 659;
}
);
note = Aacute;
unicode = 193;
},
{
glyphname = Abreve;
kernLeft = A;
kernRight = A;
layers = (
{
hints = (
{
horizontal = 1;
place = (0, 21);
target = up;
type = BottomGhost;
},
{
horizontal = 1;
place = (144, 115);
place = (144, 115);
type = Stem;
},
{
horizontal = 1;
place = (697, -20);
target = down;
type = TopGhost;
},
{
horizontal = 1;
place = (768, 70);
place = (768, 70);
type = Stem;
},
{
place = (174, 85);
place = (174, 85);
type = Stem;
},
{
place = (401, 85);
place = (401, 85);
type = Stem;
},
{
horizontal = 1;
place = (768, 133);
place = (768, 133);
type = Stem;
}
);
layerId = m01;
shapes = (
{
closed = 1;
nodes = (
(433,768,o),
(486,811,o),
(486,901,c),
(401,901,l),
(401,860,o),
(371,838,o),
(330,838,cs),
(291,838,o),
(259,858,o),
(259,901,c),
(174,901,l),
(174,815,o),
(222,768,o),
(330,768,cs)
);
},
{
closed = 1;
nodes = (
(519,0,l),
(655,0,l),
(377,697,l),
(283,697,l),
(4,0,l),
(140,0,l),
(193,144,l),
(466,144,l)
);
},
{
closed = 1;
nodes = (
(236,259,l),
(330,513,l),
(424,259,l)
);
}
);
width = 659;
}
);
note = Abreve;
unicode = 258;
},
{
glyphname = uni1EAE;
kernLeft = A;
kernRight = A;
layers = (
{
hints = (
{
horizontal = 1;
place = (0, 21);
target = up;
type = BottomGhost;
},
{
horizontal = 1;
place = (144, 115);
place = (144, 115);
type = Stem;
},
{
horizontal = 1;
place = (697, -20);
target = down;
type = TopGhost;
},
{
horizontal = 1;
place = (768, 70);
place = (768, 70);
type = Stem;
},
{
horizontal = 1;
place = (963, 142);
place = (963, 142);
type = Stem;
},
{
place = (174, 85);
place = (174, 85);
type = Stem;
},
{
place = (401, 85);
place = (401, 85);
type = Stem;
},
{
horizontal = 1;
place = (768, 133);
place = (768, 133);
type = Stem;
}
);
layerId = m01;
shapes = (
{
closed = 1;
nodes = (
(526,1105,l),
(397,1105,l),
(286,963,l),
(374,963,l)
);
},
{
closed = 1;
nodes = (
(433,768,o),
(486,811,o),
(486,901,c),
(401,901,l),
(401,860,o),
(371,838,o),
(330,838,cs),
(291,838,o),
(259,858,o),
(259,901,c),
(174,901,l),
(174,815,o),
(222,768,o),
(330,768,cs)
);
},
{
closed = 1;
nodes = (
(519,0,l),
(655,0,l),
(377,697,l),
(283,697,l),
(4,0,l),
(140,0,l),
(193,144,l),
(466,144,l)
);
},
{
closed = 1;
nodes = (
(236,259,l),
(330,513,l),
(424,259,l)
);
}
);
width = 659;
}
);
note = uni1EAE;
unicode = 7854;
},
{
glyphname = uni1EB6;
kernLeft = A;
kernRight = A;
layers = (
{
hints = (
{
horizontal = 1;
place = (-173, 111);
place = (-173, 111);
type = Stem;
},
{
horizontal = 1;
place = (0, 21);
target = up;
type = BottomGhost;
},
{
horizontal = 1;
place = (144, 115);
place = (144, 115);
type = Stem;
},
{
horizontal = 1;
place = (697, -20);
target = down;
type = TopGhost;
},
{
horizontal = 1;
place = (768, 70);
place = (768, 70);
type = Stem;
},
{
place = (174, 85);
place = (174, 85);
type = Stem;
},
{
place = (267, 126);
place = (267, 126);
type = Stem;
},
{
horizontal = 1;
place = (768, 133);
place = (768, 133);
type = Stem;
},
{
place = (401, 85);
place = (401, 85);
type = Stem;
}
);
layerId = m01;
shapes = (
{
closed = 1;
nodes = (
(433,768,o),
(486,811,o),
(486,901,c),
(401,901,l),
(401,860,o),
(371,838,o),
(330,838,cs),
(291,838,o),
(259,858,o),
(259,901,c),
(174,901,l),
(174,815,o),
(222,768,o),
(330,768,cs)
);
},
{
closed = 1;
nodes = (
(655,0,l),
(377,697,l),
(283,697,l),
(4,0,l),
(140,0,l),
(193,144,l),
(466,144,l),
(519,0,l)
);
},
{
closed = 1;
nodes = (
(236,259,l),
(330,513,l),
(424,259,l)
);
},
{
closed = 1;
nodes = (
(267,-173,l),
(393,-173,l),
(393,-62,l),
(267,-62,l)
);
}
);
width = 659;
}
);
note = uni1EB6;
unicode = 7862;
},
{
glyphname = uni1EB0;
kernLeft = A;
kernRight = A;
layers = (
{
hints = (
{
horizontal = 1;
place = (0, 21);
target = up;
type = BottomGhost;
},
{
horizontal = 1;
place = (144, 115);
place = (144, 115);
type = Stem;
},
{
horizontal = 1;
place = (697, -20);
target = down;
type = TopGhost;
},
{
horizontal = 1;
place = (768, 70);
place = (768, 70);
type = Stem;
},
{
horizontal = 1;
place = (963, 142);
place = (963, 142);
type = Stem;
},
{
place = (174, 85);
place = (174, 85);
type = Stem;
},
{
place = (401, 85);
place = (401, 85);
type = Stem;
},
{
horizontal = 1;
place = (768, 133);
place = (768, 133);
type = Stem;
}
);
layerId = m01;
shapes = (
{
closed = 1;
nodes = (
(375,963,l),
(271,1105,l),
(143,1105,l),
(285,963,l)
);
},
{
closed = 1;
nodes = (
(174,901,l),
(174,815,o),
(222,768,o),
(330,768,cs),
(433,768,o),
(486,811,o),
(486,901,c),
(401,901,l),
(401,860,o),
(371,838,o),
(330,838,cs),
(291,838,o),
(259,858,o),
(259,901,c)
);
},
{
closed = 1;
nodes = (
(519,0,l),
(655,0,l),
(377,697,l),
(283,697,l),
(4,0,l),
(140,0,l),
(193,144,l),
(466,144,l)
);
},
{
closed = 1;
nodes = (
(236,259,l),
(330,513,l),
(424,259,l)
);
}
);
width = 659;
}
);
note = uni1EB0;
unicode = 7856;
},
{
glyphname = uni1EB2;
kernLeft = A;
kernRight = A;
layers = (
{
hints = (
{
horizontal = 1;
place = (0, 21);
target = up;
type = BottomGhost;
},
{
horizontal = 1;
place = (144, 115);
place = (144, 115);
type = Stem;
},
{
horizontal = 1;
place = (697, -20);
target = down;
type = TopGhost;
},
{
horizontal = 1;
place = (768, 70);
place = (768, 70);
type = Stem;
},
{
horizontal = 1;
place = (1060, 66);
place = (1060, 66);
type = Stem;
},
{
place = (174, 85);
place = (174, 85);
type = Stem;
},
{
place = (367, 76);
place = (367, 76);
type = Stem;
},
{
horizontal = 1;
place = (768, 133);
place = (768, 133);
type = Stem;
},
{
place = (401, 85);
place = (401, 85);
type = Stem;
}
);
layerId = m01;
shapes = (
{
closed = 1;
nodes = (
(367,997,o),
(336,993,o),
(306,989,c),
(320,940,l),
(371,948,o),
(443,960,o),
(443,1029,cs),
(443,1092,o),
(382,1126,o),
(293,1126,cs),
(278,1126,l),
(278,1060,l),
(293,1060,ls),
(329,1060,o),
(367,1060,o),
(367,1027,cs)
);
},
{
closed = 1;
nodes = (
(433,768,o),
(486,811,o),
(486,901,c),
(401,901,l),
(401,860,o),
(371,838,o),
(330,838,cs),
(291,838,o),
(259,858,o),
(259,901,c),
(174,901,l),
(174,815,o),
(222,768,o),
(330,768,cs)
);
},
{
closed = 1;
nodes = (
(519,0,l),
(655,0,l),
(377,697,l),
(283,697,l),
(4,0,l),
(140,0,l),
(193,144,l),
(466,144,l)
);
},
{
closed = 1;
nodes = (
(236,259,l),
(330,513,l),
(424,259,l)
);
}
);
width = 659;
}
);
note = uni1EB2;
unicode = 7858;
},
{
glyphname = uni1EB4;
kernLeft = A;
kernRight = A;
layers = (
{
hints = (
{
horizontal = 1;
place = (0, 21);
target = up;
type = BottomGhost;
},
{
horizontal = 1;
place = (144, 115);
place = (144, 115);
type = Stem;
},
{
horizontal = 1;
place = (697, -20);
target = down;
type = TopGhost;
},
{
horizontal = 1;
place = (768, 70);
place = (768, 70);
type = Stem;
},
{
horizontal = 1;
place = (1034, 74);
place = (1034, 74);
type = Stem;
},
{
place = (163, 69);
place = (163, 69);
type = Stem;
},
{
place = (424, 72);
place = (424, 72);
type = Stem;
},
{
horizontal = 1;
place = (964, 74);
place = (964, 74);
type = Stem;
},
{
place = (174, 85);
place = (174, 85);
type = Stem;
},
{
place = (401, 85);
place = (401, 85);
type = Stem;
},
{
horizontal = 1;
place = (768, 133);
place = (768, 133);
type = Stem;
}
);
layerId = m01;
shapes = (
{
closed = 1;
nodes = (
(301,1034,o),
(315,964,o),
(393,964,cs),
(456,964,o),
(496,1014,o),
(496,1105,c),
(424,1105,l),
(424,1062,o),
(411,1038,o),
(394,1038,cs),
(359,1038,o),
(338,1108,o),
(269,1108,cs),
(204,1108,o),
(163,1057,o),
(163,967,c),
(232,967,l),
(232,1010,o),
(244,1034,o),
(264,1034,cs)
);
},
{
closed = 1;
nodes = (
(291,838,o),
(259,858,o),
(259,901,c),
(174,901,l),
(174,815,o),
(222,768,o),
(330,768,cs),
(433,768,o),
(486,811,o),
(486,901,c),
(401,901,l),
(401,860,o),
(371,838,o),
(330,838,cs)
);
},
{
closed = 1;
nodes = (
(519,0,l),
(655,0,l),
(377,697,l),
(283,697,l),
(4,0,l),
(140,0,l),
(193,144,l),
(466,144,l)
);
},
{
closed = 1;
nodes = (
(236,259,l),
(330,513,l),
(424,259,l)
);
}
);
width = 659;
}
);
note = uni1EB4;
unicode = 7860;
},
{
glyphname = uni01CD;
kernLeft = A;
kernRight = A;
layers = (
{
hints = (
{
horizontal = 1;
place = (0, 21);
target = up;
type = BottomGhost;
},
{
horizontal = 1;
place = (144, 115);
place = (144, 115);
type = Stem;
},
{
horizontal = 1;
place = (697, -20);
target = down;
type = TopGhost;
},
{
place = (4, 651);
place = (4, 651);
type = Stem;
}
);
layerId = m01;
shapes = (
{
closed = 1;
nodes = (
(486,901,l),
(393,901,l),
(330,834,l),
(267,901,l),
(174,901,l),
(330,737,l)
);
},
{
closed = 1;
nodes = (
(519,0,l),
(655,0,l),
(377,697,l),
(283,697,l),
(4,0,l),
(140,0,l),
(193,144,l),
(466,144,l)
);
},
{
closed = 1;
nodes = (
(236,259,l),
(330,513,l),
(424,259,l)
);
}
);
width = 659;
}
);
note = uni01CD;
unicode = 461;
},
{
glyphname = Acircumflex;
kernLeft = A;
kernRight = A;
layers = (
{
hints = (
{
horizontal = 1;
place = (0, 21);
target = up;
type = BottomGhost;
},
{
horizontal = 1;
place = (144, 115);
place = (144, 115);
type = Stem;
},
{
horizontal = 1;
place = (697, -20);
target = down;
type = TopGhost;
},
{
place = (4, 651);
place = (4, 651);
type = Stem;
}
);
layerId = m01;
shapes = (
{
closed = 1;
nodes = (
(330,817,l),
(393,745,l),
(486,745,l),
(330,919,l),
(174,745,l),
(267,745,l)
);
},
{
closed = 1;
nodes = (
(519,0,l),
(655,0,l),
(377,697,l),
(283,697,l),
(4,0,l),
(140,0,l),
(193,144,l),
(466,144,l)
);
},
{
closed = 1;
nodes = (
(236,259,l),
(330,513,l),
(424,259,l)
);
}
);
width = 659;
}
);
note = Acircumflex;
unicode = 194;
},
{
glyphname = uni1EA4;
kernLeft = A;
kernRight = A;
layers = (
{
hints = (
{
horizontal = 1;
place = (0, 21);
target = up;
type = BottomGhost;
},
{
horizontal = 1;
place = (144, 115);
place = (144, 115);
type = Stem;
},
{
horizontal = 1;
place = (697, -20);
target = down;
type = TopGhost;
},
{
horizontal = 1;
place = (947, 142);
place = (947, 142);
type = Stem;
},
{
place = (4, 651);
place = (4, 651);
type = Stem;
}
);
layerId = m01;
shapes = (
{
closed = 1;
nodes = (
(526,1089,l),
(397,1089,l),
(286,947,l),
(374,947,l)
);
},
{
closed = 1;
nodes = (
(330,817,l),
(393,745,l),
(486,745,l),
(330,919,l),
(174,745,l),
(267,745,l)
);
},
{
closed = 1;
nodes = (
(519,0,l),
(655,0,l),
(377,697,l),
(283,697,l),
(4,0,l),
(140,0,l),
(193,144,l),
(466,144,l)
);
},
{
closed = 1;
nodes = (
(236,259,l),
(330,513,l),
(424,259,l)
);
}
);
width = 659;
}
);
note = uni1EA4;
unicode = 7844;
},
{
glyphname = uni1EAC;
kernLeft = A;
kernRight = A;
layers = (
{
hints = (
{
horizontal = 1;
place = (-173, 111);
place = (-173, 111);
type = Stem;
},
{
horizontal = 1;
place = (0, 21);
target = up;
type = BottomGhost;
},
{
horizontal = 1;
place = (144, 115);
place = (144, 115);
type = Stem;
},
{
horizontal = 1;
place = (697, -20);
target = down;
type = TopGhost;
},
{
place = (267, 126);
place = (267, 126);
type = Stem;
}
);
layerId = m01;
shapes = (
{
closed = 1;
nodes = (
(330,817,l),
(393,745,l),
(486,745,l),
(330,919,l),
(174,745,l),
(267,745,l)
);
},
{
closed = 1;
nodes = (
(655,0,l),
(377,697,l),
(283,697,l),
(4,0,l),
(140,0,l),
(193,144,l),
(466,144,l),
(519,0,l)
);
},
{
closed = 1;
nodes = (
(236,259,l),
(330,513,l),
(424,259,l)
);
},
{
closed = 1;
nodes = (
(267,-173,l),
(393,-173,l),
(393,-62,l),
(267,-62,l)
);
}
);
width = 659;
}
);
note = uni1EAC;
unicode = 7852;
},
{
glyphname = uni1EA6;
kernLeft = A;
kernRight = A;
layers = (
{
hints = (
{
horizontal = 1;
place = (0, 21);
target = up;
type = BottomGhost;
},
{
horizontal = 1;
place = (144, 115);
place = (144, 115);
type = Stem;
},
{
horizontal = 1;
place = (697, -20);
target = down;
type = TopGhost;
},
{
horizontal = 1;
place = (947, 142);
place = (947, 142);
type = Stem;
},
{
place = (4, 651);
place = (4, 651);
type = Stem;
}
);
layerId = m01;
shapes = (
{
closed = 1;
nodes = (
(375,947,l),
(271,1089,l),
(143,1089,l),
(285,947,l)
);
},
{
closed = 1;
nodes = (
(174,745,l),
(267,745,l),
(330,817,l),
(393,745,l),
(486,745,l),
(330,919,l)
);
},
{
closed = 1;
nodes = (
(519,0,l),
(655,0,l),
(377,697,l),
(283,697,l),
(4,0,l),
(140,0,l),
(193,144,l),
(466,144,l)
);
},
{
closed = 1;
nodes = (
(236,259,l),
(330,513,l),
(424,259,l)
);
}
);
width = 659;
}
);
note = uni1EA6;
unicode = 7846;
},
{
glyphname = uni1EA8;
kernLeft = A;
kernRight = A;
layers = (
{
hints = (
{
horizontal = 1;
place = (0, 21);
target = up;
type = BottomGhost;
},
{
horizontal = 1;
place = (144, 115);
place = (144, 115);
type = Stem;
},
{
horizontal = 1;
place = (697, -20);
target = down;
type = TopGhost;
},
{
horizontal = 1;
place = (1044, 66);
place = (1044, 66);
type = Stem;
},
{
place = (367, 76);
place = (367, 76);
type = Stem;
}
);
layerId = m01;
shapes = (
{
closed = 1;
nodes = (
(367,981,o),
(336,977,o),
(306,973,c),
(320,924,l),
(371,932,o),
(443,944,o),
(443,1013,cs),
(443,1076,o),
(382,1110,o),
(293,1110,cs),
(278,1110,l),
(278,1044,l),
(293,1044,ls),
(329,1044,o),
(367,1044,o),
(367,1011,cs)
);
},
{
closed = 1;
nodes = (
(330,817,l),
(393,745,l),
(486,745,l),
(330,919,l),
(174,745,l),
(267,745,l)
);
},
{
closed = 1;
nodes = (
(519,0,l),
(655,0,l),
(377,697,l),
(283,697,l),
(4,0,l),
(140,0,l),
(193,144,l),
(466,144,l)
);
},
{
closed = 1;
nodes = (
(236,259,l),
(330,513,l),
(424,259,l)
);
}
);
width = 659;
}
);
note = uni1EA8;
unicode = 7848;
},
{
glyphname = uni1EAA;
kernLeft = A;
kernRight = A;
layers = (
{
hints = (
{
horizontal = 1;
place = (0, 21);
target = up;
type = BottomGhost;
},
{
horizontal = 1;
place = (144, 115);
place = (144, 115);
type = Stem;
},
{
horizontal = 1;
place = (697, -20);
target = down;
type = TopGhost;
},
{
horizontal = 1;
place = (1018, 74);
place = (1018, 74);
type = Stem;
},
{
place = (163, 69);
place = (163, 69);
type = Stem;
},
{
place = (424, 72);
place = (424, 72);
type = Stem;
},
{
horizontal = 1;
place = (948, 74);
place = (948, 74);
type = Stem;
}
);
layerId = m01;
shapes = (
{
closed = 1;
nodes = (
(301,1018,o),
(315,948,o),
(393,948,cs),
(456,948,o),
(496,998,o),
(496,1089,c),
(424,1089,l),
(424,1046,o),
(411,1022,o),
(394,1022,cs),
(359,1022,o),
(338,1092,o),
(269,1092,cs),
(204,1092,o),
(163,1041,o),
(163,951,c),
(232,951,l),
(232,994,o),
(244,1018,o),
(264,1018,cs)
);
},
{
closed = 1;
nodes = (
(174,745,l),
(267,745,l),
(330,817,l),
(393,745,l),
(486,745,l),
(330,919,l)
);
},
{
closed = 1;
nodes = (
(519,0,l),
(655,0,l),
(377,697,l),
(283,697,l),
(4,0,l),
(140,0,l),
(193,144,l),
(466,144,l)
);
},
{
closed = 1;
nodes = (
(236,259,l),
(330,513,l),
(424,259,l)
);
}
);
width = 659;
}
);
note = uni1EAA;
unicode = 7850;
},
{
glyphname = Adieresis;
kernLeft = A;
kernRight = A;
layers = (
{
hints = (
{
horizontal = 1;
place = (0, 21);
target = up;
type = BottomGhost;
},
{
horizontal = 1;
place = (144, 115);
place = (144, 115);
type = Stem;
},
{
horizontal = 1;
place = (697, -20);
target = down;
type = TopGhost;
},
{
horizontal = 1;
place = (790, 111);
place = (790, 111);
type = Stem;
},
{
place = (182, 101);
place = (182, 101);
type = Stem;
},
{
place = (377, 101);
place = (377, 101);
type = Stem;
}
);
layerId = m01;
shapes = (
{
closed = 1;
nodes = (
(283,901,l),
(182,901,l),
(182,790,l),
(283,790,l)
);
},
{
closed = 1;
nodes = (
(478,901,l),
(377,901,l),
(377,790,l),
(478,790,l)
);
},
{
closed = 1;
nodes = (
(519,0,l),
(655,0,l),
(377,697,l),
(283,697,l),
(4,0,l),
(140,0,l),
(193,144,l),
(466,144,l)
);
},
{
closed = 1;
nodes = (
(236,259,l),
(330,513,l),
(424,259,l)
);
}
);
width = 659;
}
);
note = Adieresis;
unicode = 196;
},
{
glyphname = uni1EA0;
kernLeft = A;
kernRight = A;
layers = (
{
hints = (
{
horizontal = 1;
place = (-173, 111);
place = (-173, 111);
type = Stem;
},
{
horizontal = 1;
place = (0, 21);
target = up;
type = BottomGhost;
},
{
horizontal = 1;
place = (144, 115);
place = (144, 115);
type = Stem;
},
{
horizontal = 1;
place = (697, -20);
target = down;
type = TopGhost;
},
{
place = (267, 126);
place = (267, 126);
type = Stem;
}
);
layerId = m01;
shapes = (
{
closed = 1;
nodes = (
(655,0,l),
(377,697,l),
(283,697,l),
(4,0,l),
(140,0,l),
(193,144,l),
(466,144,l),
(519,0,l)
);
},
{
closed = 1;
nodes = (
(236,259,l),
(330,513,l),
(424,259,l)
);
},
{
closed = 1;
nodes = (
(267,-173,l),
(393,-173,l),
(393,-62,l),
(267,-62,l)
);
}
);
width = 659;
}
);
note = uni1EA0;
unicode = 7840;
},
{
glyphname = Agrave;
kernLeft = A;
kernRight = A;
layers = (
{
hints = (
{
horizontal = 1;
place = (0, 21);
target = up;
type = BottomGhost;
},
{
horizontal = 1;
place = (144, 115);
place = (144, 115);
type = Stem;
},
{
horizontal = 1;
place = (697, -20);
target = down;
type = TopGhost;
},
{
horizontal = 1;
place = (759, 142);
place = (759, 142);
type = Stem;
},
{
place = (4, 651);
place = (4, 651);
type = Stem;
}
);
layerId = m01;
shapes = (
{
closed = 1;
nodes = (
(375,759,l),
(271,901,l),
(143,901,l),
(285,759,l)
);
},
{
closed = 1;
nodes = (
(519,0,l),
(655,0,l),
(377,697,l),
(283,697,l),
(4,0,l),
(140,0,l),
(193,144,l),
(466,144,l)
);
},
{
closed = 1;
nodes = (
(236,259,l),
(330,513,l),
(424,259,l)
);
}
);
width = 659;
}
);
note = Agrave;
unicode = 192;
},
{
glyphname = uni1EA2;
kernLeft = A;
kernRight = A;
layers = (
{
hints = (
{
horizontal = 1;
place = (0, 21);
target = up;
type = BottomGhost;
},
{
horizontal = 1;
place = (144, 115);
place = (144, 115);
type = Stem;
},
{
horizontal = 1;
place = (697, -20);
target = down;
type = TopGhost;
},
{
horizontal = 1;
place = (856, 66);
place = (856, 66);
type = Stem;
},
{
place = (367, 76);
place = (367, 76);
type = Stem;
}
);
layerId = m01;
shapes = (
{
closed = 1;
nodes = (
(367,793,o),
(336,789,o),
(306,785,c),
(320,736,l),
(371,744,o),
(443,756,o),
(443,825,cs),
(443,888,o),
(382,922,o),
(293,922,cs),
(278,922,l),
(278,856,l),
(293,856,ls),
(329,856,o),
(367,856,o),
(367,823,cs)
);
},
{
closed = 1;
nodes = (
(519,0,l),
(655,0,l),
(377,697,l),
(283,697,l),
(4,0,l),
(140,0,l),
(193,144,l),
(466,144,l)
);
},
{
closed = 1;
nodes = (
(236,259,l),
(330,513,l),
(424,259,l)
);
}
);
width = 659;
}
);
note = uni1EA2;
unicode = 7842;
},
{
glyphname = Amacron;
kernLeft = A;
kernRight = A;
layers = (
{
hints = (
{
horizontal = 1;
place = (0, 21);
target = up;
type = BottomGhost;
},
{
horizontal = 1;
place = (144, 115);
place = (144, 115);
type = Stem;
},
{
horizontal = 1;
place = (697, -20);
target = down;
type = TopGhost;
},
{
horizontal = 1;
place = (770, 70);
place = (770, 70);
type = Stem;
},
{
place = (192, 275);
place = (192, 275);
type = Stem;
}
);
layerId = m01;
shapes = (
{
closed = 1;
nodes = (
(467,840,l),
(192,840,l),
(192,770,l),
(467,770,l)
);
},
{
closed = 1;
nodes = (
(519,0,l),
(655,0,l),
(377,697,l),
(283,697,l),
(4,0,l),
(140,0,l),
(193,144,l),
(466,144,l)
);
},
{
closed = 1;
nodes = (
(236,259,l),
(330,513,l),
(424,259,l)
);
}
);
width = 659;
}
);
note = Amacron;
unicode = 256;
},
{
glyphname = Aogonek;
kernLeft = A;
kernRight = A;
layers = (
{
hints = (
{
horizontal = 1;
place = (-222, 74);
place = (-222, 74);
type = Stem;
},
{
horizontal = 1;
place = (0, 21);
target = up;
type = BottomGhost;
},
{
horizontal = 1;
place = (144, 115);
place = (144, 115);
type = Stem;
},
{
horizontal = 1;
place = (697, -20);
target = down;
type = TopGhost;
},
{
place = (480, 72);
place = (480, 72);
type = Stem;
}
);
layerId = m01;
shapes = (
{
closed = 1;
nodes = (
(639,-120,l),
(626,-138,o),
(610,-148,o),
(589,-148,cs),
(569,-148,o),
(552,-139,o),
(552,-109,cs),
(552,-38,o),
(645,-4,o),
(655,0,c),
(377,697,l),
(283,697,l),
(4,0,l),
(140,0,l),
(193,144,l),
(466,144,l),
(519,0,l),
(561,0,l),
(528,-18,o),
(480,-58,o),
(480,-121,cs),
(480,-182,o),
(528,-222,o),
(592,-222,cs),
(642,-222,o),
(676,-197,o),
(700,-162,c)
);
},
{
closed = 1;
nodes = (
(236,259,l),
(330,513,l),
(424,259,l)
);
}
);
width = 659;
}
);
note = Aogonek;
unicode = 260;
},
{
glyphname = Aring;
kernLeft = A;
kernRight = A;
layers = (
{
hints = (
{
horizontal = 1;
place = (0, 21);
target = up;
type = BottomGhost;
},
{
horizontal = 1;
place = (144, 115);
place = (144, 115);
type = Stem;
},
{
horizontal = 1;
place = (840, 65);
place = (840, 65);
type = Stem;
},
{
place = (216, 65);
place = (216, 65);
type = Stem;
},
{
place = (379, 65);
place = (379, 65);
type = Stem;
}
);
layerId = m01;
shapes = (
{
closed = 1;
nodes = (
(519,0,l),
(655,0,l),
(380,689,l),
(418,707,o),
(444,746,o),
(444,791,cs),
(444,855,o),
(391,905,o),
(330,905,cs),
(267,905,o),
(216,854,o),
(216,791,cs),
(216,747,o),
(242,708,o),
(280,689,c),
(4,0,l),
(140,0,l),
(193,144,l),
(466,144,l)
);
},
{
closed = 1;
nodes = (
(361,840,o),
(379,820,o),
(379,792,cs),
(379,763,o),
(359,742,o),
(330,742,cs),
(302,742,o),
(281,763,o),
(281,792,cs),
(281,820,o),
(300,840,o),
(330,840,cs)
);
},
{
closed = 1;
nodes = (
(236,259,l),
(330,513,l),
(424,259,l)
);
}
);
width = 659;
}
);
note = Aring;
unicode = 197;
},
{
glyphname = Atilde;
kernLeft = A;
kernRight = A;
layers = (
{
hints = (
{
horizontal = 1;
place = (0, 21);
target = up;
type = BottomGhost;
},
{
horizontal = 1;
place = (144, 115);
place = (144, 115);
type = Stem;
},
{
horizontal = 1;
place = (697, -20);
target = down;
type = TopGhost;
},
{
horizontal = 1;
place = (830, 74);
place = (830, 74);
type = Stem;
},
{
place = (163, 69);
place = (163, 69);
type = Stem;
},
{
place = (424, 72);
place = (424, 72);
type = Stem;
},
{
horizontal = 1;
place = (760, 74);
place = (760, 74);
type = Stem;
}
);
layerId = m01;
shapes = (
{
closed = 1;
nodes = (
(301,830,o),
(315,760,o),
(393,760,cs),
(456,760,o),
(496,810,o),
(496,901,c),
(424,901,l),
(424,858,o),
(411,834,o),
(394,834,cs),
(359,834,o),
(338,904,o),
(269,904,cs),
(204,904,o),
(163,853,o),
(163,763,c),
(232,763,l),
(232,806,o),
(244,830,o),
(264,830,cs)
);
},
{
closed = 1;
nodes = (
(519,0,l),
(655,0,l),
(377,697,l),
(283,697,l),
(4,0,l),
(140,0,l),
(193,144,l),
(466,144,l)
);
},
{
closed = 1;
nodes = (
(236,259,l),
(330,513,l),
(424,259,l)
);
}
);
width = 659;
}
);
note = Atilde;
unicode = 195;
},
{
glyphname = AE;
kernLeft = A;
layers = (
{
hints = (
{
horizontal = 1;
place = (0, 113);
place = (0, 113);
type = Stem;
},
{
horizontal = 1;
place = (152, 115);
place = (152, 115);
type = Stem;
},
{
horizontal = 1;
place = (587, 110);
place = (587, 110);
type = Stem;
},
{
place = (401, 126);
place = (401, 126);
type = Stem;
},
{
horizontal = 1;
place = (296, 105);
place = (296, 105);
type = Stem;
},
{
horizontal = 1;
place = (592, 105);
place = (592, 105);
type = Stem;
}
);
layerId = m01;
shapes = (
{
closed = 1;
nodes = (
(4,0,l),
(140,0,l),
(196,152,l),
(401,152,l),
(401,0,l),
(875,0,l),
(875,113,l),
(527,113,l),
(527,296,l),
(832,296,l),
(832,401,l),
(527,401,l),
(527,587,l),
(875,587,l),
(875,697,l),
(282,697,l)
);
},
{
closed = 1;
nodes = (
(238,267,l),
(358,592,l),
(401,592,l),
(401,267,l)
);
}
);
width = 924;
}
);
note = AE;
unicode = 198;
},
{
glyphname = B;
kernLeft = B;
kernRight = B;
lastChange = "2022-12-21 16:00:56 +0000";
layers = (
{
hints = (
{
horizontal = 1;
place = (0, 115);
place = (0, 115);
type = Stem;
},
{
horizontal = 1;
place = (305, 115);
place = (305, 115);
type = Stem;
},
{
horizontal = 1;
place = (582, 115);
place = (582, 115);
type = Stem;
},
{
place = (88, 125);
place = (88, 125);
type = Stem;
},
{
place = (464, 125);
place = (464, 125);
type = Stem;
},
{
place = (427, 125);
place = (427, 125);
type = Stem;
}
);
layerId = m01;
shapes = (
{
closed = 1;
nodes = (
(88,15,ls),
(88,7,o),
(95,0,o),
(103,0,cs),
(362,0,ls),
(504,0,o),
(589,76,o),
(589,204,cs),
(589,291,o),
(550,349,o),
(475,376,c),
(524,404,o),
(552,456,o),
(552,521,cs),
(552,631,o),
(470,697,o),
(331,697,cs),
(103,697,ls),
(95,697,o),
(88,690,o),
(88,682,cs)
);
},
{
closed = 1;
nodes = (
(213,420,l),
(213,582,l),
(331,582,ls),
(392,582,o),
(427,552,o),
(427,499,cs),
(427,447,o),
(394,420,o),
(331,420,cs)
);
},
{
closed = 1;
nodes = (
(213,115,l),
(213,305,l),
(352,305,ls),
(425,305,o),
(464,273,o),
(464,214,cs),
(464,153,o),
(422,115,o),
(352,115,cs)
);
}
);
width = 629;
}
);
note = B;
unicode = 66;
},
{
glyphname = C;
kernLeft = C;
kernRight = C;
lastChange = "2022-12-21 16:01:15 +0000";
layers = (
{
hints = (
{
horizontal = 1;
place = (-15, 119);
place = (-15, 119);
type = Stem;
},
{
horizontal = 1;
place = (594, 119);
place = (594, 119);
type = Stem;
},
{
place = (40, 125);
place = (40, 125);
type = Stem;
}
);
layerId = m01;
shapes = (
{
closed = 1;
nodes = (
(527,-15,o),
(639,58,o),
(689,193,c),
(586,232,ls),
(578,235,o),
(570,231,o),
(567,223,cs),
(534,144,o),
(469,104,o),
(378,104,cs),
(244,104,o),
(165,193,o),
(165,350,cs),
(165,506,o),
(243,594,o),
(378,594,cs),
(468,594,o),
(533,556,o),
(566,478,cs),
(570,470,o),
(578,467,o),
(586,470,cs),
(687,509,l),
(636,642,o),
(525,713,o),
(378,713,cs),
(172,713,o),
(40,572,o),
(40,349,cs),
(40,126,o),
(172,-15,o),
(378,-15,cs)
);
}
);
width = 711;
}
);
note = C;
unicode = 67;
},
{
glyphname = Cacute;
kernLeft = C;
kernRight = C;
layers = (
{
hints = (
{
horizontal = 1;
place = (-15, 119);
place = (-15, 119);
type = Stem;
},
{
horizontal = 1;
place = (594, 119);
place = (594, 119);
type = Stem;
},
{
horizontal = 1;
place = (759, 142);
place = (759, 142);
type = Stem;
},
{
place = (40, 125);
place = (40, 125);
type = Stem;
}
);
layerId = m01;
shapes = (
{
closed = 1;
nodes = (
(339,759,l),
(427,759,l),
(579,901,l),
(450,901,l)
);
},
{
closed = 1;
nodes = (
(527,-15,o),
(639,58,o),
(689,193,c),
(572,237,l),
(542,149,o),
(474,104,o),
(378,104,cs),
(244,104,o),
(165,193,o),
(165,350,cs),
(165,506,o),
(243,594,o),
(378,594,cs),
(473,594,o),
(541,551,o),
(572,464,c),
(687,509,l),
(636,642,o),
(525,713,o),
(378,713,cs),
(172,713,o),
(40,572,o),
(40,349,cs),
(40,126,o),
(172,-15,o),
(378,-15,cs)
);
}
);
width = 711;
}
);
note = Cacute;
unicode = 262;
},
{
glyphname = Ccaron;
kernLeft = C;
kernRight = C;
layers = (
{
hints = (
{
horizontal = 1;
place = (-15, 119);
place = (-15, 119);
type = Stem;
},
{
horizontal = 1;
place = (594, 119);
place = (594, 119);
type = Stem;
},
{
place = (40, 125);
place = (40, 125);
type = Stem;
}
);
layerId = m01;
shapes = (
{
closed = 1;
nodes = (
(383,737,l),
(539,901,l),
(446,901,l),
(383,834,l),
(320,901,l),
(227,901,l)
);
},
{
closed = 1;
nodes = (
(527,-15,o),
(639,58,o),
(689,193,c),
(572,237,l),
(542,149,o),
(474,104,o),
(378,104,cs),
(244,104,o),
(165,193,o),
(165,350,cs),
(165,506,o),
(243,594,o),
(378,594,cs),
(473,594,o),
(541,551,o),
(572,464,c),
(687,509,l),
(636,642,o),
(525,713,o),
(378,713,cs),
(172,713,o),
(40,572,o),
(40,349,cs),
(40,126,o),
(172,-15,o),
(378,-15,cs)
);
}
);
width = 711;
}
);
note = Ccaron;
unicode = 268;
},
{
glyphname = Ccedilla;
kernLeft = C;
kernRight = C;
layers = (
{
hints = (
{
horizontal = 1;
place = (-258, 69);
place = (-258, 69);
type = Stem;
},
{
horizontal = 1;
place = (-13, 21);
target = up;
type = BottomGhost;
},
{
horizontal = 1;
place = (594, 119);
place = (594, 119);
type = Stem;
},
{
place = (40, 125);
place = (40, 125);
type = Stem;
},
{
place = (404, 70);
place = (404, 70);
type = Stem;
},
{
horizontal = 1;
place = (-96, 200);
place = (-96, 200);
type = Stem;
}
);
layerId = m01;
shapes = (
{
closed = 1;
nodes = (
(572,237,l),
(542,149,o),
(474,104,o),
(378,104,cs),
(244,104,o),
(165,193,o),
(165,350,cs),
(165,506,o),
(243,594,o),
(378,594,cs),
(473,594,o),
(541,551,o),
(572,464,c),
(687,509,l),
(636,642,o),
(525,713,o),
(378,713,cs),
(172,713,o),
(40,572,o),
(40,349,cs),
(40,141,o),
(155,4,o),
(339,-13,c),
(287,-96,l),
(309,-96,o),
(331,-97,o),
(350,-100,cs),
(379,-105,o),
(404,-120,o),
(404,-149,cs),
(404,-173,o),
(388,-189,o),
(364,-189,cs),
(352,-189,o),
(333,-186,o),
(313,-168,c),
(275,-226,l),
(304,-251,o),
(337,-258,o),
(361,-258,cs),
(426,-258,o),
(474,-209,o),
(474,-146,cs),
(474,-112,o),
(458,-84,o),
(429,-67,cs),
(415,-59,o),
(399,-53,o),
(380,-49,c),
(407,-14,l),
(542,-5,o),
(642,67,o),
(689,193,c)
);
}
);
width = 711;
}
);
note = Ccedilla;
unicode = 199;
},
{
glyphname = Cdotaccent;
kernLeft = C;
kernRight = C;
layers = (
{
hints = (
{
horizontal = 1;
place = (-15, 119);
place = (-15, 119);
type = Stem;
},
{
horizontal = 1;
place = (594, 119);
place = (594, 119);
type = Stem;
},
{
horizontal = 1;
place = (790, 111);
place = (790, 111);
type = Stem;
},
{
place = (40, 125);
place = (40, 125);
type = Stem;
},
{
place = (320, 126);
place = (320, 126);
type = Stem;
}
);
layerId = m01;
shapes = (
{
closed = 1;
nodes = (
(320,790,l),
(446,790,l),
(446,901,l),
(320,901,l)
);
},
{
closed = 1;
nodes = (
(527,-15,o),
(639,58,o),
(689,193,c),
(572,237,l),
(542,149,o),
(474,104,o),
(378,104,cs),
(244,104,o),
(165,193,o),
(165,350,cs),
(165,506,o),
(243,594,o),
(378,594,cs),
(473,594,o),
(541,551,o),
(572,464,c),
(687,509,l),
(636,642,o),
(525,713,o),
(378,713,cs),
(172,713,o),
(40,572,o),
(40,349,cs),
(40,126,o),
(172,-15,o),
(378,-15,cs)
);
}
);
width = 711;
}
);
note = Cdotaccent;
unicode = 266;
},
{
glyphname = D;
kernLeft = B;
kernRight = D;
lastChange = "2022-12-21 16:03:09 +0000";
layers = (
{
hints = (
{
horizontal = 1;
place = (0, 115);
place = (0, 115);
type = Stem;
},
{
horizontal = 1;
place = (582, 115);
place = (582, 115);
type = Stem;
},
{
place = (88, 125);
place = (88, 125);
type = Stem;
},
{
place = (527, 126);
place = (527, 126);
type = Stem;
}
);
layerId = m01;
shapes = (
{
closed = 1;
nodes = (
(88,697,o),
(88,667,qs),
(88,0,l),
(289,0,ls),
(467,0,o),
(653,175,o),
(653,343,qs),
(653,514,o),
(464,697,o),
(290,697,qs),
(118,697,ls)
);
},
{
closed = 1;
nodes = (
(213,582,l),
(288,582,ls),
(412,582,o),
(527,469,o),
(527,348,qs),
(527,225,o),
(409,115,o),
(277,115,qs),
(213,115,l)
);
}
);
width = 691;
}
);
note = D;
unicode = 68;
},
{
glyphname = Eth;
kernLeft = B;
kernRight = D;
layers = (
{
hints = (
{
horizontal = 1;
place = (0, 115);
place = (0, 115);
type = Stem;
},
{
horizontal = 1;
place = (309, 80);
place = (309, 80);
type = Stem;
},
{
horizontal = 1;
place = (582, 115);
place = (582, 115);
type = Stem;
},
{
place = (88, 125);
place = (88, 125);
type = Stem;
},
{
place = (527, 126);
place = (527, 126);
type = Stem;
}
);
layerId = m01;
shapes = (
{
closed = 1;
nodes = (
(88,697,l),
(88,389,l),
(9,389,l),
(9,309,l),
(88,309,l),
(88,0,l),
(289,0,ls),
(525,0,o),
(653,121,o),
(653,343,cs),
(653,569,o),
(521,697,o),
(290,697,cs)
);
},
{
closed = 1;
nodes = (
(213,115,l),
(213,309,l),
(332,309,l),
(332,389,l),
(213,389,l),
(213,582,l),
(288,582,ls),
(453,582,o),
(527,509,o),
(527,348,cs),
(527,184,o),
(453,115,o),
(277,115,cs)
);
}
);
width = 691;
}
);
note = Eth;
unicode = 208;
},
{
glyphname = Dcaron;
kernLeft = B;
kernRight = D;
layers = (
{
hints = (
{
horizontal = 1;
place = (0, 115);
place = (0, 115);
type = Stem;
},
{
horizontal = 1;
place = (582, 115);
place = (582, 115);
type = Stem;
},
{
place = (88, 125);
place = (88, 125);
type = Stem;
},
{
place = (527, 126);
place = (527, 126);
type = Stem;
}
);
layerId = m01;
shapes = (
{
closed = 1;
nodes = (
(346,737,l),
(502,901,l),
(409,901,l),
(346,834,l),
(283,901,l),
(190,901,l)
);
},
{
closed = 1;
nodes = (
(88,0,l),
(289,0,ls),
(525,0,o),
(653,121,o),
(653,343,cs),
(653,569,o),
(521,697,o),
(290,697,cs),
(88,697,l)
);
},
{
closed = 1;
nodes = (
(213,115,l),
(213,582,l),
(288,582,ls),
(453,582,o),
(527,509,o),
(527,348,cs),
(527,184,o),
(453,115,o),
(277,115,cs)
);
}
);
width = 691;
}
);
note = Dcaron;
unicode = 270;
},
{
glyphname = Dcroat;
kernLeft = B;
kernRight = D;
layers = (
{
hints = (
{
horizontal = 1;
place = (0, 115);
place = (0, 115);
type = Stem;
},
{
horizontal = 1;
place = (309, 80);
place = (309, 80);
type = Stem;
},
{
horizontal = 1;
place = (582, 115);
place = (582, 115);
type = Stem;
},
{
place = (88, 125);
place = (88, 125);
type = Stem;
},
{
place = (527, 126);
place = (527, 126);
type = Stem;
}
);
layerId = m01;
shapes = (
{
closed = 1;
nodes = (
(88,697,l),
(88,389,l),
(9,389,l),
(9,309,l),
(88,309,l),
(88,0,l),
(289,0,ls),
(525,0,o),
(653,121,o),
(653,343,cs),
(653,569,o),
(521,697,o),
(290,697,cs)
);
},
{
closed = 1;
nodes = (
(213,115,l),
(213,309,l),
(332,309,l),
(332,389,l),
(213,389,l),
(213,582,l),
(288,582,ls),
(453,582,o),
(527,509,o),
(527,348,cs),
(527,184,o),
(453,115,o),
(277,115,cs)
);
}
);
width = 691;
}
);
note = Dcroat;
unicode = 272;
},
{
glyphname = E;
kernLeft = B;
lastChange = "2022-12-21 16:03:24 +0000";
layers = (
{
hints = (
{
horizontal = 1;
place = (0, 115);
place = (0, 115);
type = Stem;
},
{
horizontal = 1;
place = (301, 115);
place = (301, 115);
type = Stem;
},
{
horizontal = 1;
place = (582, 115);
place = (582, 115);
type = Stem;
},
{
place = (88, 125);
place = (88, 125);
type = Stem;
}
);
layerId = m01;
shapes = (
{
closed = 1;
nodes = (
(528,416,o),
(498,416,qs),
(213,416,l),
(213,582,l),
(552,582,l),
(552,697,l),
(88,697,l),
(88,0,l),
(552,0,l),
(552,115,l),
(213,115,l),
(213,301,l),
(528,301,l),
(528,386,ls)
);
}
);
width = 610;
}
);
note = E;
unicode = 69;
},
{
glyphname = Eacute;
kernLeft = B;
layers = (
{
hints = (
{
horizontal = 1;
place = (0, 115);
place = (0, 115);
type = Stem;
},
{
horizontal = 1;
place = (301, 115);
place = (301, 115);
type = Stem;
},
{
horizontal = 1;
place = (582, 115);
place = (582, 115);
type = Stem;
},
{
horizontal = 1;
place = (759, 142);
place = (759, 142);
type = Stem;
},
{
place = (88, 125);
place = (88, 125);
type = Stem;
}
);
layerId = m01;
shapes = (
{
closed = 1;
nodes = (
(276,759,l),
(364,759,l),
(516,901,l),
(387,901,l)
);
},
{
closed = 1;
nodes = (
(88,0,l),
(552,0,l),
(552,115,l),
(213,115,l),
(213,301,l),
(528,301,l),
(528,416,l),
(213,416,l),
(213,582,l),
(552,582,l),
(552,697,l),
(88,697,l)
);
}
);
width = 610;
}
);
note = Eacute;
unicode = 201;
},
{
glyphname = Ecaron;
kernLeft = B;
layers = (
{
hints = (
{
horizontal = 1;
place = (0, 115);
place = (0, 115);
type = Stem;
},
{
horizontal = 1;
place = (301, 115);
place = (301, 115);
type = Stem;
},
{
horizontal = 1;
place = (582, 115);
place = (582, 115);
type = Stem;
},
{
place = (88, 125);
place = (88, 125);
type = Stem;
}
);
layerId = m01;
shapes = (
{
closed = 1;
nodes = (
(320,737,l),
(476,901,l),
(383,901,l),
(320,834,l),
(257,901,l),
(164,901,l)
);
},
{
closed = 1;
nodes = (
(88,0,l),
(552,0,l),
(552,115,l),
(213,115,l),
(213,301,l),
(528,301,l),
(528,416,l),
(213,416,l),
(213,582,l),
(552,582,l),
(552,697,l),
(88,697,l)
);
}
);
width = 610;
}
);
note = Ecaron;
unicode = 282;
},
{
glyphname = Ecircumflex;
kernLeft = B;
layers = (
{
hints = (
{
horizontal = 1;
place = (0, 115);
place = (0, 115);
type = Stem;
},
{
horizontal = 1;
place = (301, 115);
place = (301, 115);
type = Stem;
},
{
horizontal = 1;
place = (582, 115);
place = (582, 115);
type = Stem;
},
{
place = (88, 125);
place = (88, 125);
type = Stem;
}
);
layerId = m01;
shapes = (
{
closed = 1;
nodes = (
(164,745,l),
(257,745,l),
(320,817,l),
(383,745,l),
(476,745,l),
(320,919,l)
);
},
{
closed = 1;
nodes = (
(88,0,l),
(552,0,l),
(552,115,l),
(213,115,l),
(213,301,l),
(528,301,l),
(528,416,l),
(213,416,l),
(213,582,l),
(552,582,l),
(552,697,l),
(88,697,l)
);
}
);
width = 610;
}
);
note = Ecircumflex;
unicode = 202;
},
{
glyphname = uni1EBE;
kernLeft = B;
layers = (
{
hints = (
{
horizontal = 1;
place = (0, 115);
place = (0, 115);
type = Stem;
},
{
horizontal = 1;
place = (301, 115);
place = (301, 115);
type = Stem;
},
{
horizontal = 1;
place = (582, 115);
place = (582, 115);
type = Stem;
},
{
horizontal = 1;
place = (947, 142);
place = (947, 142);
type = Stem;
},
{
place = (88, 125);
place = (88, 125);
type = Stem;
}
);
layerId = m01;
shapes = (
{
closed = 1;
nodes = (
(276,947,l),
(364,947,l),
(516,1089,l),
(387,1089,l)
);
},
{
closed = 1;
nodes = (
(164,745,l),
(257,745,l),
(320,817,l),
(383,745,l),
(476,745,l),
(320,919,l)
);
},
{
closed = 1;
nodes = (
(88,0,l),
(552,0,l),
(552,115,l),
(213,115,l),
(213,301,l),
(528,301,l),
(528,416,l),
(213,416,l),
(213,582,l),
(552,582,l),
(552,697,l),
(88,697,l)
);
}
);
width = 610;
}
);
note = uni1EBE;
unicode = 7870;
},
{
glyphname = uni1EC6;
kernLeft = B;
layers = (
{
hints = (
{
horizontal = 1;
place = (-173, 111);
place = (-173, 111);
type = Stem;
},
{
horizontal = 1;
place = (0, 115);
place = (0, 115);
type = Stem;
},
{
horizontal = 1;
place = (301, 115);
place = (301, 115);
type = Stem;
},
{
horizontal = 1;
place = (582, 115);
place = (582, 115);
type = Stem;
},
{
place = (88, 125);
place = (88, 125);
type = Stem;
},
{
place = (257, 126);
place = (257, 126);
type = Stem;
}
);
layerId = m01;
shapes = (
{
closed = 1;
nodes = (
(164,745,l),
(257,745,l),
(320,817,l),
(383,745,l),
(476,745,l),
(320,919,l)
);
},
{
closed = 1;
nodes = (
(88,0,l),
(552,0,l),
(552,115,l),
(213,115,l),
(213,301,l),
(528,301,l),
(528,416,l),
(213,416,l),
(213,582,l),
(552,582,l),
(552,697,l),
(88,697,l)
);
},
{
closed = 1;
nodes = (
(257,-173,l),
(383,-173,l),
(383,-62,l),
(257,-62,l)
);
}
);
width = 610;
}
);
note = uni1EC6;
unicode = 7878;
},
{
glyphname = uni1EC0;
kernLeft = B;
layers = (
{
hints = (
{
horizontal = 1;
place = (0, 115);
place = (0, 115);
type = Stem;
},
{
horizontal = 1;
place = (301, 115);
place = (301, 115);
type = Stem;
},
{
horizontal = 1;
place = (582, 115);
place = (582, 115);
type = Stem;
},
{
horizontal = 1;
place = (947, 142);
place = (947, 142);
type = Stem;
},
{
place = (88, 125);
place = (88, 125);
type = Stem;
}
);
layerId = m01;
shapes = (
{
closed = 1;
nodes = (
(275,947,l),
(365,947,l),
(261,1089,l),
(133,1089,l)
);
},
{
closed = 1;
nodes = (
(164,745,l),
(257,745,l),
(320,817,l),
(383,745,l),
(476,745,l),
(320,919,l)
);
},
{
closed = 1;
nodes = (
(88,0,l),
(552,0,l),
(552,115,l),
(213,115,l),
(213,301,l),
(528,301,l),
(528,416,l),
(213,416,l),
(213,582,l),
(552,582,l),
(552,697,l),
(88,697,l)
);
}
);
width = 610;
}
);
note = uni1EC0;
unicode = 7872;
},
{
glyphname = uni1EC2;
kernLeft = B;
layers = (
{
hints = (
{
horizontal = 1;
place = (0, 115);
place = (0, 115);
type = Stem;
},
{
horizontal = 1;
place = (301, 115);
place = (301, 115);
type = Stem;
},
{
horizontal = 1;
place = (582, 115);
place = (582, 115);
type = Stem;
},
{
horizontal = 1;
place = (1044, 66);
place = (1044, 66);
type = Stem;
},
{
place = (88, 125);
place = (88, 125);
type = Stem;
},
{
place = (357, 76);
place = (357, 76);
type = Stem;
}
);
layerId = m01;
shapes = (
{
closed = 1;
nodes = (
(310,924,l),
(361,932,o),
(433,944,o),
(433,1013,cs),
(433,1076,o),
(372,1110,o),
(283,1110,cs),
(268,1110,l),
(268,1044,l),
(283,1044,ls),
(319,1044,o),
(357,1044,o),
(357,1011,cs),
(357,981,o),
(326,977,o),
(296,973,c)
);
},
{
closed = 1;
nodes = (
(164,745,l),
(257,745,l),
(320,817,l),
(383,745,l),
(476,745,l),
(320,919,l)
);
},
{
closed = 1;
nodes = (
(88,0,l),
(552,0,l),
(552,115,l),
(213,115,l),
(213,301,l),
(528,301,l),
(528,416,l),
(213,416,l),
(213,582,l),
(552,582,l),
(552,697,l),
(88,697,l)
);
}
);
width = 610;
}
);
note = uni1EC2;
unicode = 7874;
},
{
glyphname = uni1EC4;
kernLeft = B;
layers = (
{
hints = (
{
horizontal = 1;
place = (0, 115);
place = (0, 115);
type = Stem;
},
{
horizontal = 1;
place = (301, 115);
place = (301, 115);
type = Stem;
},
{
horizontal = 1;
place = (582, 115);
place = (582, 115);
type = Stem;
},
{
horizontal = 1;
place = (948, 74);
place = (948, 74);
type = Stem;
},
{
place = (88, 125);
place = (88, 125);
type = Stem;
},
{
place = (414, 72);
place = (414, 72);
type = Stem;
},
{
horizontal = 1;
place = (1018, 74);
place = (1018, 74);
type = Stem;
},
{
place = (153, 69);
place = (153, 69);
type = Stem;
}
);
layerId = m01;
shapes = (
{
closed = 1;
nodes = (
(446,948,o),
(486,998,o),
(486,1089,c),
(414,1089,l),
(414,1046,o),
(401,1022,o),
(384,1022,cs),
(349,1022,o),
(328,1092,o),
(259,1092,cs),
(194,1092,o),
(153,1041,o),
(153,951,c),
(222,951,l),
(222,994,o),
(234,1018,o),
(254,1018,cs),
(291,1018,o),
(305,948,o),
(383,948,cs)
);
},
{
closed = 1;
nodes = (
(164,745,l),
(257,745,l),
(320,817,l),
(383,745,l),
(476,745,l),
(320,919,l)
);
},
{
closed = 1;
nodes = (
(88,0,l),
(552,0,l),
(552,115,l),
(213,115,l),
(213,301,l),
(528,301,l),
(528,416,l),
(213,416,l),
(213,582,l),
(552,582,l),
(552,697,l),
(88,697,l)
);
}
);
width = 610;
}
);
note = uni1EC4;
unicode = 7876;
},
{
glyphname = Edieresis;
kernLeft = B;
layers = (
{
hints = (
{
horizontal = 1;
place = (0, 115);
place = (0, 115);
type = Stem;
},
{
horizontal = 1;
place = (301, 115);
place = (301, 115);
type = Stem;
},
{
horizontal = 1;
place = (582, 115);
place = (582, 115);
type = Stem;
},
{
horizontal = 1;
place = (790, 111);
place = (790, 111);
type = Stem;
},
{
place = (172, 101);
place = (172, 101);
type = Stem;
},
{
place = (367, 101);
place = (367, 101);
type = Stem;
},
{
place = (88, 125);
place = (88, 125);
type = Stem;
}
);
layerId = m01;
shapes = (
{
closed = 1;
nodes = (
(172,790,l),
(273,790,l),
(273,901,l),
(172,901,l)
);
},
{
closed = 1;
nodes = (
(367,790,l),
(468,790,l),
(468,901,l),
(367,901,l)
);
},
{
closed = 1;
nodes = (
(88,0,l),
(552,0,l),
(552,115,l),
(213,115,l),
(213,301,l),
(528,301,l),
(528,416,l),
(213,416,l),
(213,582,l),
(552,582,l),
(552,697,l),
(88,697,l)
);
}
);
width = 610;
}
);
note = Edieresis;
unicode = 203;
},
{
glyphname = Edotaccent;
kernLeft = B;
layers = (
{
hints = (
{
horizontal = 1;
place = (0, 115);
place = (0, 115);
type = Stem;
},
{
horizontal = 1;
place = (301, 115);
place = (301, 115);
type = Stem;
},
{
horizontal = 1;
place = (582, 115);
place = (582, 115);
type = Stem;
},
{
horizontal = 1;
place = (790, 111);
place = (790, 111);
type = Stem;
},
{
place = (88, 125);
place = (88, 125);
type = Stem;
},
{
place = (257, 126);
place = (257, 126);
type = Stem;
}
);
layerId = m01;
shapes = (
{
closed = 1;
nodes = (
(257,790,l),
(383,790,l),
(383,901,l),
(257,901,l)
);
},
{
closed = 1;
nodes = (
(88,0,l),
(552,0,l),
(552,115,l),
(213,115,l),
(213,301,l),
(528,301,l),
(528,416,l),
(213,416,l),
(213,582,l),
(552,582,l),
(552,697,l),
(88,697,l)
);
}
);
width = 610;
}
);
note = Edotaccent;
unicode = 278;
},
{
glyphname = uni1EB8;
kernLeft = B;
layers = (
{
hints = (
{
horizontal = 1;
place = (-173, 111);
place = (-173, 111);
type = Stem;
},
{
horizontal = 1;
place = (0, 115);
place = (0, 115);
type = Stem;
},
{
horizontal = 1;
place = (301, 115);
place = (301, 115);
type = Stem;
},
{
horizontal = 1;
place = (582, 115);
place = (582, 115);
type = Stem;
},
{
place = (88, 125);
place = (88, 125);
type = Stem;
},
{
place = (257, 126);
place = (257, 126);
type = Stem;
}
);
layerId = m01;
shapes = (
{
closed = 1;
nodes = (
(88,0,l),
(552,0,l),
(552,115,l),
(213,115,l),
(213,301,l),
(528,301,l),
(528,416,l),
(213,416,l),
(213,582,l),
(552,582,l),
(552,697,l),
(88,697,l)
);
},
{
closed = 1;
nodes = (
(257,-173,l),
(383,-173,l),
(383,-62,l),
(257,-62,l)
);
}
);
width = 610;
}
);
note = uni1EB8;
unicode = 7864;
},
{
glyphname = Egrave;
kernLeft = B;
layers = (
{
hints = (
{
horizontal = 1;
place = (0, 115);
place = (0, 115);
type = Stem;
},
{
horizontal = 1;
place = (301, 115);
place = (301, 115);
type = Stem;
},
{
horizontal = 1;
place = (582, 115);
place = (582, 115);
type = Stem;
},
{
horizontal = 1;
place = (759, 142);
place = (759, 142);
type = Stem;
},
{
place = (88, 125);
place = (88, 125);
type = Stem;
}
);
layerId = m01;
shapes = (
{
closed = 1;
nodes = (
(275,759,l),
(365,759,l),
(261,901,l),
(133,901,l)
);
},
{
closed = 1;
nodes = (
(88,0,l),
(552,0,l),
(552,115,l),
(213,115,l),
(213,301,l),
(528,301,l),
(528,416,l),
(213,416,l),
(213,582,l),
(552,582,l),
(552,697,l),
(88,697,l)
);
}
);
width = 610;
}
);
note = Egrave;
unicode = 200;
},
{
glyphname = uni1EBA;
kernLeft = B;
layers = (
{
hints = (
{
horizontal = 1;
place = (0, 115);
place = (0, 115);
type = Stem;
},
{
horizontal = 1;
place = (301, 115);
place = (301, 115);
type = Stem;
},
{
horizontal = 1;
place = (582, 115);
place = (582, 115);
type = Stem;
},
{
horizontal = 1;
place = (856, 66);
place = (856, 66);
type = Stem;
},
{
place = (88, 125);
place = (88, 125);
type = Stem;
},
{
place = (357, 76);
place = (357, 76);
type = Stem;
}
);
layerId = m01;
shapes = (
{
closed = 1;
nodes = (
(310,736,l),
(361,744,o),
(433,756,o),
(433,825,cs),
(433,888,o),
(372,922,o),
(283,922,cs),
(268,922,l),
(268,856,l),
(283,856,ls),
(319,856,o),
(357,856,o),
(357,823,cs),
(357,793,o),
(326,789,o),
(296,785,c)
);
},
{
closed = 1;
nodes = (
(88,0,l),
(552,0,l),
(552,115,l),
(213,115,l),
(213,301,l),
(528,301,l),
(528,416,l),
(213,416,l),
(213,582,l),
(552,582,l),
(552,697,l),
(88,697,l)
);
}
);
width = 610;
}
);
note = uni1EBA;
unicode = 7866;
},
{
glyphname = Emacron;
kernLeft = B;
layers = (
{
hints = (
{
horizontal = 1;
place = (0, 115);
place = (0, 115);
type = Stem;
},
{
horizontal = 1;
place = (301, 115);
place = (301, 115);
type = Stem;
},
{
horizontal = 1;
place = (582, 115);
place = (582, 115);
type = Stem;
},
{
horizontal = 1;
place = (770, 70);
place = (770, 70);
type = Stem;
},
{
place = (182, 275);
place = (182, 275);
type = Stem;
},
{
place = (88, 125);
place = (88, 125);
type = Stem;
}
);
layerId = m01;
shapes = (
{
closed = 1;
nodes = (
(182,770,l),
(457,770,l),
(457,840,l),
(182,840,l)
);
},
{
closed = 1;
nodes = (
(88,0,l),
(552,0,l),
(552,115,l),
(213,115,l),
(213,301,l),
(528,301,l),
(528,416,l),
(213,416,l),
(213,582,l),
(552,582,l),
(552,697,l),
(88,697,l)
);
}
);
width = 610;
}
);
note = Emacron;
unicode = 274;
},
{
glyphname = Eogonek;
kernLeft = B;
layers = (
{
hints = (
{
horizontal = 1;
place = (-222, 74);
place = (-222, 74);
type = Stem;
},
{
horizontal = 1;
place = (0, 115);
place = (0, 115);
type = Stem;
},
{
horizontal = 1;
place = (301, 115);
place = (301, 115);
type = Stem;
},
{
horizontal = 1;
place = (582, 115);
place = (582, 115);
type = Stem;
},
{
place = (88, 125);
place = (88, 125);
type = Stem;
},
{
place = (377, 72);
place = (377, 72);
type = Stem;
}
);
layerId = m01;
shapes = (
{
closed = 1;
nodes = (
(536,-120,l),
(523,-138,o),
(507,-148,o),
(486,-148,cs),
(466,-148,o),
(449,-139,o),
(449,-109,cs),
(449,-38,o),
(542,-4,o),
(552,0,c),
(552,115,l),
(213,115,l),
(213,301,l),
(528,301,l),
(528,416,l),
(213,416,l),
(213,582,l),
(552,582,l),
(552,697,l),
(88,697,l),
(88,0,l),
(458,0,l),
(425,-18,o),
(377,-58,o),
(377,-121,cs),
(377,-182,o),
(425,-222,o),
(489,-222,cs),
(539,-222,o),
(573,-197,o),
(597,-162,c)
);
}
);
width = 610;
}
);
note = Eogonek;
unicode = 280;
},
{
glyphname = uni1EBC;
kernLeft = B;
layers = (
{
hints = (
{
horizontal = 1;
place = (0, 115);
place = (0, 115);
type = Stem;
},
{
horizontal = 1;
place = (301, 115);
place = (301, 115);
type = Stem;
},
{
horizontal = 1;
place = (582, 115);
place = (582, 115);
type = Stem;
},
{
horizontal = 1;
place = (760, 74);
place = (760, 74);
type = Stem;
},
{
place = (88, 125);
place = (88, 125);
type = Stem;
},
{
place = (414, 72);
place = (414, 72);
type = Stem;
},
{
horizontal = 1;
place = (830, 74);
place = (830, 74);
type = Stem;
},
{
place = (153, 69);
place = (153, 69);
type = Stem;
}
);
layerId = m01;
shapes = (
{
closed = 1;
nodes = (
(446,760,o),
(486,810,o),
(486,901,c),
(414,901,l),
(414,858,o),
(401,834,o),
(384,834,cs),
(349,834,o),
(328,904,o),
(259,904,cs),
(194,904,o),
(153,853,o),
(153,763,c),
(222,763,l),
(222,806,o),
(234,830,o),
(254,830,cs),
(291,830,o),
(305,760,o),
(383,760,cs)
);
},
{
closed = 1;
nodes = (
(88,0,l),
(552,0,l),
(552,115,l),
(213,115,l),
(213,301,l),
(528,301,l),
(528,416,l),
(213,416,l),
(213,582,l),
(552,582,l),
(552,697,l),
(88,697,l)
);
}
);
width = 610;
}
);
note = uni1EBC;
unicode = 7868;
},
{
glyphname = F;
kernLeft = B;
kernRight = F;
lastChange = "2022-12-21 16:04:01 +0000";
layers = (
{
hints = (
{
horizontal = 1;
place = (0, 21);
target = up;
type = BottomGhost;
},
{
horizontal = 1;
place = (301, 115);
place = (301, 115);
type = Stem;
},
{
horizontal = 1;
place = (582, 115);
place = (582, 115);
type = Stem;
},
{
place = (88, 125);
place = (88, 125);
type = Stem;
}
);
layerId = m01;
shapes = (
{
closed = 1;
nodes = (
(150,0,l),
(213,100,l),
(213,301,l),
(538,301,l),
(538,416,l),
(213,416,l),
(213,582,l),
(567,582,ls),
(575,582,o),
(582,589,o),
(582,597,cs),
(582,697,l),
(88,697,l),
(88,0,l)
);
}
);
width = 605;
}
);
note = F;
unicode = 70;
},
{
glyphname = G;
kernLeft = C;
kernRight = G;
lastChange = "2022-12-21 16:04:41 +0000";
layers = (
{
hints = (
{
horizontal = 1;
place = (-15, 119);
place = (-15, 119);
type = Stem;
},
{
horizontal = 1;
place = (262, 115);
place = (262, 115);
type = Stem;
},
{
horizontal = 1;
place = (594, 119);
place = (594, 119);
type = Stem;
},
{
place = (38, 125);
place = (38, 125);
type = Stem;
},
{
place = (568, 124);
place = (568, 124);
type = Stem;
},
{
horizontal = 1;
place = (0, 21);
target = up;
type = BottomGhost;
}
);
layerId = m01;
shapes = (
{
closed = 1;
nodes = (
(687,509,o),
(673,537,qs),
(631,623,o),
(478,713,o),
(378,713,qs),
(300,713,o),
(174,658,o),
(85,560,o),
(38,428,o),
(38,350,qs),
(38,267,o),
(91,132,o),
(183,37,o),
(309,-15,o),
(382,-15,qs),
(450,-15,o),
(557,30,o),
(588,72,q),
(603,0,l),
(650,0,l),
(692,100,l),
(692,377,l),
(427,377,ls),
(419,377,o),
(412,370,o),
(412,362,cs),
(412,262,l),
(568,262,l),
(568,253,ls),
(568,182,o),
(475,104,o),
(390,104,qs),
(283,104,o),
(163,231,o),
(163,351,qs),
(163,466,o),
(275,594,o),
(376,594,qs),
(447,594,o),
(547,529,o),
(570,464,q),
(657,498,ls)
);
}
);
width = 755;
}
);
note = G;
unicode = 71;
},
{
glyphname = Gbreve;
kernLeft = C;
kernRight = G;
layers = (
{
hints = (
{
horizontal = 1;
place = (-15, 119);
place = (-15, 119);
type = Stem;
},
{
horizontal = 1;
place = (262, 115);
place = (262, 115);
type = Stem;
},
{
horizontal = 1;
place = (594, 119);
place = (594, 119);
type = Stem;
},
{
horizontal = 1;
place = (768, 70);
place = (768, 70);
type = Stem;
},
{
place = (38, 125);
place = (38, 125);
type = Stem;
},
{
place = (220, 85);
place = (220, 85);
type = Stem;
},
{
place = (568, 124);
place = (568, 124);
type = Stem;
},
{
horizontal = 1;
place = (768, 133);
place = (768, 133);
type = Stem;
},
{
place = (447, 85);
place = (447, 85);
type = Stem;
},
{
horizontal = 1;
place = (0, 21);
target = up;
type = BottomGhost;
}
);
layerId = m01;
shapes = (
{
closed = 1;
nodes = (
(479,768,o),
(532,811,o),
(532,901,c),
(447,901,l),
(447,860,o),
(417,838,o),
(376,838,cs),
(337,838,o),
(305,858,o),
(305,901,c),
(220,901,l),
(220,815,o),
(268,768,o),
(376,768,cs)
);
},
{
closed = 1;
nodes = (
(412,377,l),
(412,262,l),
(568,262,l),
(568,253,ls),
(568,159,o),
(502,104,o),
(390,104,cs),
(248,104,o),
(163,192,o),
(163,351,cs),
(163,504,o),
(242,594,o),
(376,594,cs),
(470,594,o),
(539,550,o),
(570,464,c),
(685,509,l),
(634,641,o),
(520,713,o),
(378,713,cs),
(169,713,o),
(38,557,o),
(38,350,cs),
(38,129,o),
(187,-15,o),
(382,-15,cs),
(472,-15,o),
(547,16,o),
(588,72,c),
(603,0,l),
(692,0,l),
(692,377,l)
);
}
);
width = 755;
}
);
note = Gbreve;
unicode = 286;
},
{
glyphname = uni0122;
kernLeft = C;
kernRight = G;
layers = (
{
hints = (
{
horizontal = 1;
place = (-226, 173);
place = (-226, 173);
type = Stem;
},
{
horizontal = 1;
place = (-15, 119);
place = (-15, 119);
type = Stem;
},
{
horizontal = 1;
place = (262, 115);
place = (262, 115);
type = Stem;
},
{
horizontal = 1;
place = (594, 119);
place = (594, 119);
type = Stem;
},
{
place = (38, 125);
place = (38, 125);
type = Stem;
},
{
place = (568, 124);
place = (568, 124);
type = Stem;
},
{
horizontal = 1;
place = (0, 21);
target = up;
type = BottomGhost;
}
);
layerId = m01;
shapes = (
{
closed = 1;
nodes = (
(412,377,l),
(412,262,l),
(568,262,l),
(568,253,ls),
(568,159,o),
(502,104,o),
(390,104,cs),
(248,104,o),
(163,192,o),
(163,351,cs),
(163,504,o),
(242,594,o),
(376,594,cs),
(470,594,o),
(539,550,o),
(570,464,c),
(685,509,l),
(634,641,o),
(520,713,o),
(378,713,cs),
(169,713,o),
(38,557,o),
(38,350,cs),
(38,129,o),
(187,-15,o),
(382,-15,cs),
(472,-15,o),
(547,16,o),
(588,72,c),
(603,0,l),
(692,0,l),
(692,377,l)
);
},
{
closed = 1;
nodes = (
(246,-226,l),
(316,-226,l),
(438,-53,l),
(313,-53,l)
);
}
);
width = 755;
}
);
note = uni0122;
unicode = 290;
},
{
glyphname = Gdotaccent;
kernLeft = C;
kernRight = G;
layers = (
{
hints = (
{
horizontal = 1;
place = (-15, 119);
place = (-15, 119);
type = Stem;
},
{
horizontal = 1;
place = (262, 115);
place = (262, 115);
type = Stem;
},
{
horizontal = 1;
place = (594, 119);
place = (594, 119);
type = Stem;
},
{
horizontal = 1;
place = (790, 111);
place = (790, 111);
type = Stem;
},
{
place = (38, 125);
place = (38, 125);
type = Stem;
},
{
place = (313, 126);
place = (313, 126);
type = Stem;
},
{
place = (568, 124);
place = (568, 124);
type = Stem;
},
{
horizontal = 1;
place = (0, 21);
target = up;
type = BottomGhost;
}
);
layerId = m01;
shapes = (
{
closed = 1;
nodes = (
(439,901,l),
(313,901,l),
(313,790,l),
(439,790,l)
);
},
{
closed = 1;
nodes = (
(412,377,l),
(412,262,l),
(568,262,l),
(568,253,ls),
(568,159,o),
(502,104,o),
(390,104,cs),
(248,104,o),
(163,192,o),
(163,351,cs),
(163,504,o),
(242,594,o),
(376,594,cs),
(470,594,o),
(539,550,o),
(570,464,c),
(685,509,l),
(634,641,o),
(520,713,o),
(378,713,cs),
(169,713,o),
(38,557,o),
(38,350,cs),
(38,129,o),
(187,-15,o),
(382,-15,cs),
(472,-15,o),
(547,16,o),
(588,72,c),
(603,0,l),
(692,0,l),
(692,377,l)
);
}
);
width = 755;
}
);
note = Gdotaccent;
unicode = 288;
},
{
glyphname = H;
kernLeft = B;
kernRight = H;
layers = (
{
hints = (
{
horizontal = 1;
place = (0, 21);
target = up;
type = BottomGhost;
},
{
horizontal = 1;
place = (301, 115);
place = (301, 115);
type = Stem;
},
{
horizontal = 1;
place = (697, -20);
target = down;
type = TopGhost;
},
{
place = (88, 125);
place = (88, 125);
type = Stem;
},
{
place = (518, 125);
place = (518, 125);
type = Stem;
}
);
layerId = m01;
shapes = (
{
closed = 1;
nodes = (
(88,0,l),
(213,0,l),
(213,301,l),
(518,301,l),
(518,0,l),
(643,0,l),
(643,697,l),
(518,697,l),
(518,416,l),
(213,416,l),
(213,697,l),
(88,697,l)
);
}
);
width = 731;
}
);
note = H;
unicode = 72;
},
{
glyphname = Hbar;
kernLeft = B;
kernRight = H;
layers = (
{
hints = (
{
horizontal = 1;
place = (0, 21);
target = up;
type = BottomGhost;
},
{
horizontal = 1;
place = (301, 115);
place = (301, 115);
type = Stem;
},
{
horizontal = 1;
place = (529, 71);
place = (529, 71);
type = Stem;
},
{
place = (88, 125);
place = (88, 125);
type = Stem;
},
{
place = (518, 125);
place = (518, 125);
type = Stem;
},
{
horizontal = 1;
place = (529, 168);
place = (529, 168);
type = Stem;
}
);
layerId = m01;
shapes = (
{
closed = 1;
nodes = (
(694,600,l),
(643,600,l),
(643,697,l),
(518,697,l),
(518,600,l),
(213,600,l),
(213,697,l),
(88,697,l),
(88,600,l),
(38,600,l),
(38,529,l),
(88,529,l),
(88,0,l),
(213,0,l),
(213,301,l),
(518,301,l),
(518,0,l),
(643,0,l),
(643,529,l),
(694,529,l)
);
},
{
closed = 1;
nodes = (
(518,416,l),
(213,416,l),
(213,529,l),
(518,529,l)
);
}
);
width = 731;
}
);
note = Hbar;
unicode = 294;
},
{
glyphname = I;
kernLeft = B;
kernRight = H;
layers = (
{
hints = (
{
horizontal = 1;
place = (0, 21);
target = up;
type = BottomGhost;
},
{
horizontal = 1;
place = (697, -20);
target = down;
type = TopGhost;
},
{
place = (88, 125);
place = (88, 125);
type = Stem;
}
);
layerId = m01;
shapes = (
{
closed = 1;
nodes = (
(88,0,l),
(213,0,l),
(213,697,l),
(88,697,l)
);
}
);
width = 301;
}
);
note = I;
unicode = 73;
},
{
glyphname = Iacute;
kernLeft = B;
kernRight = H;
layers = (
{
hints = (
{
horizontal = 1;
place = (0, 21);
target = up;
type = BottomGhost;
},
{
horizontal = 1;
place = (697, -20);
target = down;
type = TopGhost;
},
{
horizontal = 1;
place = (759, 142);
place = (759, 142);
type = Stem;
},
{
place = (88, 125);
place = (88, 125);
type = Stem;
}
);
layerId = m01;
shapes = (
{
closed = 1;
nodes = (
(107,759,l),
(195,759,l),
(347,901,l),
(218,901,l)
);
},
{
closed = 1;
nodes = (
(88,0,l),
(213,0,l),
(213,697,l),
(88,697,l)
);
}
);
width = 301;
}
);
note = Iacute;
unicode = 205;
},
{
glyphname = uni01CF;
layers = (
{
hints = (
{
horizontal = 1;
place = (0, 21);
target = up;
type = BottomGhost;
},
{
horizontal = 1;
place = (697, -20);
target = down;
type = TopGhost;
},
{
place = (88, 125);
place = (88, 125);
type = Stem;
}
);
layerId = m01;
shapes = (
{
closed = 1;
nodes = (
(151,737,l),
(307,901,l),
(214,901,l),
(151,834,l),
(88,901,l),
(-5,901,l)
);
},
{
closed = 1;
nodes = (
(88,0,l),
(213,0,l),
(213,697,l),
(88,697,l)
);
}
);
width = 301;
}
);
note = uni01CF;
unicode = 463;
},
{
glyphname = Icircumflex;
kernLeft = B;
kernRight = H;
layers = (
{
hints = (
{
horizontal = 1;
place = (0, 21);
target = up;
type = BottomGhost;
},
{
horizontal = 1;
place = (697, -20);
target = down;
type = TopGhost;
},
{
place = (88, 125);
place = (88, 125);
type = Stem;
}
);
layerId = m01;
shapes = (
{
closed = 1;
nodes = (
(-5,745,l),
(88,745,l),
(151,817,l),
(214,745,l),
(307,745,l),
(151,919,l)
);
},
{
closed = 1;
nodes = (
(88,0,l),
(213,0,l),
(213,697,l),
(88,697,l)
);
}
);
width = 301;
}
);
note = Icircumflex;
unicode = 206;
},
{
glyphname = Idieresis;
kernLeft = B;
kernRight = H;
layers = (
{
hints = (
{
horizontal = 1;
place = (0, 21);
target = up;
type = BottomGhost;
},
{
horizontal = 1;
place = (697, -20);
target = down;
type = TopGhost;
},
{
horizontal = 1;
place = (790, 111);
place = (790, 111);
type = Stem;
},
{
place = (3, 101);
place = (3, 101);
type = Stem;
},
{
place = (198, 101);
place = (198, 101);
type = Stem;
},
{
place = (88, 125);
place = (88, 125);
type = Stem;
}
);
layerId = m01;
shapes = (
{
closed = 1;
nodes = (
(3,790,l),
(104,790,l),
(104,901,l),
(3,901,l)
);
},
{
closed = 1;
nodes = (
(198,790,l),
(299,790,l),
(299,901,l),
(198,901,l)
);
},
{
closed = 1;
nodes = (
(88,0,l),
(213,0,l),
(213,697,l),
(88,697,l)
);
}
);
width = 301;
}
);
note = Idieresis;
unicode = 207;
},
{
glyphname = Idotaccent;
kernLeft = B;
kernRight = H;
layers = (
{
hints = (
{
horizontal = 1;
place = (0, 21);
target = up;
type = BottomGhost;
},
{
horizontal = 1;
place = (697, -20);
target = down;
type = TopGhost;
},
{
horizontal = 1;
place = (790, 111);
place = (790, 111);
type = Stem;
},
{
place = (88, 125);
place = (88, 125);
type = Stem;
},
{
place = (88, 126);
place = (88, 126);
type = Stem;
}
);
layerId = m01;
shapes = (
{
closed = 1;
nodes = (
(88,790,l),
(214,790,l),
(214,901,l),
(88,901,l)
);
},
{
closed = 1;
nodes = (
(88,0,l),
(213,0,l),
(213,697,l),
(88,697,l)
);
}
);
width = 301;
}
);
note = Idotaccent;
unicode = 304;
},
{
glyphname = uni1ECA;
layers = (
{
hints = (
{
horizontal = 1;
place = (-173, 111);
place = (-173, 111);
type = Stem;
},
{
horizontal = 1;
place = (0, 21);
target = up;
type = BottomGhost;
},
{
horizontal = 1;
place = (697, -20);
target = down;
type = TopGhost;
},
{
place = (88, 125);
place = (88, 125);
type = Stem;
},
{
place = (88, 126);
place = (88, 126);
type = Stem;
}
);
layerId = m01;
shapes = (
{
closed = 1;
nodes = (
(88,0,l),
(213,0,l),
(213,697,l),
(88,697,l)
);
},
{
closed = 1;
nodes = (
(88,-173,l),
(214,-173,l),
(214,-62,l),
(88,-62,l)
);
}
);
width = 301;
}
);
note = uni1ECA;
unicode = 7882;
},
{
glyphname = Igrave;
kernLeft = B;
kernRight = H;
layers = (
{
hints = (
{
horizontal = 1;
place = (0, 21);
target = up;
type = BottomGhost;
},
{
horizontal = 1;
place = (697, -20);
target = down;
type = TopGhost;
},
{
horizontal = 1;
place = (759, 142);
place = (759, 142);
type = Stem;
},
{
place = (88, 125);
place = (88, 125);
type = Stem;
}
);
layerId = m01;
shapes = (
{
closed = 1;
nodes = (
(106,759,l),
(196,759,l),
(92,901,l),
(-36,901,l)
);
},
{
closed = 1;
nodes = (
(88,0,l),
(213,0,l),
(213,697,l),
(88,697,l)
);
}
);
width = 301;
}
);
note = Igrave;
unicode = 204;
},
{
glyphname = uni1EC8;
layers = (
{
hints = (
{
horizontal = 1;
place = (0, 21);
target = up;
type = BottomGhost;
},
{
horizontal = 1;
place = (697, -20);
target = down;
type = TopGhost;
},
{
horizontal = 1;
place = (856, 66);
place = (856, 66);
type = Stem;
},
{
place = (88, 125);
place = (88, 125);
type = Stem;
},
{
place = (188, 76);
place = (188, 76);
type = Stem;
},
{
place = (99, 114);
place = (99, 114);
type = Stem;
}
);
layerId = m01;
shapes = (
{
closed = 1;
nodes = (
(141,736,l),
(192,744,o),
(264,756,o),
(264,825,cs),
(264,888,o),
(203,922,o),
(114,922,cs),
(99,922,l),
(99,856,l),
(114,856,ls),
(150,856,o),
(188,856,o),
(188,823,cs),
(188,793,o),
(157,789,o),
(127,785,c)
);
},
{
closed = 1;
nodes = (
(88,0,l),
(213,0,l),
(213,697,l),
(88,697,l)
);
}
);
width = 301;
}
);
note = uni1EC8;
unicode = 7880;
},
{
glyphname = Imacron;
kernLeft = B;
kernRight = H;
layers = (
{
hints = (
{
horizontal = 1;
place = (0, 21);
target = up;
type = BottomGhost;
},
{
horizontal = 1;
place = (697, -20);
target = down;
type = TopGhost;
},
{
horizontal = 1;
place = (770, 70);
place = (770, 70);
type = Stem;
},
{
place = (88, 125);
place = (88, 125);
type = Stem;
}
);
layerId = m01;
shapes = (
{
closed = 1;
nodes = (
(13,770,l),
(288,770,l),
(288,840,l),
(13,840,l)
);
},
{
closed = 1;
nodes = (
(88,0,l),
(213,0,l),
(213,697,l),
(88,697,l)
);
}
);
width = 301;
}
);
note = Imacron;
unicode = 298;
},
{
glyphname = Iogonek;
kernLeft = B;
kernRight = H;
layers = (
{
hints = (
{
horizontal = 1;
place = (-222, 74);
place = (-222, 74);
type = Stem;
},
{
horizontal = 1;
place = (0, 21);
target = up;
type = BottomGhost;
},
{
horizontal = 1;
place = (697, -20);
target = down;
type = TopGhost;
},
{
place = (38, 72);
place = (38, 72);
type = Stem;
},
{
place = (88, 125);
place = (88, 125);
type = Stem;
}
);
layerId = m01;
shapes = (
{
closed = 1;
nodes = (
(197,-120,l),
(184,-138,o),
(168,-148,o),
(147,-148,cs),
(127,-148,o),
(110,-139,o),
(110,-109,cs),
(110,-38,o),
(203,-4,o),
(213,0,c),
(213,697,l),
(88,697,l),
(88,0,l),
(119,0,l),
(86,-18,o),
(38,-58,o),
(38,-121,cs),
(38,-182,o),
(86,-222,o),
(150,-222,cs),
(200,-222,o),
(234,-197,o),
(258,-162,c)
);
}
);
width = 301;
}
);
note = Iogonek;
unicode = 302;
},
{
glyphname = Itilde;
layers = (
{
hints = (
{
horizontal = 1;
place = (0, 21);
target = up;
type = BottomGhost;
},
{
horizontal = 1;
place = (697, -20);
target = down;
type = TopGhost;
},
{
horizontal = 1;
place = (760, 74);
place = (760, 74);
type = Stem;
},
{
place = (88, 125);
place = (88, 125);
type = Stem;
},
{
place = (245, 72);
place = (245, 72);
type = Stem;
},
{
horizontal = 1;
place = (830, 74);
place = (830, 74);
type = Stem;
},
{
place = (-16, 69);
place = (-16, 69);
type = Stem;
}
);
layerId = m01;
shapes = (
{
closed = 1;
nodes = (
(277,760,o),
(317,810,o),
(317,901,c),
(245,901,l),
(245,858,o),
(232,834,o),
(215,834,cs),
(180,834,o),
(159,904,o),
(90,904,cs),
(25,904,o),
(-16,853,o),
(-16,763,c),
(53,763,l),
(53,806,o),
(65,830,o),
(85,830,cs),
(122,830,o),
(136,760,o),
(214,760,cs)
);
},
{
closed = 1;
nodes = (
(88,0,l),
(213,0,l),
(213,697,l),
(88,697,l)
);
}
);
width = 301;
}
);
note = Itilde;
unicode = 296;
},
{
glyphname = J;
kernLeft = J;
kernRight = J;
lastChange = "2022-12-21 16:05:37 +0000";
layers = (
{
hints = (
{
horizontal = 1;
place = (-15, 116);
place = (-15, 116);
type = Stem;
},
{
horizontal = 1;
place = (582, 115);
place = (582, 115);
type = Stem;
},
{
place = (14, 123);
place = (14, 123);
type = Stem;
},
{
place = (360, 125);
place = (360, 125);
type = Stem;
}
);
layerId = m01;
shapes = (
{
closed = 1;
nodes = (
(13,217,o),
(17,187,qs),
(32,90,o),
(155,-15,o),
(250,-15,qs),
(359,-15,o),
(485,121,o),
(485,242,qs),
(485,697,l),
(197,697,l),
(97,641,l),
(97,582,l),
(360,582,l),
(360,249,ls),
(360,172,o),
(307,101,o),
(250,101,qs),
(196,101,o),
(142,163,o),
(137,231,q),
(44,220,ls)
);
}
);
width = 560;
}
);
note = J;
unicode = 74;
},
{
glyphname = K;
kernLeft = B;
kernRight = K;
lastChange = "2022-12-21 16:06:16 +0000";
layers = (
{
hints = (
{
horizontal = 1;
place = (0, 21);
target = up;
type = BottomGhost;
},
{
horizontal = 1;
place = (697, -20);
target = down;
type = TopGhost;
},
{
place = (88, 125);
place = (88, 125);
type = Stem;
}
);
layerId = m01;
shapes = (
{
closed = 1;
nodes = (
(644,0,o),
(630,27,qs),
(431,433,l),
(690,697,l),
(526,697,l),
(213,369,l),
(213,697,l),
(150,697,l),
(88,597,l),
(88,0,l),
(213,0,l),
(213,212,l),
(346,347,l),
(498,0,l),
(613,0,ls)
);
}
);
width = 704;
}
);
note = K;
unicode = 75;
},
{
glyphname = uni0136;
kernLeft = B;
kernRight = K;
layers = (
{
hints = (
{
horizontal = 1;
place = (-226, 173);
place = (-226, 173);
type = Stem;
},
{
horizontal = 1;
place = (0, 21);
target = up;
type = BottomGhost;
},
{
horizontal = 1;
place = (697, -20);
target = down;
type = TopGhost;
},
{
place = (88, 125);
place = (88, 125);
type = Stem;
}
);
layerId = m01;
shapes = (
{
closed = 1;
nodes = (
(431,433,l),
(690,697,l),
(526,697,l),
(213,369,l),
(213,697,l),
(88,697,l),
(88,0,l),
(213,0,l),
(213,212,l),
(346,347,l),
(552,0,l),
(697,0,l)
);
},
{
closed = 1;
nodes = (
(222,-226,l),
(292,-226,l),
(414,-53,l),
(289,-53,l)
);
}
);
width = 704;
}
);
note = uni0136;
unicode = 310;
},
{
glyphname = L;
kernLeft = B;
kernRight = L;
layers = (
{
hints = (
{
horizontal = 1;
place = (0, 115);
place = (0, 115);
type = Stem;
},
{
horizontal = 1;
place = (697, -20);
target = down;
type = TopGhost;
},
{
place = (88, 125);
place = (88, 125);
type = Stem;
}
);
layerId = m01;
shapes = (
{
closed = 1;
nodes = (
(88,0,l),
(511,0,l),
(511,115,l),
(213,115,l),
(213,697,l),
(88,697,l)
);
}
);
width = 520;
}
);
note = L;
unicode = 76;
},
{
glyphname = Lacute;
kernLeft = B;
kernRight = L;
layers = (
{
hints = (
{
horizontal = 1;
place = (0, 115);
place = (0, 115);
type = Stem;
},
{
horizontal = 1;
place = (697, -20);
target = down;
type = TopGhost;
},
{
horizontal = 1;
place = (759, 142);
place = (759, 142);
type = Stem;
},
{
place = (88, 125);
place = (88, 125);
type = Stem;
}
);
layerId = m01;
shapes = (
{
closed = 1;
nodes = (
(107,759,l),
(195,759,l),
(347,901,l),
(218,901,l)
);
},
{
closed = 1;
nodes = (
(88,0,l),
(511,0,l),
(511,115,l),
(213,115,l),
(213,697,l),
(88,697,l)
);
}
);
width = 520;
}
);
note = Lacute;
unicode = 313;
},
{
glyphname = Lcaron;
kernLeft = B;
kernRight = L;
layers = (
{
hints = (
{
horizontal = 1;
place = (0, 115);
place = (0, 115);
type = Stem;
},
{
horizontal = 1;
place = (473, 224);
place = (473, 224);
type = Stem;
},
{
place = (88, 125);
place = (88, 125);
type = Stem;
}
);
layerId = m01;
shapes = (
{
closed = 1;
nodes = (
(88,0,l),
(511,0,l),
(511,115,l),
(213,115,l),
(213,697,l),
(88,697,l)
);
},
{
closed = 1;
nodes = (
(338,473,l),
(408,473,l),
(520,697,l),
(394,697,l)
);
}
);
width = 520;
}
);
note = Lcaron;
unicode = 317;
},
{
glyphname = uni013B;
kernLeft = B;
kernRight = L;
layers = (
{
hints = (
{
horizontal = 1;
place = (-226, 173);
place = (-226, 173);
type = Stem;
},
{
horizontal = 1;
place = (0, 115);
place = (0, 115);
type = Stem;
},
{
horizontal = 1;
place = (697, -20);
target = down;
type = TopGhost;
},
{
place = (88, 125);
place = (88, 125);
type = Stem;
}
);
layerId = m01;
shapes = (
{
closed = 1;
nodes = (
(88,0,l),
(511,0,l),
(511,115,l),
(213,115,l),
(213,697,l),
(88,697,l)
);
},
{
closed = 1;
nodes = (
(170,-226,l),
(240,-226,l),
(362,-53,l),
(237,-53,l)
);
}
);
width = 520;
}
);
note = uni013B;
unicode = 315;
},
{
glyphname = Lslash;
layers = (
{
hints = (
{
horizontal = 1;
place = (0, 115);
place = (0, 115);
type = Stem;
},
{
horizontal = 1;
place = (697, -20);
target = down;
type = TopGhost;
},
{
place = (88, 125);
place = (88, 125);
type = Stem;
}
);
layerId = m01;
shapes = (
{
closed = 1;
nodes = (
(213,115,l),
(213,307,l),
(320,392,l),
(320,514,l),
(213,430,l),
(213,697,l),
(88,697,l),
(88,331,l),
(26,282,l),
(26,158,l),
(88,207,l),
(88,0,l),
(511,0,l),
(511,115,l)
);
}
);
width = 520;
}
);
note = Lslash;
unicode = 321;
},
{
glyphname = M;
kernLeft = B;
kernRight = H;
lastChange = "2022-12-21 16:07:15 +0000";
layers = (
{
hints = (
{
horizontal = 1;
place = (0, 21);
target = up;
type = BottomGhost;
},
{
horizontal = 1;
place = (697, -20);
target = down;
type = TopGhost;
},
{
place = (88, 125);
place = (88, 125);
type = Stem;
},
{
place = (680, 125);
place = (680, 125);
type = Stem;
},
{
horizontal = 1;
place = (521, 176);
place = (521, 176);
type = Stem;
}
);
layerId = m01;
shapes = (
{
closed = 1;
nodes = (
(213,0,o),
(213,30,qs),
(213,521,l),
(386,61,l),
(507,61,l),
(680,521,l),
(680,30,ls),
(680,0,o),
(710,0,qs),
(805,0,l),
(805,697,l),
(626,697,l),
(446,206,l),
(267,697,l),
(88,697,l),
(88,0,l),
(183,0,ls)
);
}
);
width = 893;
}
);
note = M;
unicode = 77;
},
{
glyphname = N;
kernLeft = B;
kernRight = H;
lastChange = "2022-12-21 16:08:11 +0000";
layers = (
{
hints = (
{
horizontal = 1;
place = (0, 21);
target = up;
type = BottomGhost;
},
{
horizontal = 1;
place = (697, -20);
target = down;
type = TopGhost;
},
{
place = (88, 125);
place = (88, 125);
type = Stem;
},
{
place = (510, 125);
place = (510, 125);
type = Stem;
}
);
layerId = m01;
shapes = (
{
closed = 1;
nodes = (
(510,217,l),
(217,697,l),
(88,697,l),
(88,0,l),
(150,0,l),
(213,100,l),
(213,482,l),
(505,0,l),
(635,0,l),
(635,697,l),
(510,697,l)
);
}
);
width = 723;
}
);
note = N;
unicode = 78;
},
{
glyphname = Nacute;
kernLeft = B;
kernRight = H;
layers = (
{
hints = (
{
horizontal = 1;
place = (0, 21);
target = up;
type = BottomGhost;
},
{
horizontal = 1;
place = (697, -20);
target = down;
type = TopGhost;
},
{
horizontal = 1;
place = (759, 142);
place = (759, 142);
type = Stem;
},
{
place = (88, 125);
place = (88, 125);
type = Stem;
},
{
place = (510, 125);
place = (510, 125);
type = Stem;
}
);
layerId = m01;
shapes = (
{
closed = 1;
nodes = (
(558,901,l),
(429,901,l),
(318,759,l),
(406,759,l)
);
},
{
closed = 1;
nodes = (
(510,697,l),
(510,217,l),
(217,697,l),
(88,697,l),
(88,0,l),
(213,0,l),
(213,482,l),
(505,0,l),
(635,0,l),
(635,697,l)
);
}
);
width = 723;
}
);
note = Nacute;
unicode = 323;
},
{
glyphname = Ncaron;
kernLeft = B;
kernRight = H;
layers = (
{
hints = (
{
horizontal = 1;
place = (0, 21);
target = up;
type = BottomGhost;
},
{
horizontal = 1;
place = (697, -20);
target = down;
type = TopGhost;
},
{
place = (88, 125);
place = (88, 125);
type = Stem;
},
{
place = (510, 125);
place = (510, 125);
type = Stem;
}
);
layerId = m01;
shapes = (
{
closed = 1;
nodes = (
(518,901,l),
(425,901,l),
(362,834,l),
(299,901,l),
(206,901,l),
(362,737,l)
);
},
{
closed = 1;
nodes = (
(510,697,l),
(510,217,l),
(217,697,l),
(88,697,l),
(88,0,l),
(213,0,l),
(213,482,l),
(505,0,l),
(635,0,l),
(635,697,l)
);
}
);
width = 723;
}
);
note = Ncaron;
unicode = 327;
},
{
glyphname = uni0145;
kernLeft = B;
kernRight = H;
layers = (
{
hints = (
{
horizontal = 1;
place = (-226, 173);
place = (-226, 173);
type = Stem;
},
{
horizontal = 1;
place = (0, 21);
target = up;
type = BottomGhost;
},
{
horizontal = 1;
place = (697, -20);
target = down;
type = TopGhost;
},
{
place = (88, 125);
place = (88, 125);
type = Stem;
},
{
place = (510, 125);
place = (510, 125);
type = Stem;
}
);
layerId = m01;
shapes = (
{
closed = 1;
nodes = (
(510,697,l),
(510,217,l),
(217,697,l),
(88,697,l),
(88,0,l),
(213,0,l),
(213,482,l),
(505,0,l),
(635,0,l),
(635,697,l)
);
},
{
closed = 1;
nodes = (
(232,-226,l),
(302,-226,l),
(424,-53,l),
(299,-53,l)
);
}
);
width = 723;
}
);
note = uni0145;
unicode = 325;
},
{
glyphname = Eng;
kernLeft = B;
kernRight = H;
layers = (
{
hints = (
{
horizontal = 1;
place = (-182, 82);
place = (-182, 82);
type = Stem;
},
{
horizontal = 1;
place = (0, 21);
target = up;
type = BottomGhost;
},
{
horizontal = 1;
place = (697, -20);
target = down;
type = TopGhost;
},
{
place = (88, 125);
place = (88, 125);
type = Stem;
},
{
place = (510, 125);
place = (510, 125);
type = Stem;
},
{
place = (516, 119);
place = (516, 119);
type = Stem;
}
);
layerId = m01;
shapes = (
{
closed = 1;
nodes = (
(510,697,l),
(510,223,l),
(217,697,l),
(88,697,l),
(88,0,l),
(213,0,l),
(213,475,l),
(505,0,ls),
(513,-13,o),
(516,-27,o),
(516,-38,cs),
(516,-71,o),
(489,-100,o),
(431,-100,cs),
(420,-100,o),
(407,-99,o),
(394,-97,c),
(394,-176,l),
(420,-181,o),
(443,-182,o),
(464,-182,cs),
(591,-182,o),
(635,-93,o),
(635,0,cs),
(635,697,l)
);
}
);
width = 724;
}
);
note = Eng;
unicode = 330;
},
{
glyphname = Ntilde;
kernLeft = B;
kernRight = H;
layers = (
{
hints = (
{
horizontal = 1;
place = (0, 21);
target = up;
type = BottomGhost;
},
{
horizontal = 1;
place = (697, -20);
target = down;
type = TopGhost;
},
{
horizontal = 1;
place = (830, 74);
place = (830, 74);
type = Stem;
},
{
place = (195, 69);
place = (195, 69);
type = Stem;
},
{
place = (510, 125);
place = (510, 125);
type = Stem;
},
{
horizontal = 1;
place = (760, 74);
place = (760, 74);
type = Stem;
},
{
place = (88, 125);
place = (88, 125);
type = Stem;
},
{
place = (456, 72);
place = (456, 72);
type = Stem;
}
);
layerId = m01;
shapes = (
{
closed = 1;
nodes = (
(333,830,o),
(347,760,o),
(425,760,cs),
(488,760,o),
(528,810,o),
(528,901,c),
(456,901,l),
(456,858,o),
(443,834,o),
(426,834,cs),
(391,834,o),
(370,904,o),
(301,904,cs),
(236,904,o),
(195,853,o),
(195,763,c),
(264,763,l),
(264,806,o),
(276,830,o),
(296,830,cs)
);
},
{
closed = 1;
nodes = (
(510,697,l),
(510,217,l),
(217,697,l),
(88,697,l),
(88,0,l),
(213,0,l),
(213,482,l),
(505,0,l),
(635,0,l),
(635,697,l)
);
}
);
width = 723;
}
);
note = Ntilde;
unicode = 209;
},
{
glyphname = O;
kernLeft = C;
kernRight = D;
lastChange = "2022-12-21 16:08:51 +0000";
layers = (
{
hints = (
{
horizontal = 1;
place = (-15, 119);
place = (-15, 119);
type = Stem;
},
{
horizontal = 1;
place = (593, 119);
place = (593, 119);
type = Stem;
},
{
place = (39, 125);
place = (39, 125);
type = Stem;
},
{
place = (580, 125);
place = (580, 125);
type = Stem;
}
);
layerId = m01;
shapes = (
{
closed = 1;
nodes = (
(570,-15,o),
(705,130,o),
(705,348,cs),
(705,567,o),
(571,712,o),
(372,712,cs),
(174,712,o),
(39,567,o),
(39,348,cs),
(39,130,o),
(174,-15,o),
(372,-15,cs)
);
},
{
closed = 1;
nodes = (
(242,73,o),
(164,197,o),
(164,348,cs),
(164,500,o),
(245,624,o),
(372,624,cs),
(499,624,o),
(580,499,o),
(580,348,cs),
(580,198,o),
(496,73,o),
(369,73,cs)
);
}
);
width = 744;
}
);
note = O;
unicode = 79;
},
{
glyphname = Oacute;
kernLeft = C;
kernRight = D;
layers = (
{
hints = (
{
horizontal = 1;
place = (-15, 119);
place = (-15, 119);
type = Stem;
},
{
horizontal = 1;
place = (593, 119);
place = (593, 119);
type = Stem;
},
{
horizontal = 1;
place = (759, 142);
place = (759, 142);
type = Stem;
},
{
place = (39, 125);
place = (39, 125);
type = Stem;
},
{
place = (580, 125);
place = (580, 125);
type = Stem;
}
);
layerId = m01;
shapes = (
{
closed = 1;
nodes = (
(328,759,l),
(416,759,l),
(568,901,l),
(439,901,l)
);
},
{
closed = 1;
nodes = (
(570,-15,o),
(705,130,o),
(705,348,cs),
(705,567,o),
(571,712,o),
(372,712,cs),
(174,712,o),
(39,567,o),
(39,348,cs),
(39,130,o),
(174,-15,o),
(372,-15,cs)
);
},
{
closed = 1;
nodes = (
(245,104,o),
(164,197,o),
(164,348,cs),
(164,500,o),
(245,593,o),
(372,593,cs),
(499,593,o),
(580,499,o),
(580,348,cs),
(580,198,o),
(499,104,o),
(372,104,cs)
);
}
);
width = 744;
}
);
note = Oacute;
unicode = 211;
},
{
glyphname = uni01D1;
kernLeft = C;
kernRight = D;
layers = (
{
hints = (
{
horizontal = 1;
place = (-15, 119);
place = (-15, 119);
type = Stem;
},
{
horizontal = 1;
place = (593, 119);
place = (593, 119);
type = Stem;
},
{
place = (39, 125);
place = (39, 125);
type = Stem;
},
{
place = (580, 125);
place = (580, 125);
type = Stem;
}
);
layerId = m01;
shapes = (
{
closed = 1;
nodes = (
(372,737,l),
(528,901,l),
(435,901,l),
(372,834,l),
(309,901,l),
(216,901,l)
);
},
{
closed = 1;
nodes = (
(570,-15,o),
(705,130,o),
(705,348,cs),
(705,567,o),
(571,712,o),
(372,712,cs),
(174,712,o),
(39,567,o),
(39,348,cs),
(39,130,o),
(174,-15,o),
(372,-15,cs)
);
},
{
closed = 1;
nodes = (
(245,104,o),
(164,197,o),
(164,348,cs),
(164,500,o),
(245,593,o),
(372,593,cs),
(499,593,o),
(580,499,o),
(580,348,cs),
(580,198,o),
(499,104,o),
(372,104,cs)
);
}
);
width = 744;
}
);
note = uni01D1;
unicode = 465;
},
{
glyphname = Ocircumflex;
kernLeft = C;
kernRight = D;
layers = (
{
hints = (
{
horizontal = 1;
place = (-15, 119);
place = (-15, 119);
type = Stem;
},
{
horizontal = 1;
place = (593, 119);
place = (593, 119);
type = Stem;
},
{
place = (39, 125);
place = (39, 125);
type = Stem;
},
{
place = (580, 125);
place = (580, 125);
type = Stem;
}
);
layerId = m01;
shapes = (
{
closed = 1;
nodes = (
(216,745,l),
(309,745,l),
(372,817,l),
(435,745,l),
(528,745,l),
(372,919,l)
);
},
{
closed = 1;
nodes = (
(570,-15,o),
(705,130,o),
(705,348,cs),
(705,567,o),
(571,712,o),
(372,712,cs),
(174,712,o),
(39,567,o),
(39,348,cs),
(39,130,o),
(174,-15,o),
(372,-15,cs)
);
},
{
closed = 1;
nodes = (
(245,104,o),
(164,197,o),
(164,348,cs),
(164,500,o),
(245,593,o),
(372,593,cs),
(499,593,o),
(580,499,o),
(580,348,cs),
(580,198,o),
(499,104,o),
(372,104,cs)
);
}
);
width = 744;
}
);
note = Ocircumflex;
unicode = 212;
},
{
glyphname = uni1ED0;
kernLeft = C;
kernRight = D;
layers = (
{
hints = (
{
horizontal = 1;
place = (-15, 119);
place = (-15, 119);
type = Stem;
},
{
horizontal = 1;
place = (593, 119);
place = (593, 119);
type = Stem;
},
{
horizontal = 1;
place = (947, 142);
place = (947, 142);
type = Stem;
},
{
place = (39, 125);
place = (39, 125);
type = Stem;
},
{
place = (580, 125);
place = (580, 125);
type = Stem;
}
);
layerId = m01;
shapes = (
{
closed = 1;
nodes = (
(328,947,l),
(416,947,l),
(568,1089,l),
(439,1089,l)
);
},
{
closed = 1;
nodes = (
(216,745,l),
(309,745,l),
(372,817,l),
(435,745,l),
(528,745,l),
(372,919,l)
);
},
{
closed = 1;
nodes = (
(570,-15,o),
(705,130,o),
(705,348,cs),
(705,567,o),
(571,712,o),
(372,712,cs),
(174,712,o),
(39,567,o),
(39,348,cs),
(39,130,o),
(174,-15,o),
(372,-15,cs)
);
},
{
closed = 1;
nodes = (
(245,104,o),
(164,197,o),
(164,348,cs),
(164,500,o),
(245,593,o),
(372,593,cs),
(499,593,o),
(580,499,o),
(580,348,cs),
(580,198,o),
(499,104,o),
(372,104,cs)
);
}
);
width = 744;
}
);
note = uni1ED0;
unicode = 7888;
},
{
glyphname = uni1ED8;
kernLeft = C;
kernRight = D;
layers = (
{
hints = (
{
horizontal = 1;
place = (-173, 111);
place = (-173, 111);
type = Stem;
},
{
horizontal = 1;
place = (-15, 119);
place = (-15, 119);
type = Stem;
},
{
horizontal = 1;
place = (593, 119);
place = (593, 119);
type = Stem;
},
{
place = (39, 125);
place = (39, 125);
type = Stem;
},
{
place = (309, 126);
place = (309, 126);
type = Stem;
},
{
place = (580, 125);
place = (580, 125);
type = Stem;
}
);
layerId = m01;
shapes = (
{
closed = 1;
nodes = (
(216,745,l),
(309,745,l),
(372,817,l),
(435,745,l),
(528,745,l),
(372,919,l)
);
},
{
closed = 1;
nodes = (
(570,-15,o),
(705,130,o),
(705,348,cs),
(705,567,o),
(571,712,o),
(372,712,cs),
(174,712,o),
(39,567,o),
(39,348,cs),
(39,130,o),
(174,-15,o),
(372,-15,cs)
);
},
{
closed = 1;
nodes = (
(245,104,o),
(164,197,o),
(164,348,cs),
(164,500,o),
(245,593,o),
(372,593,cs),
(499,593,o),
(580,499,o),
(580,348,cs),
(580,198,o),
(499,104,o),
(372,104,cs)
);
},
{
closed = 1;
nodes = (
(309,-173,l),
(435,-173,l),
(435,-62,l),
(309,-62,l)
);
}
);
width = 744;
}
);
note = uni1ED8;
unicode = 7896;
},
{
glyphname = uni1ED2;
kernLeft = C;
kernRight = D;
layers = (
{
hints = (
{
horizontal = 1;
place = (-15, 119);
place = (-15, 119);
type = Stem;
},
{
horizontal = 1;
place = (593, 119);
place = (593, 119);
type = Stem;
},
{
horizontal = 1;
place = (947, 142);
place = (947, 142);
type = Stem;
},
{
place = (39, 125);
place = (39, 125);
type = Stem;
},
{
place = (580, 125);
place = (580, 125);
type = Stem;
}
);
layerId = m01;
shapes = (
{
closed = 1;
nodes = (
(327,947,l),
(417,947,l),
(313,1089,l),
(185,1089,l)
);
},
{
closed = 1;
nodes = (
(216,745,l),
(309,745,l),
(372,817,l),
(435,745,l),
(528,745,l),
(372,919,l)
);
},
{
closed = 1;
nodes = (
(570,-15,o),
(705,130,o),
(705,348,cs),
(705,567,o),
(571,712,o),
(372,712,cs),
(174,712,o),
(39,567,o),
(39,348,cs),
(39,130,o),
(174,-15,o),
(372,-15,cs)
);
},
{
closed = 1;
nodes = (
(245,104,o),
(164,197,o),
(164,348,cs),
(164,500,o),
(245,593,o),
(372,593,cs),
(499,593,o),
(580,499,o),
(580,348,cs),
(580,198,o),
(499,104,o),
(372,104,cs)
);
}
);
width = 744;
}
);
note = uni1ED2;
unicode = 7890;
},
{
glyphname = uni1ED4;
kernLeft = C;
kernRight = D;
layers = (
{
hints = (
{
horizontal = 1;
place = (-15, 119);
place = (-15, 119);
type = Stem;
},
{
horizontal = 1;
place = (593, 119);
place = (593, 119);
type = Stem;
},
{
horizontal = 1;
place = (1044, 66);
place = (1044, 66);
type = Stem;
},
{
place = (39, 125);
place = (39, 125);
type = Stem;
},
{
place = (409, 76);
place = (409, 76);
type = Stem;
},
{
place = (580, 125);
place = (580, 125);
type = Stem;
}
);
layerId = m01;
shapes = (
{
closed = 1;
nodes = (
(362,924,l),
(413,932,o),
(485,944,o),
(485,1013,cs),
(485,1076,o),
(424,1110,o),
(335,1110,cs),
(320,1110,l),
(320,1044,l),
(335,1044,ls),
(371,1044,o),
(409,1044,o),
(409,1011,cs),
(409,981,o),
(378,977,o),
(348,973,c)
);
},
{
closed = 1;
nodes = (
(216,745,l),
(309,745,l),
(372,817,l),
(435,745,l),
(528,745,l),
(372,919,l)
);
},
{
closed = 1;
nodes = (
(570,-15,o),
(705,130,o),
(705,348,cs),
(705,567,o),
(571,712,o),
(372,712,cs),
(174,712,o),
(39,567,o),
(39,348,cs),
(39,130,o),
(174,-15,o),
(372,-15,cs)
);
},
{
closed = 1;
nodes = (
(245,104,o),
(164,197,o),
(164,348,cs),
(164,500,o),
(245,593,o),
(372,593,cs),
(499,593,o),
(580,499,o),
(580,348,cs),
(580,198,o),
(499,104,o),
(372,104,cs)
);
}
);
width = 744;
}
);
note = uni1ED4;
unicode = 7892;
},
{
glyphname = uni1ED6;
kernLeft = C;
kernRight = D;
layers = (
{
hints = (
{
horizontal = 1;
place = (-15, 119);
place = (-15, 119);
type = Stem;
},
{
horizontal = 1;
place = (593, 119);
place = (593, 119);
type = Stem;
},
{
horizontal = 1;
place = (948, 74);
place = (948, 74);
type = Stem;
},
{
place = (39, 125);
place = (39, 125);
type = Stem;
},
{
place = (205, 69);
place = (205, 69);
type = Stem;
},
{
place = (466, 72);
place = (466, 72);
type = Stem;
},
{
place = (580, 125);
place = (580, 125);
type = Stem;
},
{
horizontal = 1;
place = (1018, 74);
place = (1018, 74);
type = Stem;
}
);
layerId = m01;
shapes = (
{
closed = 1;
nodes = (
(498,948,o),
(538,998,o),
(538,1089,c),
(466,1089,l),
(466,1046,o),
(453,1022,o),
(436,1022,cs),
(401,1022,o),
(380,1092,o),
(311,1092,cs),
(246,1092,o),
(205,1041,o),
(205,951,c),
(274,951,l),
(274,994,o),
(286,1018,o),
(306,1018,cs),
(343,1018,o),
(357,948,o),
(435,948,cs)
);
},
{
closed = 1;
nodes = (
(216,745,l),
(309,745,l),
(372,817,l),
(435,745,l),
(528,745,l),
(372,919,l)
);
},
{
closed = 1;
nodes = (
(570,-15,o),
(705,130,o),
(705,348,cs),
(705,567,o),
(571,712,o),
(372,712,cs),
(174,712,o),
(39,567,o),
(39,348,cs),
(39,130,o),
(174,-15,o),
(372,-15,cs)
);
},
{
closed = 1;
nodes = (
(245,104,o),
(164,197,o),
(164,348,cs),
(164,500,o),
(245,593,o),
(372,593,cs),
(499,593,o),
(580,499,o),
(580,348,cs),
(580,198,o),
(499,104,o),
(372,104,cs)
);
}
);
width = 744;
}
);
note = uni1ED6;
unicode = 7894;
},
{
glyphname = Odieresis;
kernLeft = C;
kernRight = D;
layers = (
{
hints = (
{
horizontal = 1;
place = (-15, 119);
place = (-15, 119);
type = Stem;
},
{
horizontal = 1;
place = (593, 119);
place = (593, 119);
type = Stem;
},
{
horizontal = 1;
place = (790, 111);
place = (790, 111);
type = Stem;
},
{
place = (39, 125);
place = (39, 125);
type = Stem;
},
{
place = (224, 101);
place = (224, 101);
type = Stem;
},
{
place = (419, 101);
place = (419, 101);
type = Stem;
},
{
place = (580, 125);
place = (580, 125);
type = Stem;
}
);
layerId = m01;
shapes = (
{
closed = 1;
nodes = (
(224,790,l),
(325,790,l),
(325,901,l),
(224,901,l)
);
},
{
closed = 1;
nodes = (
(419,790,l),
(520,790,l),
(520,901,l),
(419,901,l)
);
},
{
closed = 1;
nodes = (
(570,-15,o),
(705,130,o),
(705,348,cs),
(705,567,o),
(571,712,o),
(372,712,cs),
(174,712,o),
(39,567,o),
(39,348,cs),
(39,130,o),
(174,-15,o),
(372,-15,cs)
);
},
{
closed = 1;
nodes = (
(245,104,o),
(164,197,o),
(164,348,cs),
(164,500,o),
(245,593,o),
(372,593,cs),
(499,593,o),
(580,499,o),
(580,348,cs),
(580,198,o),
(499,104,o),
(372,104,cs)
);
}
);
width = 744;
}
);
note = Odieresis;
unicode = 214;
},
{
glyphname = uni1ECC;
kernLeft = C;
kernRight = D;
layers = (
{
hints = (
{
horizontal = 1;
place = (-173, 111);
place = (-173, 111);
type = Stem;
},
{
horizontal = 1;
place = (-15, 119);
place = (-15, 119);
type = Stem;
},
{
horizontal = 1;
place = (593, 119);
place = (593, 119);
type = Stem;
},
{
place = (39, 125);
place = (39, 125);
type = Stem;
},
{
place = (309, 126);
place = (309, 126);
type = Stem;
},
{
place = (580, 125);
place = (580, 125);
type = Stem;
}
);
layerId = m01;
shapes = (
{
closed = 1;
nodes = (
(570,-15,o),
(705,130,o),
(705,348,cs),
(705,567,o),
(571,712,o),
(372,712,cs),
(174,712,o),
(39,567,o),
(39,348,cs),
(39,130,o),
(174,-15,o),
(372,-15,cs)
);
},
{
closed = 1;
nodes = (
(245,104,o),
(164,197,o),
(164,348,cs),
(164,500,o),
(245,593,o),
(372,593,cs),
(499,593,o),
(580,499,o),
(580,348,cs),
(580,198,o),
(499,104,o),
(372,104,cs)
);
},
{
closed = 1;
nodes = (
(309,-173,l),
(435,-173,l),
(435,-62,l),
(309,-62,l)
);
}
);
width = 744;
}
);
note = uni1ECC;
unicode = 7884;
},
{
glyphname = Ograve;
kernLeft = C;
kernRight = D;
layers = (
{
hints = (
{
horizontal = 1;
place = (-15, 119);
place = (-15, 119);
type = Stem;
},
{
horizontal = 1;
place = (593, 119);
place = (593, 119);
type = Stem;
},
{
horizontal = 1;
place = (759, 142);
place = (759, 142);
type = Stem;
},
{
place = (39, 125);
place = (39, 125);
type = Stem;
},
{
place = (580, 125);
place = (580, 125);
type = Stem;
}
);
layerId = m01;
shapes = (
{
closed = 1;
nodes = (
(327,759,l),
(417,759,l),
(313,901,l),
(185,901,l)
);
},
{
closed = 1;
nodes = (
(570,-15,o),
(705,130,o),
(705,348,cs),
(705,567,o),
(571,712,o),
(372,712,cs),
(174,712,o),
(39,567,o),
(39,348,cs),
(39,130,o),
(174,-15,o),
(372,-15,cs)
);
},
{
closed = 1;
nodes = (
(245,104,o),
(164,197,o),
(164,348,cs),
(164,500,o),
(245,593,o),
(372,593,cs),
(499,593,o),
(580,499,o),
(580,348,cs),
(580,198,o),
(499,104,o),
(372,104,cs)
);
}
);
width = 744;
}
);
note = Ograve;
unicode = 210;
},
{
glyphname = uni1ECE;
kernLeft = C;
kernRight = D;
layers = (
{
hints = (
{
horizontal = 1;
place = (-15, 119);
place = (-15, 119);
type = Stem;
},
{
horizontal = 1;
place = (593, 119);
place = (593, 119);
type = Stem;
},
{
horizontal = 1;
place = (856, 66);
place = (856, 66);
type = Stem;
},
{
place = (39, 125);
place = (39, 125);
type = Stem;
},
{
place = (409, 76);
place = (409, 76);
type = Stem;
},
{
place = (580, 125);
place = (580, 125);
type = Stem;
}
);
layerId = m01;
shapes = (
{
closed = 1;
nodes = (
(362,736,l),
(413,744,o),
(485,756,o),
(485,825,cs),
(485,888,o),
(424,922,o),
(335,922,cs),
(320,922,l),
(320,856,l),
(335,856,ls),
(371,856,o),
(409,856,o),
(409,823,cs),
(409,793,o),
(378,789,o),
(348,785,c)
);
},
{
closed = 1;
nodes = (
(570,-15,o),
(705,130,o),
(705,348,cs),
(705,567,o),
(571,712,o),
(372,712,cs),
(174,712,o),
(39,567,o),
(39,348,cs),
(39,130,o),
(174,-15,o),
(372,-15,cs)
);
},
{
closed = 1;
nodes = (
(245,104,o),
(164,197,o),
(164,348,cs),
(164,500,o),
(245,593,o),
(372,593,cs),
(499,593,o),
(580,499,o),
(580,348,cs),
(580,198,o),
(499,104,o),
(372,104,cs)
);
}
);
width = 744;
}
);
note = uni1ECE;
unicode = 7886;
},
{
glyphname = Ohorn;
kernLeft = C;
kernRight = D;
layers = (
{
hints = (
{
horizontal = 1;
place = (-15, 119);
place = (-15, 119);
type = Stem;
},
{
horizontal = 1;
place = (505, -20);
target = down;
type = TopGhost;
},
{
horizontal = 1;
place = (697, -20);
target = down;
type = TopGhost;
},
{
place = (39, 125);
place = (39, 125);
type = Stem;
},
{
place = (674, 91);
place = (674, 91);
type = Stem;
},
{
horizontal = 1;
place = (593, 119);
place = (593, 119);
type = Stem;
},
{
place = (580, 125);
place = (580, 125);
type = Stem;
}
);
layerId = m01;
shapes = (
{
closed = 1;
nodes = (
(674,697,l),
(674,648,ls),
(674,624,o),
(667,592,o),
(640,578,c),
(582,663,o),
(488,712,o),
(372,712,cs),
(174,712,o),
(39,567,o),
(39,348,cs),
(39,130,o),
(174,-15,o),
(372,-15,cs),
(570,-15,o),
(705,130,o),
(705,348,cs),
(705,406,o),
(696,459,o),
(678,505,c),
(740,530,o),
(765,590,o),
(765,658,cs),
(765,697,l)
);
},
{
closed = 1;
nodes = (
(245,104,o),
(164,197,o),
(164,348,cs),
(164,500,o),
(245,593,o),
(372,593,cs),
(499,593,o),
(580,499,o),
(580,348,cs),
(580,198,o),
(499,104,o),
(372,104,cs)
);
}
);
width = 744;
}
);
note = Ohorn;
unicode = 416;
},
{
glyphname = uni1EDA;
kernLeft = C;
kernRight = D;
layers = (
{
hints = (
{
horizontal = 1;
place = (-15, 119);
place = (-15, 119);
type = Stem;
},
{
horizontal = 1;
place = (505, -20);
target = down;
type = TopGhost;
},
{
horizontal = 1;
place = (697, -20);
target = down;
type = TopGhost;
},
{
horizontal = 1;
place = (759, 142);
place = (759, 142);
type = Stem;
},
{
place = (39, 125);
place = (39, 125);
type = Stem;
},
{
place = (580, 125);
place = (580, 125);
type = Stem;
},
{
place = (674, 91);
place = (674, 91);
type = Stem;
},
{
horizontal = 1;
place = (593, 119);
place = (593, 119);
type = Stem;
}
);
layerId = m01;
shapes = (
{
closed = 1;
nodes = (
(568,901,l),
(439,901,l),
(328,759,l),
(416,759,l)
);
},
{
closed = 1;
nodes = (
(674,697,l),
(674,648,ls),
(674,624,o),
(667,592,o),
(640,578,c),
(582,663,o),
(488,712,o),
(372,712,cs),
(174,712,o),
(39,567,o),
(39,348,cs),
(39,130,o),
(174,-15,o),
(372,-15,cs),
(570,-15,o),
(705,130,o),
(705,348,cs),
(705,406,o),
(696,459,o),
(678,505,c),
(740,530,o),
(765,590,o),
(765,658,cs),
(765,697,l)
);
},
{
closed = 1;
nodes = (
(245,104,o),
(164,197,o),
(164,348,cs),
(164,500,o),
(245,593,o),
(372,593,cs),
(499,593,o),
(580,499,o),
(580,348,cs),
(580,198,o),
(499,104,o),
(372,104,cs)
);
}
);
width = 744;
}
);
note = uni1EDA;
unicode = 7898;
},
{
glyphname = uni1EE2;
kernLeft = C;
kernRight = D;
layers = (
{
hints = (
{
horizontal = 1;
place = (-173, 111);
place = (-173, 111);
type = Stem;
},
{
horizontal = 1;
place = (-15, 119);
place = (-15, 119);
type = Stem;
},
{
horizontal = 1;
place = (505, -20);
target = down;
type = TopGhost;
},
{
horizontal = 1;
place = (697, -20);
target = down;
type = TopGhost;
},
{
place = (39, 125);
place = (39, 125);
type = Stem;
},
{
place = (309, 126);
place = (309, 126);
type = Stem;
},
{
place = (674, 91);
place = (674, 91);
type = Stem;
},
{
horizontal = 1;
place = (593, 119);
place = (593, 119);
type = Stem;
},
{
place = (580, 125);
place = (580, 125);
type = Stem;
}
);
layerId = m01;
shapes = (
{
closed = 1;
nodes = (
(674,697,l),
(674,648,ls),
(674,624,o),
(667,592,o),
(640,578,c),
(582,663,o),
(488,712,o),
(372,712,cs),
(174,712,o),
(39,567,o),
(39,348,cs),
(39,130,o),
(174,-15,o),
(372,-15,cs),
(570,-15,o),
(705,130,o),
(705,348,cs),
(705,406,o),
(696,459,o),
(678,505,c),
(740,530,o),
(765,590,o),
(765,658,cs),
(765,697,l)
);
},
{
closed = 1;
nodes = (
(245,104,o),
(164,197,o),
(164,348,cs),
(164,500,o),
(245,593,o),
(372,593,cs),
(499,593,o),
(580,499,o),
(580,348,cs),
(580,198,o),
(499,104,o),
(372,104,cs)
);
},
{
closed = 1;
nodes = (
(309,-173,l),
(435,-173,l),
(435,-62,l),
(309,-62,l)
);
}
);
width = 744;
}
);
note = uni1EE2;
unicode = 7906;
},
{
glyphname = uni1EDC;
kernLeft = C;
kernRight = D;
layers = (
{
hints = (
{
horizontal = 1;
place = (-15, 119);
place = (-15, 119);
type = Stem;
},
{
horizontal = 1;
place = (505, -20);
target = down;
type = TopGhost;
},
{
horizontal = 1;
place = (697, -20);
target = down;
type = TopGhost;
},
{
horizontal = 1;
place = (759, 142);
place = (759, 142);
type = Stem;
},
{
place = (39, 125);
place = (39, 125);
type = Stem;
},
{
place = (580, 125);
place = (580, 125);
type = Stem;
},
{
place = (674, 91);
place = (674, 91);
type = Stem;
},
{
horizontal = 1;
place = (593, 119);
place = (593, 119);
type = Stem;
}
);
layerId = m01;
shapes = (
{
closed = 1;
nodes = (
(417,759,l),
(313,901,l),
(185,901,l),
(327,759,l)
);
},
{
closed = 1;
nodes = (
(674,697,l),
(674,648,ls),
(674,624,o),
(667,592,o),
(640,578,c),
(582,663,o),
(488,712,o),
(372,712,cs),
(174,712,o),
(39,567,o),
(39,348,cs),
(39,130,o),
(174,-15,o),
(372,-15,cs),
(570,-15,o),
(705,130,o),
(705,348,cs),
(705,406,o),
(696,459,o),
(678,505,c),
(740,530,o),
(765,590,o),
(765,658,cs),
(765,697,l)
);
},
{
closed = 1;
nodes = (
(245,104,o),
(164,197,o),
(164,348,cs),
(164,500,o),
(245,593,o),
(372,593,cs),
(499,593,o),
(580,499,o),
(580,348,cs),
(580,198,o),
(499,104,o),
(372,104,cs)
);
}
);
width = 744;
}
);
note = uni1EDC;
unicode = 7900;
},
{
glyphname = uni1EDE;
kernLeft = C;
kernRight = D;
layers = (
{
hints = (
{
horizontal = 1;
place = (-15, 119);
place = (-15, 119);
type = Stem;
},
{
horizontal = 1;
place = (505, -20);
target = down;
type = TopGhost;
},
{
horizontal = 1;
place = (697, -20);
target = down;
type = TopGhost;
},
{
horizontal = 1;
place = (856, 66);
place = (856, 66);
type = Stem;
},
{
place = (39, 125);
place = (39, 125);
type = Stem;
},
{
place = (409, 76);
place = (409, 76);
type = Stem;
},
{
place = (580, 125);
place = (580, 125);
type = Stem;
},
{
place = (674, 91);
place = (674, 91);
type = Stem;
},
{
horizontal = 1;
place = (593, 119);
place = (593, 119);
type = Stem;
}
);
layerId = m01;
shapes = (
{
closed = 1;
nodes = (
(409,793,o),
(378,789,o),
(348,785,c),
(362,736,l),
(413,744,o),
(485,756,o),
(485,825,cs),
(485,888,o),
(424,922,o),
(335,922,cs),
(320,922,l),
(320,856,l),
(335,856,ls),
(371,856,o),
(409,856,o),
(409,823,cs)
);
},
{
closed = 1;
nodes = (
(674,697,l),
(674,648,ls),
(674,624,o),
(667,592,o),
(640,578,c),
(582,663,o),
(488,712,o),
(372,712,cs),
(174,712,o),
(39,567,o),
(39,348,cs),
(39,130,o),
(174,-15,o),
(372,-15,cs),
(570,-15,o),
(705,130,o),
(705,348,cs),
(705,406,o),
(696,459,o),
(678,505,c),
(740,530,o),
(765,590,o),
(765,658,cs),
(765,697,l)
);
},
{
closed = 1;
nodes = (
(245,104,o),
(164,197,o),
(164,348,cs),
(164,500,o),
(245,593,o),
(372,593,cs),
(499,593,o),
(580,499,o),
(580,348,cs),
(580,198,o),
(499,104,o),
(372,104,cs)
);
}
);
width = 744;
}
);
note = uni1EDE;
unicode = 7902;
},
{
glyphname = uni1EE0;
kernLeft = C;
kernRight = D;
layers = (
{
hints = (
{
horizontal = 1;
place = (-15, 119);
place = (-15, 119);
type = Stem;
},
{
horizontal = 1;
place = (505, -20);
target = down;
type = TopGhost;
},
{
horizontal = 1;
place = (697, -20);
target = down;
type = TopGhost;
},
{
horizontal = 1;
place = (830, 74);
place = (830, 74);
type = Stem;
},
{
place = (39, 125);
place = (39, 125);
type = Stem;
},
{
place = (205, 69);
place = (205, 69);
type = Stem;
},
{
place = (466, 72);
place = (466, 72);
type = Stem;
},
{
place = (580, 125);
place = (580, 125);
type = Stem;
},
{
horizontal = 1;
place = (760, 74);
place = (760, 74);
type = Stem;
},
{
place = (674, 91);
place = (674, 91);
type = Stem;
},
{
horizontal = 1;
place = (593, 119);
place = (593, 119);
type = Stem;
}
);
layerId = m01;
shapes = (
{
closed = 1;
nodes = (
(343,830,o),
(357,760,o),
(435,760,cs),
(498,760,o),
(538,810,o),
(538,901,c),
(466,901,l),
(466,858,o),
(453,834,o),
(436,834,cs),
(401,834,o),
(380,904,o),
(311,904,cs),
(246,904,o),
(205,853,o),
(205,763,c),
(274,763,l),
(274,806,o),
(286,830,o),
(306,830,cs)
);
},
{
closed = 1;
nodes = (
(674,697,l),
(674,648,ls),
(674,624,o),
(667,592,o),
(640,578,c),
(582,663,o),
(488,712,o),
(372,712,cs),
(174,712,o),
(39,567,o),
(39,348,cs),
(39,130,o),
(174,-15,o),
(372,-15,cs),
(570,-15,o),
(705,130,o),
(705,348,cs),
(705,406,o),
(696,459,o),
(678,505,c),
(740,530,o),
(765,590,o),
(765,658,cs),
(765,697,l)
);
},
{
closed = 1;
nodes = (
(245,104,o),
(164,197,o),
(164,348,cs),
(164,500,o),
(245,593,o),
(372,593,cs),
(499,593,o),
(580,499,o),
(580,348,cs),
(580,198,o),
(499,104,o),
(372,104,cs)
);
}
);
width = 744;
}
);
note = uni1EE0;
unicode = 7904;
},
{
glyphname = Ohungarumlaut;
kernLeft = C;
kernRight = D;
layers = (
{
hints = (
{
horizontal = 1;
place = (-15, 119);
place = (-15, 119);
type = Stem;
},
{
horizontal = 1;
place = (738, 163);
place = (738, 163);
type = Stem;
},
{
place = (39, 125);
place = (39, 125);
type = Stem;
},
{
place = (580, 125);
place = (580, 125);
type = Stem;
},
{
horizontal = 1;
place = (593, 119);
place = (593, 119);
type = Stem;
}
);
layerId = m01;
shapes = (
{
closed = 1;
nodes = (
(232,738,l),
(320,738,l),
(451,901,l),
(343,901,l)
);
},
{
closed = 1;
nodes = (
(424,738,l),
(512,738,l),
(663,901,l),
(535,901,l)
);
},
{
closed = 1;
nodes = (
(570,-15,o),
(705,130,o),
(705,348,cs),
(705,567,o),
(571,712,o),
(372,712,cs),
(174,712,o),
(39,567,o),
(39,348,cs),
(39,130,o),
(174,-15,o),
(372,-15,cs)
);
},
{
closed = 1;
nodes = (
(245,104,o),
(164,197,o),
(164,348,cs),
(164,500,o),
(245,593,o),
(372,593,cs),
(499,593,o),
(580,499,o),
(580,348,cs),
(580,198,o),
(499,104,o),
(372,104,cs)
);
}
);
width = 744;
}
);
note = Ohungarumlaut;
unicode = 336;
},
{
glyphname = Omacron;
kernLeft = C;
kernRight = D;
layers = (
{
hints = (
{
horizontal = 1;
place = (-15, 119);
place = (-15, 119);
type = Stem;
},
{
horizontal = 1;
place = (593, 119);
place = (593, 119);
type = Stem;
},
{
horizontal = 1;
place = (770, 70);
place = (770, 70);
type = Stem;
},
{
place = (39, 125);
place = (39, 125);
type = Stem;
},
{
place = (234, 275);
place = (234, 275);
type = Stem;
},
{
place = (580, 125);
place = (580, 125);
type = Stem;
}
);
layerId = m01;
shapes = (
{
closed = 1;
nodes = (
(234,770,l),
(509,770,l),
(509,840,l),
(234,840,l)
);
},
{
closed = 1;
nodes = (
(570,-15,o),
(705,130,o),
(705,348,cs),
(705,567,o),
(571,712,o),
(372,712,cs),
(174,712,o),
(39,567,o),
(39,348,cs),
(39,130,o),
(174,-15,o),
(372,-15,cs)
);
},
{
closed = 1;
nodes = (
(245,104,o),
(164,197,o),
(164,348,cs),
(164,500,o),
(245,593,o),
(372,593,cs),
(499,593,o),
(580,499,o),
(580,348,cs),
(580,198,o),
(499,104,o),
(372,104,cs)
);
}
);
width = 744;
}
);
note = Omacron;
unicode = 332;
},
{
glyphname = Oslash;
kernLeft = C;
kernRight = D;
layers = (
{
hints = (
{
horizontal = 1;
place = (-15, 119);
place = (-15, 119);
type = Stem;
},
{
horizontal = 1;
place = (616, 81);
place = (616, 81);
type = Stem;
},
{
place = (39, 125);
place = (39, 125);
type = Stem;
},
{
place = (580, 125);
place = (580, 125);
type = Stem;
},
{
horizontal = 1;
place = (0, 81);
place = (0, 81);
type = Stem;
},
{
horizontal = 1;
place = (593, 119);
place = (593, 119);
type = Stem;
},
{
horizontal = 1;
place = (697, -20);
target = down;
type = TopGhost;
}
);
layerId = m01;
shapes = (
{
closed = 1;
nodes = (
(668,697,l),
(578,697,l),
(553,662,l),
(503,694,o),
(441,712,o),
(372,712,cs),
(174,712,o),
(39,567,o),
(39,348,cs),
(39,237,o),
(74,145,o),
(135,81,c),
(76,0,l),
(166,0,l),
(191,35,l),
(242,3,o),
(303,-15,o),
(372,-15,cs),
(570,-15,o),
(705,130,o),
(705,348,cs),
(705,460,o),
(670,552,o),
(610,616,c)
);
},
{
closed = 1;
nodes = (
(164,500,o),
(245,593,o),
(372,593,cs),
(414,593,o),
(451,583,o),
(482,563,c),
(209,184,l),
(180,225,o),
(164,281,o),
(164,348,cs)
);
},
{
closed = 1;
nodes = (
(330,104,o),
(293,114,o),
(262,133,c),
(535,512,l),
(564,471,o),
(580,415,o),
(580,348,cs),
(580,198,o),
(499,104,o),
(372,104,cs)
);
}
);
width = 744;
}
);
note = Oslash;
unicode = 216;
},
{
glyphname = Otilde;
kernLeft = C;
kernRight = D;
layers = (
{
hints = (
{
horizontal = 1;
place = (-15, 119);
place = (-15, 119);
type = Stem;
},
{
horizontal = 1;
place = (593, 119);
place = (593, 119);
type = Stem;
},
{
horizontal = 1;
place = (760, 74);
place = (760, 74);
type = Stem;
},
{
place = (39, 125);
place = (39, 125);
type = Stem;
},
{
place = (205, 69);
place = (205, 69);
type = Stem;
},
{
place = (466, 72);
place = (466, 72);
type = Stem;
},
{
place = (580, 125);
place = (580, 125);
type = Stem;
},
{
horizontal = 1;
place = (830, 74);
place = (830, 74);
type = Stem;
}
);
layerId = m01;
shapes = (
{
closed = 1;
nodes = (
(498,760,o),
(538,810,o),
(538,901,c),
(466,901,l),
(466,858,o),
(453,834,o),
(436,834,cs),
(401,834,o),
(380,904,o),
(311,904,cs),
(246,904,o),
(205,853,o),
(205,763,c),
(274,763,l),
(274,806,o),
(286,830,o),
(306,830,cs),
(343,830,o),
(357,760,o),
(435,760,cs)
);
},
{
closed = 1;
nodes = (
(570,-15,o),
(705,130,o),
(705,348,cs),
(705,567,o),
(571,712,o),
(372,712,cs),
(174,712,o),
(39,567,o),
(39,348,cs),
(39,130,o),
(174,-15,o),
(372,-15,cs)
);
},
{
closed = 1;
nodes = (
(245,104,o),
(164,197,o),
(164,348,cs),
(164,500,o),
(245,593,o),
(372,593,cs),
(499,593,o),
(580,499,o),
(580,348,cs),
(580,198,o),
(499,104,o),
(372,104,cs)
);
}
);
width = 744;
}
);
note = Otilde;
unicode = 213;
},
{
glyphname = OE;
kernLeft = C;
layers = (
{
hints = (
{
horizontal = 1;
place = (0, 115);
place = (0, 115);
type = Stem;
},
{
horizontal = 1;
place = (301, 115);
place = (301, 115);
type = Stem;
},
{
horizontal = 1;
place = (582, 115);
place = (582, 115);
type = Stem;
},
{
place = (39, 125);
place = (39, 125);
type = Stem;
},
{
place = (581, 125);
place = (581, 125);
type = Stem;
},
{
horizontal = 1;
place = (-15, 119);
place = (-15, 119);
type = Stem;
},
{
horizontal = 1;
place = (593, 119);
place = (593, 119);
type = Stem;
},
{
horizontal = 1;
place = (593, 104);
place = (593, 104);
type = Stem;
},
{
place = (580, 126);
place = (580, 126);
type = Stem;
}
);
layerId = m01;
shapes = (
{
closed = 1;
nodes = (
(1045,582,l),
(1045,697,l),
(581,697,l),
(581,642,l),
(526,687,o),
(454,712,o),
(372,712,cs),
(174,712,o),
(39,567,o),
(39,348,cs),
(39,130,o),
(174,-15,o),
(372,-15,cs),
(454,-15,o),
(526,10,o),
(581,55,c),
(581,0,l),
(1045,0,l),
(1045,115,l),
(706,115,l),
(706,301,l),
(1021,301,l),
(1021,416,l),
(706,416,l),
(706,582,l)
);
},
{
closed = 1;
nodes = (
(245,104,o),
(164,197,o),
(164,348,cs),
(164,500,o),
(245,593,o),
(372,593,cs),
(499,593,o),
(580,499,o),
(580,348,cs),
(580,198,o),
(499,104,o),
(372,104,cs)
);
}
);
width = 1103;
}
);
note = OE;
unicode = 338;
},
{
glyphname = P;
kernLeft = B;
kernRight = P;
lastChange = "2022-12-21 16:09:10 +0000";
layers = (
{
hints = (
{
horizontal = 1;
place = (0, 21);
target = up;
type = BottomGhost;
},
{
horizontal = 1;
place = (289, 115);
place = (289, 115);
type = Stem;
},
{
horizontal = 1;
place = (582, 115);
place = (582, 115);
type = Stem;
},
{
place = (88, 124);
place = (88, 124);
type = Stem;
},
{
place = (428, 125);
place = (428, 125);
type = Stem;
}
);
layerId = m01;
shapes = (
{
closed = 1;
nodes = (
(150,0,l),
(213,100,l),
(213,289,l),
(317,289,ls),
(432,289,o),
(553,394,o),
(553,496,qs),
(553,596,o),
(434,697,o),
(317,697,qs),
(88,697,l),
(88,0,l)
);
},
{
closed = 1;
nodes = (
(213,582,l),
(304,582,ls),
(370,582,o),
(428,542,o),
(428,494,qs),
(428,446,o),
(370,404,o),
(304,404,qs),
(213,404,l)
);
}
);
width = 575;
}
);
note = P;
unicode = 80;
},
{
glyphname = Thorn;
kernLeft = B;
kernRight = Thorn;
layers = (
{
hints = (
{
horizontal = 1;
place = (0, 21);
target = up;
type = BottomGhost;
},
{
horizontal = 1;
place = (196, 104);
place = (196, 104);
type = Stem;
},
{
horizontal = 1;
place = (503, 194);
place = (503, 194);
type = Stem;
},
{
place = (88, 114);
place = (88, 114);
type = Stem;
},
{
place = (428, 114);
place = (428, 114);
type = Stem;
},
{
horizontal = 1;
place = (503, 98);
place = (503, 98);
type = Stem;
}
);
layerId = m01;
shapes = (
{
closed = 1;
nodes = (
(88,0,l),
(202,0,l),
(202,196,l),
(301,196,ls),
(453,196,o),
(542,273,o),
(542,404,cs),
(542,528,o),
(463,601,o),
(328,601,cs),
(202,601,l),
(202,697,l),
(88,697,l)
);
},
{
closed = 1;
nodes = (
(202,300,l),
(202,503,l),
(301,503,ls),
(385,503,o),
(428,468,o),
(428,400,cs),
(428,333,o),
(386,300,o),
(301,300,cs)
);
}
);
width = 563;
}
);
note = Thorn;
unicode = 222;
},
{
glyphname = Q;
kernLeft = C;
kernRight = Q;
lastChange = "2022-12-21 16:11:11 +0000";
layers = (
{
hints = (
{
horizontal = 1;
place = (-15, 119);
place = (-15, 119);
type = Stem;
},
{
horizontal = 1;
place = (593, 119);
place = (593, 119);
type = Stem;
},
{
place = (37, 125);
place = (37, 125);
type = Stem;
},
{
place = (578, 125);
place = (578, 125);
type = Stem;
}
);
layerId = m01;
shapes = (
{
closed = 1;
nodes = (
(635,114,l),
(667,160,o),
(703,278,o),
(703,348,qs),
(703,430,o),
(655,564,o),
(567,660,o),
(445,712,o),
(370,712,qs),
(296,712,o),
(173,660,o),
(85,564,o),
(37,430,o),
(37,348,qs),
(37,266,o),
(85,132,o),
(173,37,o),
(296,-15,o),
(370,-15,qs),
(480,-15,o),
(559,40,q),
(667,-53,l),
(706,-16,l),
(703,47,l)
);
},
{
closed = 1;
nodes = (
(162,234,o),
(162,348,qs),
(162,405,o),
(191,496,o),
(245,559,o),
(322,602,o),
(370,602,qs),
(418,602,o),
(495,559,o),
(549,495,o),
(578,405,o),
(578,348,qs),
(578,262,o),
(544,202,q),
(452,292,l),
(377,215,l),
(468,127,l),
(425,95,o),
(370,95,qs),
(274,95,o)
);
}
);
width = 765;
}
);
note = Q;
unicode = 81;
},
{
glyphname = R;
kernLeft = B;
kernRight = R;
lastChange = "2022-12-21 16:12:18 +0000";
layers = (
{
hints = (
{
horizontal = 1;
place = (0, 21);
target = up;
type = BottomGhost;
},
{
horizontal = 1;
place = (289, 115);
place = (289, 115);
type = Stem;
},
{
horizontal = 1;
place = (582, 115);
place = (582, 115);
type = Stem;
},
{
place = (88, 124);
place = (88, 124);
type = Stem;
},
{
place = (428, 125);
place = (428, 125);
type = Stem;
}
);
layerId = m01;
shapes = (
{
closed = 1;
nodes = (
(364,304,l),
(395,315,o),
(462,349,o),
(517,397,o),
(553,459,o),
(553,496,qs),
(553,590,o),
(441,697,o),
(317,697,qs),
(88,697,l),
(88,0,l),
(150,0,l),
(213,100,l),
(213,289,l),
(241,289,l),
(407,0,l),
(552,0,l)
);
},
{
closed = 1;
nodes = (
(213,582,l),
(304,582,ls),
(364,582,o),
(428,545,o),
(428,494,qs),
(428,443,o),
(364,404,o),
(304,404,qs),
(213,404,l)
);
}
);
width = 622;
}
);
note = R;
unicode = 82;
},
{
glyphname = Racute;
kernLeft = B;
kernRight = R;
layers = (
{
hints = (
{
horizontal = 1;
place = (0, 21);
target = up;
type = BottomGhost;
},
{
horizontal = 1;
place = (289, 115);
place = (289, 115);
type = Stem;
},
{
horizontal = 1;
place = (582, 115);
place = (582, 115);
type = Stem;
},
{
horizontal = 1;
place = (759, 142);
place = (759, 142);
type = Stem;
},
{
place = (88, 124);
place = (88, 124);
type = Stem;
},
{
place = (428, 125);
place = (428, 125);
type = Stem;
}
);
layerId = m01;
shapes = (
{
closed = 1;
nodes = (
(507,901,l),
(378,901,l),
(267,759,l),
(355,759,l)
);
},
{
closed = 1;
nodes = (
(612,0,l),
(424,304,l),
(507,332,o),
(553,396,o),
(553,496,cs),
(553,621,o),
(482,697,o),
(316,697,cs),
(88,697,l),
(88,0,l),
(212,0,l),
(212,289,l),
(258,289,l),
(300,289,l),
(467,0,l)
);
},
{
closed = 1;
nodes = (
(212,404,l),
(212,582,l),
(303,582,ls),
(384,582,o),
(428,562,o),
(428,494,cs),
(428,426,o),
(384,404,o),
(303,404,cs)
);
}
);
width = 622;
}
);
note = Racute;
unicode = 340;
},
{
glyphname = Rcaron;
kernLeft = B;
kernRight = R;
layers = (
{
hints = (
{
horizontal = 1;
place = (0, 21);
target = up;
type = BottomGhost;
},
{
horizontal = 1;
place = (289, 115);
place = (289, 115);
type = Stem;
},
{
horizontal = 1;
place = (582, 115);
place = (582, 115);
type = Stem;
},
{
place = (88, 124);
place = (88, 124);
type = Stem;
},
{
place = (428, 125);
place = (428, 125);
type = Stem;
}
);
layerId = m01;
shapes = (
{
closed = 1;
nodes = (
(467,901,l),
(374,901,l),
(311,834,l),
(248,901,l),
(155,901,l),
(311,737,l)
);
},
{
closed = 1;
nodes = (
(612,0,l),
(424,304,l),
(507,332,o),
(553,396,o),
(553,496,cs),
(553,621,o),
(482,697,o),
(316,697,cs),
(88,697,l),
(88,0,l),
(212,0,l),
(212,289,l),
(258,289,l),
(300,289,l),
(467,0,l)
);
},
{
closed = 1;
nodes = (
(212,404,l),
(212,582,l),
(303,582,ls),
(384,582,o),
(428,562,o),
(428,494,cs),
(428,426,o),
(384,404,o),
(303,404,cs)
);
}
);
width = 622;
}
);
note = Rcaron;
unicode = 344;
},
{
glyphname = uni0156;
kernLeft = B;
kernRight = R;
layers = (
{
hints = (
{
horizontal = 1;
place = (-226, 173);
place = (-226, 173);
type = Stem;
},
{
horizontal = 1;
place = (0, 21);
target = up;
type = BottomGhost;
},
{
horizontal = 1;
place = (289, 115);
place = (289, 115);
type = Stem;
},
{
horizontal = 1;
place = (582, 115);
place = (582, 115);
type = Stem;
},
{
place = (88, 124);
place = (88, 124);
type = Stem;
},
{
place = (428, 125);
place = (428, 125);
type = Stem;
}
);
layerId = m01;
shapes = (
{
closed = 1;
nodes = (
(424,304,l),
(507,332,o),
(553,396,o),
(553,496,cs),
(553,621,o),
(482,697,o),
(316,697,cs),
(88,697,l),
(88,0,l),
(212,0,l),
(212,289,l),
(258,289,l),
(300,289,l),
(467,0,l),
(612,0,l)
);
},
{
closed = 1;
nodes = (
(212,404,l),
(212,582,l),
(303,582,ls),
(384,582,o),
(428,562,o),
(428,494,cs),
(428,426,o),
(384,404,o),
(303,404,cs)
);
},
{
closed = 1;
nodes = (
(181,-226,l),
(251,-226,l),
(373,-53,l),
(248,-53,l)
);
}
);
width = 622;
}
);
note = uni0156;
unicode = 342;
},
{
glyphname = S;
kernLeft = S;
kernRight = S;
layers = (
{
hints = (
{
horizontal = 1;
place = (-13, 111);
place = (-13, 111);
type = Stem;
},
{
horizontal = 1;
place = (601, 111);
place = (601, 111);
type = Stem;
},
{
place = (68, 125);
place = (68, 125);
type = Stem;
},
{
place = (405, 125);
place = (405, 125);
type = Stem;
}
);
layerId = m01;
shapes = (
{
closed = 1;
nodes = (
(431,-13,o),
(530,73,o),
(530,203,cs),
(530,302,o),
(481,355,o),
(332,412,cs),
(227,453,o),
(193,479,o),
(193,525,cs),
(193,568,o),
(231,601,o),
(281,601,cs),
(328,601,o),
(369,573,o),
(393,521,c),
(497,585,l),
(453,669,o),
(379,712,o),
(285,712,cs),
(155,712,o),
(68,635,o),
(68,522,cs),
(68,421,o),
(120,368,o),
(266,311,cs),
(369,270,o),
(405,240,o),
(405,192,cs),
(405,133,o),
(360,98,o),
(290,98,cs),
(209,98,o),
(154,145,o),
(145,228,c),
(21,197,l),
(41,70,o),
(149,-13,o),
(288,-13,cs)
);
}
);
width = 558;
}
);
note = S;
unicode = 83;
},
{
glyphname = Sacute;
kernLeft = S;
kernRight = S;
layers = (
{
hints = (
{
horizontal = 1;
place = (-13, 111);
place = (-13, 111);
type = Stem;
},
{
horizontal = 1;
place = (601, 111);
place = (601, 111);
type = Stem;
},
{
horizontal = 1;
place = (759, 142);
place = (759, 142);
type = Stem;
},
{
place = (68, 125);
place = (68, 125);
type = Stem;
},
{
place = (405, 125);
place = (405, 125);
type = Stem;
}
);
layerId = m01;
shapes = (
{
closed = 1;
nodes = (
(235,759,l),
(323,759,l),
(475,901,l),
(346,901,l)
);
},
{
closed = 1;
nodes = (
(431,-13,o),
(530,73,o),
(530,203,cs),
(530,302,o),
(481,355,o),
(332,412,cs),
(227,453,o),
(193,479,o),
(193,525,cs),
(193,568,o),
(231,601,o),
(281,601,cs),
(328,601,o),
(369,573,o),
(393,521,c),
(497,585,l),
(453,669,o),
(379,712,o),
(285,712,cs),
(155,712,o),
(68,635,o),
(68,522,cs),
(68,421,o),
(120,368,o),
(266,311,cs),
(369,270,o),
(405,240,o),
(405,192,cs),
(405,133,o),
(360,98,o),
(290,98,cs),
(209,98,o),
(154,145,o),
(145,228,c),
(21,197,l),
(41,70,o),
(149,-13,o),
(288,-13,cs)
);
}
);
width = 558;
}
);
note = Sacute;
unicode = 346;
},
{
glyphname = Scaron;
kernLeft = S;
kernRight = S;
layers = (
{
hints = (
{
horizontal = 1;
place = (-13, 111);
place = (-13, 111);
type = Stem;
},
{
horizontal = 1;
place = (601, 111);
place = (601, 111);
type = Stem;
},
{
place = (68, 125);
place = (68, 125);
type = Stem;
},
{
place = (405, 125);
place = (405, 125);
type = Stem;
}
);
layerId = m01;
shapes = (
{
closed = 1;
nodes = (
(279,737,l),
(435,901,l),
(342,901,l),
(279,834,l),
(216,901,l),
(123,901,l)
);
},
{
closed = 1;
nodes = (
(431,-13,o),
(530,73,o),
(530,203,cs),
(530,302,o),
(481,355,o),
(332,412,cs),
(227,453,o),
(193,479,o),
(193,525,cs),
(193,568,o),
(231,601,o),
(281,601,cs),
(328,601,o),
(369,573,o),
(393,521,c),
(497,585,l),
(453,669,o),
(379,712,o),
(285,712,cs),
(155,712,o),
(68,635,o),
(68,522,cs),
(68,421,o),
(120,368,o),
(266,311,cs),
(369,270,o),
(405,240,o),
(405,192,cs),
(405,133,o),
(360,98,o),
(290,98,cs),
(209,98,o),
(154,145,o),
(145,228,c),
(21,197,l),
(41,70,o),
(149,-13,o),
(288,-13,cs)
);
}
);
width = 558;
}
);
note = Scaron;
unicode = 352;
},
{
glyphname = Scedilla;
kernLeft = S;
kernRight = S;
layers = (
{
hints = (
{
horizontal = 1;
place = (-258, 69);
place = (-258, 69);
type = Stem;
},
{
horizontal = 1;
place = (-9, 21);
target = up;
type = BottomGhost;
},
{
horizontal = 1;
place = (601, 111);
place = (601, 111);
type = Stem;
},
{
place = (68, 125);
place = (68, 125);
type = Stem;
},
{
place = (300, 70);
place = (300, 70);
type = Stem;
},
{
place = (405, 125);
place = (405, 125);
type = Stem;
},
{
horizontal = 1;
place = (-96, 194);
place = (-96, 194);
type = Stem;
}
);
layerId = m01;
shapes = (
{
closed = 1;
nodes = (
(530,302,o),
(481,355,o),
(332,412,cs),
(227,453,o),
(193,479,o),
(193,525,cs),
(193,568,o),
(231,601,o),
(281,601,cs),
(328,601,o),
(369,573,o),
(393,521,c),
(497,585,l),
(453,669,o),
(379,712,o),
(285,712,cs),
(155,712,o),
(68,635,o),
(68,522,cs),
(68,421,o),
(120,368,o),
(266,311,cs),
(369,270,o),
(405,240,o),
(405,192,cs),
(405,133,o),
(360,98,o),
(290,98,cs),
(209,98,o),
(154,145,o),
(145,228,c),
(21,197,l),
(38,86,o),
(123,9,o),
(237,-9,c),
(183,-96,l),
(205,-96,o),
(227,-97,o),
(246,-100,cs),
(275,-105,o),
(300,-120,o),
(300,-149,cs),
(300,-173,o),
(284,-189,o),
(260,-189,cs),
(248,-189,o),
(229,-186,o),
(209,-168,c),
(171,-226,l),
(200,-251,o),
(233,-258,o),
(257,-258,cs),
(322,-258,o),
(370,-209,o),
(370,-146,cs),
(370,-112,o),
(354,-84,o),
(325,-67,cs),
(311,-59,o),
(295,-53,o),
(276,-49,c),
(304,-13,l),
(438,-6,o),
(530,78,o),
(530,203,cs)
);
}
);
width = 558;
}
);
note = Scedilla;
unicode = 350;
},
{
glyphname = uni0218;
kernLeft = S;
kernRight = S;
layers = (
{
hints = (
{
horizontal = 1;
place = (-226, 173);
place = (-226, 173);
type = Stem;
},
{
horizontal = 1;
place = (-13, 111);
place = (-13, 111);
type = Stem;
},
{
horizontal = 1;
place = (601, 111);
place = (601, 111);
type = Stem;
},
{
place = (68, 125);
place = (68, 125);
type = Stem;
},
{
place = (405, 125);
place = (405, 125);
type = Stem;
}
);
layerId = m01;
shapes = (
{
closed = 1;
nodes = (
(431,-13,o),
(530,73,o),
(530,203,cs),
(530,302,o),
(481,355,o),
(332,412,cs),
(227,453,o),
(193,479,o),
(193,525,cs),
(193,568,o),
(231,601,o),
(281,601,cs),
(328,601,o),
(369,573,o),
(393,521,c),
(497,585,l),
(453,669,o),
(379,712,o),
(285,712,cs),
(155,712,o),
(68,635,o),
(68,522,cs),
(68,421,o),
(120,368,o),
(266,311,cs),
(369,270,o),
(405,240,o),
(405,192,cs),
(405,133,o),
(360,98,o),
(290,98,cs),
(209,98,o),
(154,145,o),
(145,228,c),
(21,197,l),
(41,70,o),
(149,-13,o),
(288,-13,cs)
);
},
{
closed = 1;
nodes = (
(149,-226,l),
(219,-226,l),
(341,-53,l),
(216,-53,l)
);
}
);
width = 558;
}
);
note = uni0218;
unicode = 536;
},
{
glyphname = uni1E9E;
layers = (
{
hints = (
{
horizontal = 1;
place = (-15, 116);
place = (-15, 116);
type = Stem;
},
{
horizontal = 1;
place = (576, 121);
place = (576, 121);
type = Stem;
},
{
place = (72, 125);
place = (72, 125);
type = Stem;
},
{
place = (286, 126);
place = (286, 126);
type = Stem;
},
{
place = (522, 137);
place = (522, 137);
type = Stem;
},
{
horizontal = 1;
place = (0, 21);
target = up;
type = BottomGhost;
}
);
layerId = m01;
shapes = (
{
closed = 1;
nodes = (
(576,-15,o),
(659,54,o),
(659,145,cs),
(659,330,o),
(412,290,o),
(412,359,cs),
(412,374,o),
(424,391,o),
(434,403,cs),
(584,582,l),
(584,697,l),
(338,697,ls),
(99,697,o),
(72,543,o),
(72,426,cs),
(72,0,l),
(197,0,l),
(197,426,ls),
(197,529,o),
(233,576,o),
(338,576,cs),
(430,576,l),
(348,476,ls),
(318,439,o),
(286,410,o),
(286,349,cs),
(286,186,o),
(522,232,o),
(522,143,cs),
(522,118,o),
(505,101,o),
(464,101,cs),
(404,101,o),
(369,138,o),
(349,184,c),
(243,128,l),
(267,48,o),
(350,-15,o),
(460,-15,cs)
);
}
);
width = 679;
}
);
note = uni1E9E;
unicode = 7838;
},
{
glyphname = T;
kernLeft = T;
kernRight = T;
lastChange = "2022-12-21 16:13:05 +0000";
layers = (
{
hints = (
{
horizontal = 1;
place = (0, 21);
target = up;
type = BottomGhost;
},
{
horizontal = 1;
place = (582, 115);
place = (582, 115);
type = Stem;
},
{
place = (226, 126);
place = (226, 126);
type = Stem;
}
);
layerId = m01;
shapes = (
{
closed = 1;
nodes = (
(290,0,l),
(352,100,l),
(352,582,l),
(570,582,l),
(570,697,l),
(8,697,l),
(8,582,l),
(226,582,l),
(226,0,l)
);
}
);
width = 578;
}
);
note = T;
unicode = 84;
},
{
glyphname = Tbar;
kernLeft = T;
kernRight = T;
layers = (
{
hints = (
{
horizontal = 1;
place = (0, 21);
target = up;
type = BottomGhost;
},
{
horizontal = 1;
place = (309, 80);
place = (309, 80);
type = Stem;
},
{
horizontal = 1;
place = (582, 115);
place = (582, 115);
type = Stem;
},
{
place = (226, 126);
place = (226, 126);
type = Stem;
}
);
layerId = m01;
shapes = (
{
closed = 1;
nodes = (
(570,582,l),
(570,697,l),
(8,697,l),
(8,582,l),
(226,582,l),
(226,389,l),
(127,389,l),
(127,309,l),
(226,309,l),
(226,0,l),
(352,0,l),
(352,309,l),
(450,309,l),
(450,389,l),
(352,389,l),
(352,582,l)
);
}
);
width = 578;
}
);
note = Tbar;
unicode = 358;
},
{
glyphname = Tcaron;
kernLeft = T;
kernRight = T;
layers = (
{
hints = (
{
horizontal = 1;
place = (0, 21);
target = up;
type = BottomGhost;
},
{
horizontal = 1;
place = (582, 115);
place = (582, 115);
type = Stem;
},
{
place = (226, 126);
place = (226, 126);
type = Stem;
}
);
layerId = m01;
shapes = (
{
closed = 1;
nodes = (
(289,737,l),
(445,901,l),
(352,901,l),
(289,834,l),
(226,901,l),
(133,901,l)
);
},
{
closed = 1;
nodes = (
(226,0,l),
(352,0,l),
(352,582,l),
(570,582,l),
(570,697,l),
(8,697,l),
(8,582,l),
(226,582,l)
);
}
);
width = 578;
}
);
note = Tcaron;
unicode = 356;
},
{
glyphname = uni0162;
kernLeft = T;
kernRight = T;
layers = (
{
hints = (
{
horizontal = 1;
place = (-258, 69);
place = (-258, 69);
type = Stem;
},
{
horizontal = 1;
place = (0, 21);
target = up;
type = BottomGhost;
},
{
horizontal = 1;
place = (582, 115);
place = (582, 115);
type = Stem;
},
{
place = (226, 126);
place = (226, 126);
type = Stem;
},
{
place = (310, 70);
place = (310, 70);
type = Stem;
}
);
layerId = m01;
shapes = (
{
closed = 1;
nodes = (
(352,0,l),
(352,582,l),
(570,582,l),
(570,697,l),
(8,697,l),
(8,582,l),
(226,582,l),
(226,0,l),
(253,0,l),
(193,-96,l),
(215,-96,o),
(237,-97,o),
(256,-100,cs),
(285,-105,o),
(310,-120,o),
(310,-149,cs),
(310,-173,o),
(294,-189,o),
(270,-189,cs),
(258,-189,o),
(239,-186,o),
(219,-168,c),
(181,-226,l),
(210,-251,o),
(243,-258,o),
(267,-258,cs),
(332,-258,o),
(380,-209,o),
(380,-146,cs),
(380,-112,o),
(364,-84,o),
(335,-67,cs),
(321,-59,o),
(305,-53,o),
(286,-49,c),
(324,0,l)
);
}
);
width = 578;
}
);
note = uni0162;
unicode = 354;
},
{
glyphname = uni021A;
kernLeft = T;
kernRight = T;
layers = (
{
hints = (
{
horizontal = 1;
place = (-226, 173);
place = (-226, 173);
type = Stem;
},
{
horizontal = 1;
place = (0, 21);
target = up;
type = BottomGhost;
},
{
horizontal = 1;
place = (582, 115);
place = (582, 115);
type = Stem;
},
{
place = (226, 126);
place = (226, 126);
type = Stem;
}
);
layerId = m01;
shapes = (
{
closed = 1;
nodes = (
(226,0,l),
(352,0,l),
(352,582,l),
(570,582,l),
(570,697,l),
(8,697,l),
(8,582,l),
(226,582,l)
);
},
{
closed = 1;
nodes = (
(159,-226,l),
(229,-226,l),
(351,-53,l),
(226,-53,l)
);
}
);
width = 578;
}
);
note = uni021A;
unicode = 538;
},
{
glyphname = U;
kernLeft = U;
kernRight = J;
lastChange = "2022-12-21 16:13:32 +0000";
layers = (
{
hints = (
{
horizontal = 1;
place = (-15, 121);
place = (-15, 121);
type = Stem;
},
{
horizontal = 1;
place = (697, -20);
target = down;
type = TopGhost;
},
{
place = (74, 125);
place = (74, 125);
type = Stem;
},
{
place = (482, 125);
place = (482, 125);
type = Stem;
}
);
layerId = m01;
shapes = (
{
closed = 1;
nodes = (
(516,-15,o),
(607,76,o),
(607,257,cs),
(607,697,l),
(482,697,l),
(482,266,ls),
(482,149,o),
(443,106,o),
(340,106,cs),
(237,106,o),
(199,148,o),
(199,266,cs),
(199,682,ls),
(199,690,o),
(192,697,o),
(184,697,cs),
(74,697,l),
(74,252,ls),
(74,74,o),
(165,-15,o),
(340,-15,cs)
);
}
);
width = 681;
}
);
note = U;
unicode = 85;
},
{
glyphname = Uacute;
kernLeft = U;
kernRight = J;
layers = (
{
hints = (
{
horizontal = 1;
place = (-15, 121);
place = (-15, 121);
type = Stem;
},
{
horizontal = 1;
place = (697, -20);
target = down;
type = TopGhost;
},
{
horizontal = 1;
place = (759, 142);
place = (759, 142);
type = Stem;
},
{
place = (74, 125);
place = (74, 125);
type = Stem;
},
{
place = (482, 125);
place = (482, 125);
type = Stem;
}
);
layerId = m01;
shapes = (
{
closed = 1;
nodes = (
(297,759,l),
(385,759,l),
(537,901,l),
(408,901,l)
);
},
{
closed = 1;
nodes = (
(516,-15,o),
(607,76,o),
(607,257,cs),
(607,697,l),
(482,697,l),
(482,266,ls),
(482,149,o),
(443,106,o),
(340,106,cs),
(237,106,o),
(199,148,o),
(199,266,cs),
(199,697,l),
(74,697,l),
(74,252,ls),
(74,74,o),
(165,-15,o),
(340,-15,cs)
);
}
);
width = 681;
}
);
note = Uacute;
unicode = 218;
},
{
glyphname = uni01D3;
kernLeft = U;
kernRight = J;
layers = (
{
hints = (
{
horizontal = 1;
place = (-15, 121);
place = (-15, 121);
type = Stem;
},
{
horizontal = 1;
place = (697, -20);
target = down;
type = TopGhost;
},
{
place = (74, 125);
place = (74, 125);
type = Stem;
},
{
place = (482, 125);
place = (482, 125);
type = Stem;
}
);
layerId = m01;
shapes = (
{
closed = 1;
nodes = (
(341,737,l),
(497,901,l),
(404,901,l),
(341,834,l),
(278,901,l),
(185,901,l)
);
},
{
closed = 1;
nodes = (
(516,-15,o),
(607,76,o),
(607,257,cs),
(607,697,l),
(482,697,l),
(482,266,ls),
(482,149,o),
(443,106,o),
(340,106,cs),
(237,106,o),
(199,148,o),
(199,266,cs),
(199,697,l),
(74,697,l),
(74,252,ls),
(74,74,o),
(165,-15,o),
(340,-15,cs)
);
}
);
width = 681;
}
);
note = uni01D3;
unicode = 467;
},
{
glyphname = Ucircumflex;
kernLeft = U;
kernRight = J;
layers = (
{
hints = (
{
horizontal = 1;
place = (-15, 121);
place = (-15, 121);
type = Stem;
},
{
horizontal = 1;
place = (697, -20);
target = down;
type = TopGhost;
},
{
place = (74, 125);
place = (74, 125);
type = Stem;
},
{
place = (482, 125);
place = (482, 125);
type = Stem;
}
);
layerId = m01;
shapes = (
{
closed = 1;
nodes = (
(185,745,l),
(278,745,l),
(341,817,l),
(404,745,l),
(497,745,l),
(341,919,l)
);
},
{
closed = 1;
nodes = (
(516,-15,o),
(607,76,o),
(607,257,cs),
(607,697,l),
(482,697,l),
(482,266,ls),
(482,149,o),
(443,106,o),
(340,106,cs),
(237,106,o),
(199,148,o),
(199,266,cs),
(199,697,l),
(74,697,l),
(74,252,ls),
(74,74,o),
(165,-15,o),
(340,-15,cs)
);
}
);
width = 681;
}
);
note = Ucircumflex;
unicode = 219;
},
{
glyphname = Udieresis;
kernLeft = U;
kernRight = J;
layers = (
{
hints = (
{
horizontal = 1;
place = (-15, 121);
place = (-15, 121);
type = Stem;
},
{
horizontal = 1;
place = (697, -20);
target = down;
type = TopGhost;
},
{
horizontal = 1;
place = (790, 111);
place = (790, 111);
type = Stem;
},
{
place = (193, 101);
place = (193, 101);
type = Stem;
},
{
place = (388, 101);
place = (388, 101);
type = Stem;
},
{
place = (74, 125);
place = (74, 125);
type = Stem;
},
{
place = (482, 125);
place = (482, 125);
type = Stem;
}
);
layerId = m01;
shapes = (
{
closed = 1;
nodes = (
(193,790,l),
(294,790,l),
(294,901,l),
(193,901,l)
);
},
{
closed = 1;
nodes = (
(388,790,l),
(489,790,l),
(489,901,l),
(388,901,l)
);
},
{
closed = 1;
nodes = (
(516,-15,o),
(607,76,o),
(607,257,cs),
(607,697,l),
(482,697,l),
(482,266,ls),
(482,149,o),
(443,106,o),
(340,106,cs),
(237,106,o),
(199,148,o),
(199,266,cs),
(199,697,l),
(74,697,l),
(74,252,ls),
(74,74,o),
(165,-15,o),
(340,-15,cs)
);
}
);
width = 681;
}
);
note = Udieresis;
unicode = 220;
},
{
glyphname = uni01D7;
kernLeft = U;
kernRight = J;
layers = (
{
hints = (
{
horizontal = 1;
place = (-15, 121);
place = (-15, 121);
type = Stem;
},
{
horizontal = 1;
place = (697, -20);
target = down;
type = TopGhost;
},
{
horizontal = 1;
place = (790, 111);
place = (790, 111);
type = Stem;
},
{
horizontal = 1;
place = (963, 142);
place = (963, 142);
type = Stem;
},
{
place = (74, 125);
place = (74, 125);
type = Stem;
},
{
place = (482, 125);
place = (482, 125);
type = Stem;
},
{
place = (193, 101);
place = (193, 101);
type = Stem;
},
{
place = (388, 101);
place = (388, 101);
type = Stem;
}
);
layerId = m01;
shapes = (
{
closed = 1;
nodes = (
(297,963,l),
(385,963,l),
(537,1105,l),
(408,1105,l)
);
},
{
closed = 1;
nodes = (
(193,790,l),
(294,790,l),
(294,901,l),
(193,901,l)
);
},
{
closed = 1;
nodes = (
(388,790,l),
(489,790,l),
(489,901,l),
(388,901,l)
);
},
{
closed = 1;
nodes = (
(516,-15,o),
(607,76,o),
(607,257,cs),
(607,697,l),
(482,697,l),
(482,266,ls),
(482,149,o),
(443,106,o),
(340,106,cs),
(237,106,o),
(199,148,o),
(199,266,cs),
(199,697,l),
(74,697,l),
(74,252,ls),
(74,74,o),
(165,-15,o),
(340,-15,cs)
);
}
);
width = 681;
}
);
note = uni01D7;
unicode = 471;
},
{
glyphname = uni01D9;
kernLeft = U;
kernRight = J;
layers = (
{
hints = (
{
horizontal = 1;
place = (-15, 121);
place = (-15, 121);
type = Stem;
},
{
horizontal = 1;
place = (697, -20);
target = down;
type = TopGhost;
},
{
horizontal = 1;
place = (790, 111);
place = (790, 111);
type = Stem;
},
{
place = (74, 125);
place = (74, 125);
type = Stem;
},
{
place = (482, 125);
place = (482, 125);
type = Stem;
},
{
place = (193, 101);
place = (193, 101);
type = Stem;
},
{
place = (388, 101);
place = (388, 101);
type = Stem;
}
);
layerId = m01;
shapes = (
{
closed = 1;
nodes = (
(341,941,l),
(497,1105,l),
(404,1105,l),
(341,1038,l),
(278,1105,l),
(185,1105,l)
);
},
{
closed = 1;
nodes = (
(193,790,l),
(294,790,l),
(294,901,l),
(193,901,l)
);
},
{
closed = 1;
nodes = (
(388,790,l),
(489,790,l),
(489,901,l),
(388,901,l)
);
},
{
closed = 1;
nodes = (
(516,-15,o),
(607,76,o),
(607,257,cs),
(607,697,l),
(482,697,l),
(482,266,ls),
(482,149,o),
(443,106,o),
(340,106,cs),
(237,106,o),
(199,148,o),
(199,266,cs),
(199,697,l),
(74,697,l),
(74,252,ls),
(74,74,o),
(165,-15,o),
(340,-15,cs)
);
}
);
width = 681;
}
);
note = uni01D9;
unicode = 473;
},
{
glyphname = uni01DB;
kernLeft = U;
kernRight = J;
layers = (
{
hints = (
{
horizontal = 1;
place = (-15, 121);
place = (-15, 121);
type = Stem;
},
{
horizontal = 1;
place = (697, -20);
target = down;
type = TopGhost;
},
{
horizontal = 1;
place = (790, 111);
place = (790, 111);
type = Stem;
},
{
horizontal = 1;
place = (963, 142);
place = (963, 142);
type = Stem;
},
{
place = (74, 125);
place = (74, 125);
type = Stem;
},
{
place = (482, 125);
place = (482, 125);
type = Stem;
},
{
place = (193, 101);
place = (193, 101);
type = Stem;
},
{
place = (388, 101);
place = (388, 101);
type = Stem;
}
);
layerId = m01;
shapes = (
{
closed = 1;
nodes = (
(296,963,l),
(386,963,l),
(282,1105,l),
(154,1105,l)
);
},
{
closed = 1;
nodes = (
(193,790,l),
(294,790,l),
(294,901,l),
(193,901,l)
);
},
{
closed = 1;
nodes = (
(388,790,l),
(489,790,l),
(489,901,l),
(388,901,l)
);
},
{
closed = 1;
nodes = (
(516,-15,o),
(607,76,o),
(607,257,cs),
(607,697,l),
(482,697,l),
(482,266,ls),
(482,149,o),
(443,106,o),
(340,106,cs),
(237,106,o),
(199,148,o),
(199,266,cs),
(199,697,l),
(74,697,l),
(74,252,ls),
(74,74,o),
(165,-15,o),
(340,-15,cs)
);
}
);
width = 681;
}
);
note = uni01DB;
unicode = 475;
},
{
glyphname = uni01D5;
kernLeft = U;
kernRight = J;
layers = (
{
hints = (
{
horizontal = 1;
place = (-15, 121);
place = (-15, 121);
type = Stem;
},
{
horizontal = 1;
place = (697, -20);
target = down;
type = TopGhost;
},
{
horizontal = 1;
place = (790, 111);
place = (790, 111);
type = Stem;
},
{
horizontal = 1;
place = (974, 70);
place = (974, 70);
type = Stem;
},
{
place = (74, 125);
place = (74, 125);
type = Stem;
},
{
place = (482, 125);
place = (482, 125);
type = Stem;
},
{
place = (193, 101);
place = (193, 101);
type = Stem;
},
{
place = (388, 90);
place = (388, 90);
type = Stem;
},
{
place = (388, 101);
place = (388, 101);
type = Stem;
}
);
layerId = m01;
shapes = (
{
closed = 1;
nodes = (
(203,974,l),
(478,974,l),
(478,1044,l),
(203,1044,l)
);
},
{
closed = 1;
nodes = (
(193,790,l),
(294,790,l),
(294,901,l),
(193,901,l)
);
},
{
closed = 1;
nodes = (
(388,790,l),
(489,790,l),
(489,901,l),
(388,901,l)
);
},
{
closed = 1;
nodes = (
(516,-15,o),
(607,76,o),
(607,257,cs),
(607,697,l),
(482,697,l),
(482,266,ls),
(482,149,o),
(443,106,o),
(340,106,cs),
(237,106,o),
(199,148,o),
(199,266,cs),
(199,697,l),
(74,697,l),
(74,252,ls),
(74,74,o),
(165,-15,o),
(340,-15,cs)
);
}
);
width = 681;
}
);
note = uni01D5;
unicode = 469;
},
{
glyphname = uni1EE4;
kernLeft = U;
kernRight = J;
layers = (
{
hints = (
{
horizontal = 1;
place = (-173, 111);
place = (-173, 111);
type = Stem;
},
{
horizontal = 1;
place = (-15, 121);
place = (-15, 121);
type = Stem;
},
{
horizontal = 1;
place = (697, -20);
target = down;
type = TopGhost;
},
{
place = (74, 125);
place = (74, 125);
type = Stem;
},
{
place = (278, 126);
place = (278, 126);
type = Stem;
},
{
place = (482, 125);
place = (482, 125);
type = Stem;
}
);
layerId = m01;
shapes = (
{
closed = 1;
nodes = (
(516,-15,o),
(607,76,o),
(607,257,cs),
(607,697,l),
(482,697,l),
(482,266,ls),
(482,149,o),
(443,106,o),
(340,106,cs),
(237,106,o),
(199,148,o),
(199,266,cs),
(199,697,l),
(74,697,l),
(74,252,ls),
(74,74,o),
(165,-15,o),
(340,-15,cs)
);
},
{
closed = 1;
nodes = (
(278,-173,l),
(404,-173,l),
(404,-62,l),
(278,-62,l)
);
}
);
width = 681;
}
);
note = uni1EE4;
unicode = 7908;
},
{
glyphname = Ugrave;
kernLeft = U;
kernRight = J;
layers = (
{
hints = (
{
horizontal = 1;
place = (-15, 121);
place = (-15, 121);
type = Stem;
},
{
horizontal = 1;
place = (697, -20);
target = down;
type = TopGhost;
},
{
horizontal = 1;
place = (759, 142);
place = (759, 142);
type = Stem;
},
{
place = (74, 125);
place = (74, 125);
type = Stem;
},
{
place = (482, 125);
place = (482, 125);
type = Stem;
}
);
layerId = m01;
shapes = (
{
closed = 1;
nodes = (
(296,759,l),
(386,759,l),
(282,901,l),
(154,901,l)
);
},
{
closed = 1;
nodes = (
(516,-15,o),
(607,76,o),
(607,257,cs),
(607,697,l),
(482,697,l),
(482,266,ls),
(482,149,o),
(443,106,o),
(340,106,cs),
(237,106,o),
(199,148,o),
(199,266,cs),
(199,697,l),
(74,697,l),
(74,252,ls),
(74,74,o),
(165,-15,o),
(340,-15,cs)
);
}
);
width = 681;
}
);
note = Ugrave;
unicode = 217;
},
{
glyphname = uni1EE6;
kernLeft = U;
kernRight = J;
layers = (
{
hints = (
{
horizontal = 1;
place = (-15, 121);
place = (-15, 121);
type = Stem;
},
{
horizontal = 1;
place = (697, -20);
target = down;
type = TopGhost;
},
{
horizontal = 1;
place = (856, 66);
place = (856, 66);
type = Stem;
},
{
place = (74, 125);
place = (74, 125);
type = Stem;
},
{
place = (482, 125);
place = (482, 125);
type = Stem;
},
{
place = (378, 76);
place = (378, 76);
type = Stem;
}
);
layerId = m01;
shapes = (
{
closed = 1;
nodes = (
(331,736,l),
(382,744,o),
(454,756,o),
(454,825,cs),
(454,888,o),
(393,922,o),
(304,922,cs),
(289,922,l),
(289,856,l),
(304,856,ls),
(340,856,o),
(378,856,o),
(378,823,cs),
(378,793,o),
(347,789,o),
(317,785,c)
);
},
{
closed = 1;
nodes = (
(516,-15,o),
(607,76,o),
(607,257,cs),
(607,697,l),
(482,697,l),
(482,266,ls),
(482,149,o),
(443,106,o),
(340,106,cs),
(237,106,o),
(199,148,o),
(199,266,cs),
(199,697,l),
(74,697,l),
(74,252,ls),
(74,74,o),
(165,-15,o),
(340,-15,cs)
);
}
);
width = 681;
}
);
note = uni1EE6;
unicode = 7910;
},
{
glyphname = Uhorn;
kernLeft = U;
kernRight = J;
layers = (
{
hints = (
{
horizontal = 1;
place = (-15, 121);
place = (-15, 121);
type = Stem;
},
{
horizontal = 1;
place = (697, -20);
target = down;
type = TopGhost;
},
{
place = (74, 125);
place = (74, 125);
type = Stem;
},
{
place = (482, 125);
place = (482, 125);
type = Stem;
},
{
place = (663, 91);
place = (663, 91);
type = Stem;
}
);
layerId = m01;
shapes = (
{
closed = 1;
nodes = (
(663,697,l),
(663,648,ls),
(663,619,o),
(653,577,o),
(607,572,c),
(607,697,l),
(482,697,l),
(482,266,ls),
(482,149,o),
(443,106,o),
(340,106,cs),
(237,106,o),
(199,148,o),
(199,266,cs),
(199,697,l),
(74,697,l),
(74,252,ls),
(74,74,o),
(165,-15,o),
(340,-15,cs),
(516,-15,o),
(607,76,o),
(607,257,cs),
(607,493,l),
(712,497,o),
(754,570,o),
(754,658,cs),
(754,697,l)
);
}
);
width = 681;
}
);
note = Uhorn;
unicode = 431;
},
{
glyphname = uni1EE8;
kernLeft = U;
kernRight = J;
layers = (
{
hints = (
{
horizontal = 1;
place = (-15, 121);
place = (-15, 121);
type = Stem;
},
{
horizontal = 1;
place = (697, -20);
target = down;
type = TopGhost;
},
{
horizontal = 1;
place = (759, 142);
place = (759, 142);
type = Stem;
},
{
place = (74, 125);
place = (74, 125);
type = Stem;
},
{
place = (482, 125);
place = (482, 125);
type = Stem;
},
{
place = (663, 91);
place = (663, 91);
type = Stem;
}
);
layerId = m01;
shapes = (
{
closed = 1;
nodes = (
(537,901,l),
(408,901,l),
(297,759,l),
(385,759,l)
);
},
{
closed = 1;
nodes = (
(663,697,l),
(663,648,ls),
(663,619,o),
(653,577,o),
(607,572,c),
(607,697,l),
(482,697,l),
(482,266,ls),
(482,149,o),
(443,106,o),
(340,106,cs),
(237,106,o),
(199,148,o),
(199,266,cs),
(199,697,l),
(74,697,l),
(74,252,ls),
(74,74,o),
(165,-15,o),
(340,-15,cs),
(516,-15,o),
(607,76,o),
(607,257,cs),
(607,493,l),
(712,497,o),
(754,570,o),
(754,658,cs),
(754,697,l)
);
}
);
width = 681;
}
);
note = uni1EE8;
unicode = 7912;
},
{
glyphname = uni1EF0;
kernLeft = U;
kernRight = J;
layers = (
{
hints = (
{
horizontal = 1;
place = (-173, 111);
place = (-173, 111);
type = Stem;
},
{
horizontal = 1;
place = (-15, 121);
place = (-15, 121);
type = Stem;
},
{
horizontal = 1;
place = (697, -20);
target = down;
type = TopGhost;
},
{
place = (74, 125);
place = (74, 125);
type = Stem;
},
{
place = (278, 126);
place = (278, 126);
type = Stem;
},
{
place = (482, 125);
place = (482, 125);
type = Stem;
},
{
place = (663, 91);
place = (663, 91);
type = Stem;
}
);
layerId = m01;
shapes = (
{
closed = 1;
nodes = (
(663,697,l),
(663,648,ls),
(663,619,o),
(653,577,o),
(607,572,c),
(607,697,l),
(482,697,l),
(482,266,ls),
(482,149,o),
(443,106,o),
(340,106,cs),
(237,106,o),
(199,148,o),
(199,266,cs),
(199,697,l),
(74,697,l),
(74,252,ls),
(74,74,o),
(165,-15,o),
(340,-15,cs),
(516,-15,o),
(607,76,o),
(607,257,cs),
(607,493,l),
(712,497,o),
(754,570,o),
(754,658,cs),
(754,697,l)
);
},
{
closed = 1;
nodes = (
(278,-173,l),
(404,-173,l),
(404,-62,l),
(278,-62,l)
);
}
);
width = 681;
}
);
note = uni1EF0;
unicode = 7920;
},
{
glyphname = uni1EEA;
kernLeft = U;
kernRight = J;
layers = (
{
hints = (
{
horizontal = 1;
place = (-15, 121);
place = (-15, 121);
type = Stem;
},
{
horizontal = 1;
place = (697, -20);
target = down;
type = TopGhost;
},
{
horizontal = 1;
place = (759, 142);
place = (759, 142);
type = Stem;
},
{
place = (74, 125);
place = (74, 125);
type = Stem;
},
{
place = (482, 125);
place = (482, 125);
type = Stem;
},
{
place = (663, 91);
place = (663, 91);
type = Stem;
}
);
layerId = m01;
shapes = (
{
closed = 1;
nodes = (
(386,759,l),
(282,901,l),
(154,901,l),
(296,759,l)
);
},
{
closed = 1;
nodes = (
(663,697,l),
(663,648,ls),
(663,619,o),
(653,577,o),
(607,572,c),
(607,697,l),
(482,697,l),
(482,266,ls),
(482,149,o),
(443,106,o),
(340,106,cs),
(237,106,o),
(199,148,o),
(199,266,cs),
(199,697,l),
(74,697,l),
(74,252,ls),
(74,74,o),
(165,-15,o),
(340,-15,cs),
(516,-15,o),
(607,76,o),
(607,257,cs),
(607,493,l),
(712,497,o),
(754,570,o),
(754,658,cs),
(754,697,l)
);
}
);
width = 681;
}
);
note = uni1EEA;
unicode = 7914;
},
{
glyphname = uni1EEC;
kernLeft = U;
kernRight = J;
layers = (
{
hints = (
{
horizontal = 1;
place = (-15, 121);
place = (-15, 121);
type = Stem;
},
{
horizontal = 1;
place = (697, -20);
target = down;
type = TopGhost;
},
{
horizontal = 1;
place = (856, 66);
place = (856, 66);
type = Stem;
},
{
place = (74, 125);
place = (74, 125);
type = Stem;
},
{
place = (378, 76);
place = (378, 76);
type = Stem;
},
{
place = (482, 125);
place = (482, 125);
type = Stem;
},
{
place = (663, 91);
place = (663, 91);
type = Stem;
}
);
layerId = m01;
shapes = (
{
closed = 1;
nodes = (
(378,793,o),
(347,789,o),
(317,785,c),
(331,736,l),
(382,744,o),
(454,756,o),
(454,825,cs),
(454,888,o),
(393,922,o),
(304,922,cs),
(289,922,l),
(289,856,l),
(304,856,ls),
(340,856,o),
(378,856,o),
(378,823,cs)
);
},
{
closed = 1;
nodes = (
(663,697,l),
(663,648,ls),
(663,619,o),
(653,577,o),
(607,572,c),
(607,697,l),
(482,697,l),
(482,266,ls),
(482,149,o),
(443,106,o),
(340,106,cs),
(237,106,o),
(199,148,o),
(199,266,cs),
(199,697,l),
(74,697,l),
(74,252,ls),
(74,74,o),
(165,-15,o),
(340,-15,cs),
(516,-15,o),
(607,76,o),
(607,257,cs),
(607,493,l),
(712,497,o),
(754,570,o),
(754,658,cs),
(754,697,l)
);
}
);
width = 681;
}
);
note = uni1EEC;
unicode = 7916;
},
{
glyphname = uni1EEE;
kernLeft = U;
kernRight = J;
layers = (
{
hints = (
{
horizontal = 1;
place = (-15, 121);
place = (-15, 121);
type = Stem;
},
{
horizontal = 1;
place = (697, -20);
target = down;
type = TopGhost;
},
{
horizontal = 1;
place = (830, 74);
place = (830, 74);
type = Stem;
},
{
place = (174, 69);
place = (174, 69);
type = Stem;
},
{
place = (482, 125);
place = (482, 125);
type = Stem;
},
{
place = (663, 91);
place = (663, 91);
type = Stem;
},
{
horizontal = 1;
place = (760, 74);
place = (760, 74);
type = Stem;
},
{
place = (74, 125);
place = (74, 125);
type = Stem;
},
{
place = (435, 72);
place = (435, 72);
type = Stem;
},
{
place = (174, 25);
place = (174, 25);
type = Stem;
}
);
layerId = m01;
shapes = (
{
closed = 1;
nodes = (
(312,830,o),
(326,760,o),
(404,760,cs),
(467,760,o),
(507,810,o),
(507,901,c),
(435,901,l),
(435,858,o),
(422,834,o),
(405,834,cs),
(370,834,o),
(349,904,o),
(280,904,cs),
(215,904,o),
(174,853,o),
(174,763,c),
(243,763,l),
(243,806,o),
(255,830,o),
(275,830,cs)
);
},
{
closed = 1;
nodes = (
(663,697,l),
(663,648,ls),
(663,619,o),
(653,577,o),
(607,572,c),
(607,697,l),
(482,697,l),
(482,266,ls),
(482,149,o),
(443,106,o),
(340,106,cs),
(237,106,o),
(199,148,o),
(199,266,cs),
(199,697,l),
(74,697,l),
(74,252,ls),
(74,74,o),
(165,-15,o),
(340,-15,cs),
(516,-15,o),
(607,76,o),
(607,257,cs),
(607,493,l),
(712,497,o),
(754,570,o),
(754,658,cs),
(754,697,l)
);
}
);
width = 681;
}
);
note = uni1EEE;
unicode = 7918;
},
{
glyphname = Uhungarumlaut;
kernLeft = U;
kernRight = J;
layers = (
{
hints = (
{
horizontal = 1;
place = (-15, 121);
place = (-15, 121);
type = Stem;
},
{
horizontal = 1;
place = (697, -20);
target = down;
type = TopGhost;
},
{
horizontal = 1;
place = (738, 163);
place = (738, 163);
type = Stem;
},
{
place = (74, 125);
place = (74, 125);
type = Stem;
},
{
place = (482, 125);
place = (482, 125);
type = Stem;
}
);
layerId = m01;
shapes = (
{
closed = 1;
nodes = (
(201,738,l),
(289,738,l),
(420,901,l),
(312,901,l)
);
},
{
closed = 1;
nodes = (
(393,738,l),
(481,738,l),
(632,901,l),
(504,901,l)
);
},
{
closed = 1;
nodes = (
(516,-15,o),
(607,76,o),
(607,257,cs),
(607,697,l),
(482,697,l),
(482,266,ls),
(482,149,o),
(443,106,o),
(340,106,cs),
(237,106,o),
(199,148,o),
(199,266,cs),
(199,697,l),
(74,697,l),
(74,252,ls),
(74,74,o),
(165,-15,o),
(340,-15,cs)
);
}
);
width = 681;
}
);
note = Uhungarumlaut;
unicode = 368;
},
{
glyphname = Umacron;
kernLeft = U;
kernRight = J;
layers = (
{
hints = (
{
horizontal = 1;
place = (-15, 121);
place = (-15, 121);
type = Stem;
},
{
horizontal = 1;
place = (697, -20);
target = down;
type = TopGhost;
},
{
horizontal = 1;
place = (770, 70);
place = (770, 70);
type = Stem;
},
{
place = (203, 275);
place = (203, 275);
type = Stem;
},
{
place = (74, 125);
place = (74, 125);
type = Stem;
},
{
place = (482, 125);
place = (482, 125);
type = Stem;
}
);
layerId = m01;
shapes = (
{
closed = 1;
nodes = (
(203,770,l),
(478,770,l),
(478,840,l),
(203,840,l)
);
},
{
closed = 1;
nodes = (
(516,-15,o),
(607,76,o),
(607,257,cs),
(607,697,l),
(482,697,l),
(482,266,ls),
(482,149,o),
(443,106,o),
(340,106,cs),
(237,106,o),
(199,148,o),
(199,266,cs),
(199,697,l),
(74,697,l),
(74,252,ls),
(74,74,o),
(165,-15,o),
(340,-15,cs)
);
}
);
width = 681;
}
);
note = Umacron;
unicode = 362;
},
{
glyphname = Uogonek;
kernLeft = U;
kernRight = J;
layers = (
{
hints = (
{
horizontal = 1;
place = (-222, 74);
place = (-222, 74);
type = Stem;
},
{
horizontal = 1;
place = (-14, 120);
place = (-14, 120);
type = Stem;
},
{
horizontal = 1;
place = (697, -20);
target = down;
type = TopGhost;
},
{
place = (74, 125);
place = (74, 125);
type = Stem;
},
{
place = (252, 72);
place = (252, 72);
type = Stem;
},
{
place = (482, 125);
place = (482, 125);
type = Stem;
}
);
layerId = m01;
shapes = (
{
closed = 1;
nodes = (
(482,697,l),
(482,266,ls),
(482,149,o),
(443,106,o),
(340,106,cs),
(237,106,o),
(199,148,o),
(199,266,cs),
(199,697,l),
(74,697,l),
(74,252,ls),
(74,84,o),
(155,-5,o),
(311,-14,c),
(282,-36,o),
(252,-71,o),
(252,-121,cs),
(252,-182,o),
(300,-222,o),
(364,-222,cs),
(414,-222,o),
(448,-197,o),
(472,-162,c),
(411,-120,l),
(398,-138,o),
(382,-148,o),
(361,-148,cs),
(341,-148,o),
(324,-139,o),
(324,-109,cs),
(324,-58,o),
(372,-26,o),
(403,-11,c),
(538,10,o),
(607,99,o),
(607,257,cs),
(607,697,l)
);
}
);
width = 681;
}
);
note = Uogonek;
unicode = 370;
},
{
glyphname = Uring;
kernLeft = U;
kernRight = J;
layers = (
{
hints = (
{
horizontal = 1;
place = (-15, 121);
place = (-15, 121);
type = Stem;
},
{
horizontal = 1;
place = (677, 20);
place = (677, 20);
type = Stem;
},
{
horizontal = 1;
place = (840, 65);
place = (840, 65);
type = Stem;
},
{
place = (74, 125);
place = (74, 125);
type = Stem;
},
{
place = (227, 65);
place = (227, 65);
type = Stem;
},
{
place = (390, 65);
place = (390, 65);
type = Stem;
},
{
place = (482, 125);
place = (482, 125);
type = Stem;
},
{
horizontal = 1;
place = (677, 65);
place = (677, 65);
type = Stem;
}
);
layerId = m01;
shapes = (
{
closed = 1;
nodes = (
(404,677,o),
(455,728,o),
(455,791,cs),
(455,855,o),
(402,905,o),
(341,905,cs),
(278,905,o),
(227,854,o),
(227,791,cs),
(227,730,o),
(277,677,o),
(341,677,cs)
);
},
{
closed = 1;
nodes = (
(313,742,o),
(292,763,o),
(292,792,cs),
(292,820,o),
(311,840,o),
(341,840,cs),
(372,840,o),
(390,820,o),
(390,792,cs),
(390,763,o),
(370,742,o),
(341,742,cs)
);
},
{
closed = 1;
nodes = (
(516,-15,o),
(607,76,o),
(607,257,cs),
(607,697,l),
(482,697,l),
(482,266,ls),
(482,149,o),
(443,106,o),
(340,106,cs),
(237,106,o),
(199,148,o),
(199,266,cs),
(199,697,l),
(74,697,l),
(74,252,ls),
(74,74,o),
(165,-15,o),
(340,-15,cs)
);
}
);
width = 681;
}
);
note = Uring;
unicode = 366;
},
{
glyphname = Utilde;
kernLeft = U;
kernRight = J;
layers = (
{
hints = (
{
horizontal = 1;
place = (-15, 121);
place = (-15, 121);
type = Stem;
},
{
horizontal = 1;
place = (697, -20);
target = down;
type = TopGhost;
},
{
horizontal = 1;
place = (760, 74);
place = (760, 74);
type = Stem;
},
{
place = (74, 125);
place = (74, 125);
type = Stem;
},
{
place = (435, 72);
place = (435, 72);
type = Stem;
},
{
horizontal = 1;
place = (830, 74);
place = (830, 74);
type = Stem;
},
{
place = (174, 25);
place = (174, 25);
type = Stem;
},
{
place = (482, 125);
place = (482, 125);
type = Stem;
},
{
place = (174, 69);
place = (174, 69);
type = Stem;
}
);
layerId = m01;
shapes = (
{
closed = 1;
nodes = (
(467,760,o),
(507,810,o),
(507,901,c),
(435,901,l),
(435,858,o),
(422,834,o),
(405,834,cs),
(370,834,o),
(349,904,o),
(280,904,cs),
(215,904,o),
(174,853,o),
(174,763,c),
(243,763,l),
(243,806,o),
(255,830,o),
(275,830,cs),
(312,830,o),
(326,760,o),
(404,760,cs)
);
},
{
closed = 1;
nodes = (
(516,-15,o),
(607,76,o),
(607,257,cs),
(607,697,l),
(482,697,l),
(482,266,ls),
(482,149,o),
(443,106,o),
(340,106,cs),
(237,106,o),
(199,148,o),
(199,266,cs),
(199,697,l),
(74,697,l),
(74,252,ls),
(74,74,o),
(165,-15,o),
(340,-15,cs)
);
}
);
width = 681;
}
);
note = Utilde;
unicode = 360;
},
{
glyphname = V;
kernLeft = V;
kernRight = V;
lastChange = "2022-12-21 16:14:08 +0000";
layers = (
{
hints = (
{
horizontal = 1;
place = (0, 21);
target = up;
type = BottomGhost;
},
{
horizontal = 1;
place = (697, -20);
target = down;
type = TopGhost;
},
{
place = (4, 651);
place = (4, 651);
type = Stem;
}
);
layerId = m01;
shapes = (
{
closed = 1;
nodes = (
(516,697,o),
(506,669,qs),
(330,204,l),
(142,697,l),
(4,697,l),
(283,0,l),
(377,0,l),
(655,697,l),
(547,697,ls)
);
}
);
width = 659;
}
);
note = V;
unicode = 86;
},
{
glyphname = W;
kernLeft = W;
kernRight = W;
lastChange = "2022-12-21 16:14:33 +0000";
layers = (
{
hints = (
{
horizontal = 1;
place = (0, 21);
target = up;
type = BottomGhost;
},
{
horizontal = 1;
place = (697, -20);
target = down;
type = TopGhost;
},
{
place = (11, 964);
place = (11, 964);
type = Stem;
},
{
horizontal = 1;
place = (0, 191);
place = (0, 191);
type = Stem;
}
);
layerId = m01;
shapes = (
{
closed = 1;
nodes = (
(845,697,o),
(836,668,qs),
(698,191,l),
(546,657,l),
(469,657,ls),
(439,657,o),
(430,628,qs),
(288,191,l),
(141,697,l),
(11,697,l),
(220,0,l),
(341,0,l),
(493,459,l),
(644,0,l),
(766,0,l),
(975,697,l),
(874,697,ls)
);
}
);
width = 986;
}
);
note = W;
unicode = 87;
},
{
glyphname = Wacute;
kernLeft = W;
kernRight = W;
layers = (
{
hints = (
{
horizontal = 1;
place = (0, 21);
target = up;
type = BottomGhost;
},
{
horizontal = 1;
place = (697, -20);
target = down;
type = TopGhost;
},
{
horizontal = 1;
place = (759, 142);
place = (759, 142);
type = Stem;
},
{
place = (11, 964);
place = (11, 964);
type = Stem;
},
{
horizontal = 1;
place = (0, 191);
place = (0, 191);
type = Stem;
}
);
layerId = m01;
shapes = (
{
closed = 1;
nodes = (
(449,759,l),
(537,759,l),
(689,901,l),
(560,901,l)
);
},
{
closed = 1;
nodes = (
(220,0,l),
(341,0,l),
(493,459,l),
(644,0,l),
(766,0,l),
(975,697,l),
(844,697,l),
(698,191,l),
(546,657,l),
(439,657,l),
(288,191,l),
(141,697,l),
(11,697,l)
);
}
);
width = 986;
}
);
note = Wacute;
unicode = 7810;
},
{
glyphname = Wcircumflex;
kernLeft = W;
kernRight = W;
layers = (
{
hints = (
{
horizontal = 1;
place = (0, 21);
target = up;
type = BottomGhost;
},
{
horizontal = 1;
place = (697, -20);
target = down;
type = TopGhost;
},
{
place = (11, 964);
place = (11, 964);
type = Stem;
},
{
horizontal = 1;
place = (0, 191);
place = (0, 191);
type = Stem;
}
);
layerId = m01;
shapes = (
{
closed = 1;
nodes = (
(337,745,l),
(430,745,l),
(493,817,l),
(556,745,l),
(649,745,l),
(493,919,l)
);
},
{
closed = 1;
nodes = (
(220,0,l),
(341,0,l),
(493,459,l),
(644,0,l),
(766,0,l),
(975,697,l),
(844,697,l),
(698,191,l),
(546,657,l),
(439,657,l),
(288,191,l),
(141,697,l),
(11,697,l)
);
}
);
width = 986;
}
);
note = Wcircumflex;
unicode = 372;
},
{
glyphname = Wdieresis;
kernLeft = W;
kernRight = W;
layers = (
{
hints = (
{
horizontal = 1;
place = (0, 21);
target = up;
type = BottomGhost;
},
{
horizontal = 1;
place = (697, -20);
target = down;
type = TopGhost;
},
{
horizontal = 1;
place = (790, 111);
place = (790, 111);
type = Stem;
},
{
place = (345, 101);
place = (345, 101);
type = Stem;
},
{
place = (540, 101);
place = (540, 101);
type = Stem;
},
{
horizontal = 1;
place = (0, 191);
place = (0, 191);
type = Stem;
}
);
layerId = m01;
shapes = (
{
closed = 1;
nodes = (
(345,790,l),
(446,790,l),
(446,901,l),
(345,901,l)
);
},
{
closed = 1;
nodes = (
(540,790,l),
(641,790,l),
(641,901,l),
(540,901,l)
);
},
{
closed = 1;
nodes = (
(220,0,l),
(341,0,l),
(493,459,l),
(644,0,l),
(766,0,l),
(975,697,l),
(844,697,l),
(698,191,l),
(546,657,l),
(439,657,l),
(288,191,l),
(141,697,l),
(11,697,l)
);
}
);
width = 986;
}
);
note = Wdieresis;
unicode = 7812;
},
{
glyphname = Wgrave;
kernLeft = W;
kernRight = W;
layers = (
{
hints = (
{
horizontal = 1;
place = (0, 21);
target = up;
type = BottomGhost;
},
{
horizontal = 1;
place = (697, -20);
target = down;
type = TopGhost;
},
{
horizontal = 1;
place = (759, 142);
place = (759, 142);
type = Stem;
},
{
place = (11, 964);
place = (11, 964);
type = Stem;
},
{
horizontal = 1;
place = (0, 191);
place = (0, 191);
type = Stem;
}
);
layerId = m01;
shapes = (
{
closed = 1;
nodes = (
(448,759,l),
(538,759,l),
(434,901,l),
(306,901,l)
);
},
{
closed = 1;
nodes = (
(220,0,l),
(341,0,l),
(493,459,l),
(644,0,l),
(766,0,l),
(975,697,l),
(844,697,l),
(698,191,l),
(546,657,l),
(439,657,l),
(288,191,l),
(141,697,l),
(11,697,l)
);
}
);
width = 986;
}
);
note = Wgrave;
unicode = 7808;
},
{
glyphname = X;
kernLeft = X;
kernRight = X;
lastChange = "2022-12-21 16:14:47 +0000";
layers = (
{
hints = (
{
horizontal = 1;
place = (0, 21);
target = up;
type = BottomGhost;
},
{
horizontal = 1;
place = (697, -20);
target = down;
type = TopGhost;
},
{
place = (11, 639);
place = (11, 639);
type = Stem;
}
);
layerId = m01;
shapes = (
{
closed = 1;
nodes = (
(499,0,o),
(530,0,qs),
(650,0,l),
(416,348,l),
(648,697,l),
(499,697,l),
(330,435,l),
(178,672,ls),
(162,697,o),
(132,697,qs),
(12,697,l),
(244,348,l),
(11,0,l),
(161,0,l),
(329,258,l),
(483,25,ls)
);
}
);
width = 660;
}
);
note = X;
unicode = 88;
},
{
glyphname = Y;
kernLeft = Y;
kernRight = Y;
layers = (
{
hints = (
{
horizontal = 1;
place = (0, 21);
target = up;
type = BottomGhost;
},
{
horizontal = 1;
place = (697, -20);
target = down;
type = TopGhost;
},
{
place = (262, 125);
place = (262, 125);
type = Stem;
}
);
layerId = m01;
shapes = (
{
closed = 1;
nodes = (
(262,0,l),
(387,0,l),
(387,272,l),
(650,697,l),
(502,697,l),
(322,392,l),
(144,697,l),
(-3,697,l),
(262,272,l)
);
}
);
width = 647;
}
);
note = Y;
unicode = 89;
},
{
glyphname = Yacute;
kernLeft = Y;
kernRight = Y;
layers = (
{
hints = (
{
horizontal = 1;
place = (0, 21);
target = up;
type = BottomGhost;
},
{
horizontal = 1;
place = (697, -20);
target = down;
type = TopGhost;
},
{
horizontal = 1;
place = (759, 142);
place = (759, 142);
type = Stem;
},
{
place = (262, 125);
place = (262, 125);
type = Stem;
}
);
layerId = m01;
shapes = (
{
closed = 1;
nodes = (
(280,759,l),
(368,759,l),
(520,901,l),
(391,901,l)
);
},
{
closed = 1;
nodes = (
(262,0,l),
(387,0,l),
(387,272,l),
(650,697,l),
(502,697,l),
(322,392,l),
(144,697,l),
(-3,697,l),
(262,272,l)
);
}
);
width = 647;
}
);
note = Yacute;
unicode = 221;
},
{
glyphname = Ycircumflex;
kernLeft = Y;
kernRight = Y;
layers = (
{
hints = (
{
horizontal = 1;
place = (0, 21);
target = up;
type = BottomGhost;
},
{
horizontal = 1;
place = (697, -20);
target = down;
type = TopGhost;
},
{
place = (262, 125);
place = (262, 125);
type = Stem;
}
);
layerId = m01;
shapes = (
{
closed = 1;
nodes = (
(168,745,l),
(261,745,l),
(324,817,l),
(387,745,l),
(480,745,l),
(324,919,l)
);
},
{
closed = 1;
nodes = (
(262,0,l),
(387,0,l),
(387,272,l),
(650,697,l),
(502,697,l),
(322,392,l),
(144,697,l),
(-3,697,l),
(262,272,l)
);
}
);
width = 647;
}
);
note = Ycircumflex;
unicode = 374;
},
{
glyphname = Ydieresis;
kernLeft = Y;
kernRight = Y;
layers = (
{
hints = (
{
horizontal = 1;
place = (0, 21);
target = up;
type = BottomGhost;
},
{
horizontal = 1;
place = (697, -20);
target = down;
type = TopGhost;
},
{
horizontal = 1;
place = (790, 111);
place = (790, 111);
type = Stem;
},
{
place = (176, 101);
place = (176, 101);
type = Stem;
},
{
place = (371, 101);
place = (371, 101);
type = Stem;
},
{
place = (262, 125);
place = (262, 125);
type = Stem;
}
);
layerId = m01;
shapes = (
{
closed = 1;
nodes = (
(176,790,l),
(277,790,l),
(277,901,l),
(176,901,l)
);
},
{
closed = 1;
nodes = (
(371,790,l),
(472,790,l),
(472,901,l),
(371,901,l)
);
},
{
closed = 1;
nodes = (
(262,0,l),
(387,0,l),
(387,272,l),
(650,697,l),
(502,697,l),
(322,392,l),
(144,697,l),
(-3,697,l),
(262,272,l)
);
}
);
width = 647;
}
);
note = Ydieresis;
unicode = 376;
},
{
glyphname = uni1EF4;
kernLeft = Y;
kernRight = Y;
layers = (
{
hints = (
{
horizontal = 1;
place = (-173, 111);
place = (-173, 111);
type = Stem;
},
{
horizontal = 1;
place = (0, 21);
target = up;
type = BottomGhost;
},
{
horizontal = 1;
place = (697, -20);
target = down;
type = TopGhost;
},
{
place = (262, 125);
place = (262, 125);
type = Stem;
},
{
place = (261, 126);
place = (261, 126);
type = Stem;
}
);
layerId = m01;
shapes = (
{
closed = 1;
nodes = (
(262,0,l),
(387,0,l),
(387,272,l),
(650,697,l),
(502,697,l),
(322,392,l),
(144,697,l),
(-3,697,l),
(262,272,l)
);
},
{
closed = 1;
nodes = (
(261,-173,l),
(387,-173,l),
(387,-62,l),
(261,-62,l)
);
}
);
width = 647;
}
);
note = uni1EF4;
unicode = 7924;
},
{
glyphname = Ygrave;
kernLeft = Y;
kernRight = Y;
layers = (
{
hints = (
{
horizontal = 1;
place = (0, 21);
target = up;
type = BottomGhost;
},
{
horizontal = 1;
place = (697, -20);
target = down;
type = TopGhost;
},
{
horizontal = 1;
place = (759, 142);
place = (759, 142);
type = Stem;
},
{
place = (262, 125);
place = (262, 125);
type = Stem;
}
);
layerId = m01;
shapes = (
{
closed = 1;
nodes = (
(279,759,l),
(369,759,l),
(265,901,l),
(137,901,l)
);
},
{
closed = 1;
nodes = (
(262,0,l),
(387,0,l),
(387,272,l),
(650,697,l),
(502,697,l),
(322,392,l),
(144,697,l),
(-3,697,l),
(262,272,l)
);
}
);
width = 647;
}
);
note = Ygrave;
unicode = 7922;
},
{
glyphname = uni1EF6;
kernLeft = Y;
kernRight = Y;
layers = (
{
hints = (
{
horizontal = 1;
place = (0, 21);
target = up;
type = BottomGhost;
},
{
horizontal = 1;
place = (697, -20);
target = down;
type = TopGhost;
},
{
horizontal = 1;
place = (856, 66);
place = (856, 66);
type = Stem;
},
{
place = (262, 125);
place = (262, 125);
type = Stem;
},
{
place = (361, 76);
place = (361, 76);
type = Stem;
}
);
layerId = m01;
shapes = (
{
closed = 1;
nodes = (
(314,736,l),
(365,744,o),
(437,756,o),
(437,825,cs),
(437,888,o),
(376,922,o),
(287,922,cs),
(272,922,l),
(272,856,l),
(287,856,ls),
(323,856,o),
(361,856,o),
(361,823,cs),
(361,793,o),
(330,789,o),
(300,785,c)
);
},
{
closed = 1;
nodes = (
(262,0,l),
(387,0,l),
(387,272,l),
(650,697,l),
(502,697,l),
(322,392,l),
(144,697,l),
(-3,697,l),
(262,272,l)
);
}
);
width = 647;
}
);
note = uni1EF6;
unicode = 7926;
},
{
glyphname = uni1EF8;
kernLeft = Y;
kernRight = Y;
layers = (
{
hints = (
{
horizontal = 1;
place = (0, 21);
target = up;
type = BottomGhost;
},
{
horizontal = 1;
place = (697, -20);
target = down;
type = TopGhost;
},
{
horizontal = 1;
place = (760, 74);
place = (760, 74);
type = Stem;
},
{
place = (262, 125);
place = (262, 125);
type = Stem;
},
{
place = (418, 72);
place = (418, 72);
type = Stem;
},
{
horizontal = 1;
place = (830, 74);
place = (830, 74);
type = Stem;
},
{
place = (157, 69);
place = (157, 69);
type = Stem;
}
);
layerId = m01;
shapes = (
{
closed = 1;
nodes = (
(450,760,o),
(490,810,o),
(490,901,c),
(418,901,l),
(418,858,o),
(405,834,o),
(388,834,cs),
(353,834,o),
(332,904,o),
(263,904,cs),
(198,904,o),
(157,853,o),
(157,763,c),
(226,763,l),
(226,806,o),
(238,830,o),
(258,830,cs),
(295,830,o),
(309,760,o),
(387,760,cs)
);
},
{
closed = 1;
nodes = (
(262,0,l),
(387,0,l),
(387,272,l),
(650,697,l),
(502,697,l),
(322,392,l),
(144,697,l),
(-3,697,l),
(262,272,l)
);
}
);
width = 647;
}
);
note = uni1EF8;
unicode = 7928;
},
{
glyphname = Z;
kernLeft = Z;
kernRight = Z;
lastChange = "2022-12-21 16:15:16 +0000";
layers = (
{
hints = (
{
horizontal = 1;
place = (0, 115);
place = (0, 115);
type = Stem;
},
{
horizontal = 1;
place = (582, 115);
place = (582, 115);
type = Stem;
},
{
place = (27, 562);
place = (27, 562);
type = Stem;
}
);
layerId = m01;
shapes = (
{
closed = 1;
nodes = (
(589,115,o),
(559,115,qs),
(198,115,l),
(589,606,l),
(589,697,l),
(50,697,l),
(50,582,l),
(422,582,l),
(27,87,l),
(27,0,l),
(589,0,l),
(589,85,ls)
);
}
);
width = 624;
}
);
note = Z;
unicode = 90;
},
{
glyphname = Zacute;
kernLeft = Z;
kernRight = Z;
layers = (
{
hints = (
{
horizontal = 1;
place = (0, 115);
place = (0, 115);
type = Stem;
},
{
horizontal = 1;
place = (582, 115);
place = (582, 115);
type = Stem;
},
{
horizontal = 1;
place = (759, 142);
place = (759, 142);
type = Stem;
},
{
place = (27, 562);
place = (27, 562);
type = Stem;
}
);
layerId = m01;
shapes = (
{
closed = 1;
nodes = (
(508,901,l),
(379,901,l),
(268,759,l),
(356,759,l)
);
},
{
closed = 1;
nodes = (
(589,697,l),
(50,697,l),
(50,582,l),
(422,582,l),
(27,87,l),
(27,0,l),
(589,0,l),
(589,115,l),
(198,115,l),
(589,606,l)
);
}
);
width = 624;
}
);
note = Zacute;
unicode = 377;
},
{
glyphname = Zcaron;
kernLeft = Z;
kernRight = Z;
layers = (
{
hints = (
{
horizontal = 1;
place = (0, 115);
place = (0, 115);
type = Stem;
},
{
horizontal = 1;
place = (582, 115);
place = (582, 115);
type = Stem;
},
{
place = (27, 562);
place = (27, 562);
type = Stem;
}
);
layerId = m01;
shapes = (
{
closed = 1;
nodes = (
(468,901,l),
(375,901,l),
(312,834,l),
(249,901,l),
(156,901,l),
(312,737,l)
);
},
{
closed = 1;
nodes = (
(589,697,l),
(50,697,l),
(50,582,l),
(422,582,l),
(27,87,l),
(27,0,l),
(589,0,l),
(589,115,l),
(198,115,l),
(589,606,l)
);
}
);
width = 624;
}
);
note = Zcaron;
unicode = 381;
},
{
glyphname = Zdotaccent;
kernLeft = Z;
kernRight = Z;
layers = (
{
hints = (
{
horizontal = 1;
place = (0, 115);
place = (0, 115);
type = Stem;
},
{
horizontal = 1;
place = (582, 115);
place = (582, 115);
type = Stem;
},
{
horizontal = 1;
place = (790, 111);
place = (790, 111);
type = Stem;
},
{
place = (249, 126);
place = (249, 126);
type = Stem;
}
);
layerId = m01;
shapes = (
{
closed = 1;
nodes = (
(375,901,l),
(249,901,l),
(249,790,l),
(375,790,l)
);
},
{
closed = 1;
nodes = (
(589,697,l),
(50,697,l),
(50,582,l),
(422,582,l),
(27,87,l),
(27,0,l),
(589,0,l),
(589,115,l),
(198,115,l),
(589,606,l)
);
}
);
width = 624;
}
);
note = Zdotaccent;
unicode = 379;
},
{
glyphname = uni1EB6.ss03;
kernLeft = A;
kernRight = A;
layers = (
{
hints = (
{
horizontal = 1;
place = (0, 21);
target = up;
type = BottomGhost;
},
{
horizontal = 1;
place = (144, 115);
place = (144, 115);
type = Stem;
},
{
horizontal = 1;
place = (697, -20);
target = down;
type = TopGhost;
},
{
horizontal = 1;
place = (768, 70);
place = (768, 70);
type = Stem;
},
{
place = (174, 85);
place = (174, 85);
type = Stem;
},
{
place = (401, 85);
place = (401, 85);
type = Stem;
},
{
horizontal = 1;
place = (768, 133);
place = (768, 133);
type = Stem;
},
{
horizontal = 1;
place = (-190, 149);
place = (-190, 149);
type = Stem;
},
{
place = (256, 148);
place = (256, 148);
type = Stem;
}
);
layerId = m01;
shapes = (
{
closed = 1;
nodes = (
(433,768,o),
(486,811,o),
(486,901,c),
(401,901,l),
(401,860,o),
(371,838,o),
(330,838,cs),
(291,838,o),
(259,858,o),
(259,901,c),
(174,901,l),
(174,815,o),
(222,768,o),
(330,768,cs)
);
},
{
closed = 1;
nodes = (
(655,0,l),
(377,697,l),
(283,697,l),
(4,0,l),
(140,0,l),
(193,144,l),
(466,144,l),
(519,0,l)
);
},
{
closed = 1;
nodes = (
(236,259,l),
(330,513,l),
(424,259,l)
);
},
{
closed = 1;
nodes = (
(288,-41,o),
(256,-73,o),
(256,-115,cs),
(256,-157,o),
(289,-190,o),
(330,-190,cs),
(372,-190,o),
(404,-157,o),
(404,-115,cs),
(404,-73,o),
(372,-41,o),
(330,-41,cs)
);
}
);
width = 659;
}
);
note = uni1EB6.ss03;
},
{
glyphname = uni1EAC.ss03;
kernLeft = A;
kernRight = A;
layers = (
{
hints = (
{
horizontal = 1;
place = (-190, 149);
place = (-190, 149);
type = Stem;
},
{
horizontal = 1;
place = (0, 21);
target = up;
type = BottomGhost;
},
{
horizontal = 1;
place = (144, 115);
place = (144, 115);
type = Stem;
},
{
horizontal = 1;
place = (697, -20);
target = down;
type = TopGhost;
},
{
place = (256, 148);
place = (256, 148);
type = Stem;
}
);
layerId = m01;
shapes = (
{
closed = 1;
nodes = (
(330,817,l),
(393,745,l),
(486,745,l),
(330,919,l),
(174,745,l),
(267,745,l)
);
},
{
closed = 1;
nodes = (
(655,0,l),
(377,697,l),
(283,697,l),
(4,0,l),
(140,0,l),
(193,144,l),
(466,144,l),
(519,0,l)
);
},
{
closed = 1;
nodes = (
(236,259,l),
(330,513,l),
(424,259,l)
);
},
{
closed = 1;
nodes = (
(288,-41,o),
(256,-73,o),
(256,-115,cs),
(256,-157,o),
(289,-190,o),
(330,-190,cs),
(372,-190,o),
(404,-157,o),
(404,-115,cs),
(404,-73,o),
(372,-41,o),
(330,-41,cs)
);
}
);
width = 659;
}
);
note = uni1EAC.ss03;
},
{
glyphname = Adieresis.ss03;
kernLeft = A;
kernRight = A;
layers = (
{
hints = (
{
horizontal = 1;
place = (0, 21);
target = up;
type = BottomGhost;
},
{
horizontal = 1;
place = (144, 115);
place = (144, 115);
type = Stem;
},
{
horizontal = 1;
place = (697, -20);
target = down;
type = TopGhost;
},
{
horizontal = 1;
place = (762, 149);
place = (762, 149);
type = Stem;
},
{
place = (158, 148);
place = (158, 148);
type = Stem;
},
{
place = (354, 148);
place = (354, 148);
type = Stem;
}
);
layerId = m01;
shapes = (
{
closed = 1;
nodes = (
(274,762,o),
(306,795,o),
(306,837,cs),
(306,879,o),
(274,911,o),
(232,911,cs),
(190,911,o),
(158,879,o),
(158,837,cs),
(158,795,o),
(191,762,o),
(232,762,cs)
);
},
{
closed = 1;
nodes = (
(470,762,o),
(502,795,o),
(502,837,cs),
(502,879,o),
(470,911,o),
(428,911,cs),
(386,911,o),
(354,879,o),
(354,837,cs),
(354,795,o),
(387,762,o),
(428,762,cs)
);
},
{
closed = 1;
nodes = (
(519,0,l),
(655,0,l),
(377,697,l),
(283,697,l),
(4,0,l),
(140,0,l),
(193,144,l),
(466,144,l)
);
},
{
closed = 1;
nodes = (
(236,259,l),
(330,513,l),
(424,259,l)
);
}
);
width = 659;
}
);
note = Adieresis.ss03;
},
{
glyphname = uni1EA0.ss03;
kernLeft = A;
kernRight = A;
layers = (
{
hints = (
{
horizontal = 1;
place = (-190, 149);
place = (-190, 149);
type = Stem;
},
{
horizontal = 1;
place = (0, 21);
target = up;
type = BottomGhost;
},
{
horizontal = 1;
place = (144, 115);
place = (144, 115);
type = Stem;
},
{
horizontal = 1;
place = (697, -20);
target = down;
type = TopGhost;
},
{
place = (256, 148);
place = (256, 148);
type = Stem;
}
);
layerId = m01;
shapes = (
{
closed = 1;
nodes = (
(655,0,l),
(377,697,l),
(283,697,l),
(4,0,l),
(140,0,l),
(193,144,l),
(466,144,l),
(519,0,l)
);
},
{
closed = 1;
nodes = (
(236,259,l),
(330,513,l),
(424,259,l)
);
},
{
closed = 1;
nodes = (
(288,-41,o),
(256,-73,o),
(256,-115,cs),
(256,-157,o),
(289,-190,o),
(330,-190,cs),
(372,-190,o),
(404,-157,o),
(404,-115,cs),
(404,-73,o),
(372,-41,o),
(330,-41,cs)
);
}
);
width = 659;
}
);
note = uni1EA0.ss03;
},
{
glyphname = Cdotaccent.ss03;
kernLeft = C;
kernRight = C;
layers = (
{
hints = (
{
horizontal = 1;
place = (-15, 119);
place = (-15, 119);
type = Stem;
},
{
horizontal = 1;
place = (594, 119);
place = (594, 119);
type = Stem;
},
{
horizontal = 1;
place = (762, 149);
place = (762, 149);
type = Stem;
},
{
place = (40, 125);
place = (40, 125);
type = Stem;
},
{
place = (309, 148);
place = (309, 148);
type = Stem;
}
);
layerId = m01;
shapes = (
{
closed = 1;
nodes = (
(425,762,o),
(457,795,o),
(457,837,cs),
(457,879,o),
(425,911,o),
(383,911,cs),
(341,911,o),
(309,879,o),
(309,837,cs),
(309,795,o),
(342,762,o),
(383,762,cs)
);
},
{
closed = 1;
nodes = (
(527,-15,o),
(639,58,o),
(689,193,c),
(572,237,l),
(542,149,o),
(474,104,o),
(378,104,cs),
(244,104,o),
(165,193,o),
(165,350,cs),
(165,506,o),
(243,594,o),
(378,594,cs),
(473,594,o),
(541,551,o),
(572,464,c),
(687,509,l),
(636,642,o),
(525,713,o),
(378,713,cs),
(172,713,o),
(40,572,o),
(40,349,cs),
(40,126,o),
(172,-15,o),
(378,-15,cs)
);
}
);
width = 711;
}
);
note = Cdotaccent.ss03;
},
{
glyphname = uni1EC6.ss03;
layers = (
{
hints = (
{
horizontal = 1;
place = (-190, 149);
place = (-190, 149);
type = Stem;
},
{
horizontal = 1;
place = (0, 115);
place = (0, 115);
type = Stem;
},
{
horizontal = 1;
place = (301, 115);
place = (301, 115);
type = Stem;
},
{
horizontal = 1;
place = (582, 115);
place = (582, 115);
type = Stem;
},
{
place = (88, 125);
place = (88, 125);
type = Stem;
},
{
place = (246, 148);
place = (246, 148);
type = Stem;
}
);
layerId = m01;
shapes = (
{
closed = 1;
nodes = (
(164,745,l),
(257,745,l),
(320,817,l),
(383,745,l),
(476,745,l),
(320,919,l)
);
},
{
closed = 1;
nodes = (
(88,0,l),
(552,0,l),
(552,115,l),
(213,115,l),
(213,301,l),
(528,301,l),
(528,416,l),
(213,416,l),
(213,582,l),
(552,582,l),
(552,697,l),
(88,697,l)
);
},
{
closed = 1;
nodes = (
(362,-190,o),
(394,-157,o),
(394,-115,cs),
(394,-73,o),
(362,-41,o),
(320,-41,cs),
(278,-41,o),
(246,-73,o),
(246,-115,cs),
(246,-157,o),
(279,-190,o),
(320,-190,cs)
);
}
);
width = 610;
}
);
note = uni1EC6.ss03;
},
{
glyphname = Edieresis.ss03;
layers = (
{
hints = (
{
horizontal = 1;
place = (0, 115);
place = (0, 115);
type = Stem;
},
{
horizontal = 1;
place = (301, 115);
place = (301, 115);
type = Stem;
},
{
horizontal = 1;
place = (582, 115);
place = (582, 115);
type = Stem;
},
{
horizontal = 1;
place = (762, 149);
place = (762, 149);
type = Stem;
},
{
place = (148, 148);
place = (148, 148);
type = Stem;
},
{
place = (344, 148);
place = (344, 148);
type = Stem;
},
{
place = (88, 125);
place = (88, 125);
type = Stem;
}
);
layerId = m01;
shapes = (
{
closed = 1;
nodes = (
(264,762,o),
(296,795,o),
(296,837,cs),
(296,879,o),
(264,911,o),
(222,911,cs),
(180,911,o),
(148,879,o),
(148,837,cs),
(148,795,o),
(181,762,o),
(222,762,cs)
);
},
{
closed = 1;
nodes = (
(460,762,o),
(492,795,o),
(492,837,cs),
(492,879,o),
(460,911,o),
(418,911,cs),
(376,911,o),
(344,879,o),
(344,837,cs),
(344,795,o),
(377,762,o),
(418,762,cs)
);
},
{
closed = 1;
nodes = (
(88,0,l),
(552,0,l),
(552,115,l),
(213,115,l),
(213,301,l),
(528,301,l),
(528,416,l),
(213,416,l),
(213,582,l),
(552,582,l),
(552,697,l),
(88,697,l)
);
}
);
width = 610;
}
);
note = Edieresis.ss03;
},
{
glyphname = Edotaccent.ss03;
layers = (
{
hints = (
{
horizontal = 1;
place = (0, 115);
place = (0, 115);
type = Stem;
},
{
horizontal = 1;
place = (301, 115);
place = (301, 115);
type = Stem;
},
{
horizontal = 1;
place = (582, 115);
place = (582, 115);
type = Stem;
},
{
horizontal = 1;
place = (762, 149);
place = (762, 149);
type = Stem;
},
{
place = (88, 125);
place = (88, 125);
type = Stem;
},
{
place = (246, 148);
place = (246, 148);
type = Stem;
}
);
layerId = m01;
shapes = (
{
closed = 1;
nodes = (
(362,762,o),
(394,795,o),
(394,837,cs),
(394,879,o),
(362,911,o),
(320,911,cs),
(278,911,o),
(246,879,o),
(246,837,cs),
(246,795,o),
(279,762,o),
(320,762,cs)
);
},
{
closed = 1;
nodes = (
(88,0,l),
(552,0,l),
(552,115,l),
(213,115,l),
(213,301,l),
(528,301,l),
(528,416,l),
(213,416,l),
(213,582,l),
(552,582,l),
(552,697,l),
(88,697,l)
);
}
);
width = 610;
}
);
note = Edotaccent.ss03;
},
{
glyphname = uni1EB8.ss03;
layers = (
{
hints = (
{
horizontal = 1;
place = (-190, 149);
place = (-190, 149);
type = Stem;
},
{
horizontal = 1;
place = (0, 115);
place = (0, 115);
type = Stem;
},
{
horizontal = 1;
place = (301, 115);
place = (301, 115);
type = Stem;
},
{
horizontal = 1;
place = (582, 115);
place = (582, 115);
type = Stem;
},
{
place = (88, 125);
place = (88, 125);
type = Stem;
},
{
place = (246, 148);
place = (246, 148);
type = Stem;
}
);
layerId = m01;
shapes = (
{
closed = 1;
nodes = (
(88,0,l),
(552,0,l),
(552,115,l),
(213,115,l),
(213,301,l),
(528,301,l),
(528,416,l),
(213,416,l),
(213,582,l),
(552,582,l),
(552,697,l),
(88,697,l)
);
},
{
closed = 1;
nodes = (
(362,-190,o),
(394,-157,o),
(394,-115,cs),
(394,-73,o),
(362,-41,o),
(320,-41,cs),
(278,-41,o),
(246,-73,o),
(246,-115,cs),
(246,-157,o),
(279,-190,o),
(320,-190,cs)
);
}
);
width = 610;
}
);
note = uni1EB8.ss03;
},
{
glyphname = Gdotaccent.ss03;
kernRight = G;
layers = (
{
hints = (
{
horizontal = 1;
place = (-15, 119);
place = (-15, 119);
type = Stem;
},
{
horizontal = 1;
place = (262, 115);
place = (262, 115);
type = Stem;
},
{
horizontal = 1;
place = (594, 119);
place = (594, 119);
type = Stem;
},
{
horizontal = 1;
place = (762, 149);
place = (762, 149);
type = Stem;
},
{
place = (38, 125);
place = (38, 125);
type = Stem;
},
{
place = (302, 148);
place = (302, 148);
type = Stem;
},
{
place = (568, 124);
place = (568, 124);
type = Stem;
},
{
horizontal = 1;
place = (0, 21);
target = up;
type = BottomGhost;
}
);
layerId = m01;
shapes = (
{
closed = 1;
nodes = (
(418,762,o),
(450,795,o),
(450,837,cs),
(450,879,o),
(418,911,o),
(376,911,cs),
(334,911,o),
(302,879,o),
(302,837,cs),
(302,795,o),
(335,762,o),
(376,762,cs)
);
},
{
closed = 1;
nodes = (
(412,377,l),
(412,262,l),
(568,262,l),
(568,253,ls),
(568,159,o),
(502,104,o),
(390,104,cs),
(248,104,o),
(163,192,o),
(163,351,cs),
(163,504,o),
(242,594,o),
(376,594,cs),
(470,594,o),
(539,550,o),
(570,464,c),
(685,509,l),
(634,641,o),
(520,713,o),
(378,713,cs),
(169,713,o),
(38,557,o),
(38,350,cs),
(38,129,o),
(187,-15,o),
(382,-15,cs),
(472,-15,o),
(547,16,o),
(588,72,c),
(603,0,l),
(692,0,l),
(692,377,l)
);
}
);
width = 755;
}
);
note = Gdotaccent.ss03;
},
{
glyphname = Idieresis.ss03;
layers = (
{
hints = (
{
horizontal = 1;
place = (0, 21);
target = up;
type = BottomGhost;
},
{
horizontal = 1;
place = (697, -20);
target = down;
type = TopGhost;
},
{
horizontal = 1;
place = (762, 149);
place = (762, 149);
type = Stem;
},
{
place = (-21, 148);
place = (-21, 148);
type = Stem;
},
{
place = (175, 148);
place = (175, 148);
type = Stem;
},
{
place = (88, 125);
place = (88, 125);
type = Stem;
}
);
layerId = m01;
shapes = (
{
closed = 1;
nodes = (
(95,762,o),
(127,795,o),
(127,837,cs),
(127,879,o),
(95,911,o),
(53,911,cs),
(11,911,o),
(-21,879,o),
(-21,837,cs),
(-21,795,o),
(12,762,o),
(53,762,cs)
);
},
{
closed = 1;
nodes = (
(291,762,o),
(323,795,o),
(323,837,cs),
(323,879,o),
(291,911,o),
(249,911,cs),
(207,911,o),
(175,879,o),
(175,837,cs),
(175,795,o),
(208,762,o),
(249,762,cs)
);
},
{
closed = 1;
nodes = (
(88,0,l),
(213,0,l),
(213,697,l),
(88,697,l)
);
}
);
width = 301;
}
);
note = Idieresis.ss03;
},
{
glyphname = uni1ECA.ss03;
layers = (
{
hints = (
{
horizontal = 1;
place = (-190, 149);
place = (-190, 149);
type = Stem;
},
{
horizontal = 1;
place = (0, 21);
target = up;
type = BottomGhost;
},
{
horizontal = 1;
place = (697, -20);
target = down;
type = TopGhost;
},
{
place = (88, 125);
place = (88, 125);
type = Stem;
}
);
layerId = m01;
shapes = (
{
closed = 1;
nodes = (
(88,0,l),
(213,0,l),
(213,697,l),
(88,697,l)
);
},
{
closed = 1;
nodes = (
(193,-190,o),
(225,-157,o),
(225,-115,cs),
(225,-73,o),
(193,-41,o),
(151,-41,cs),
(109,-41,o),
(77,-73,o),
(77,-115,cs),
(77,-157,o),
(110,-190,o),
(151,-190,cs)
);
}
);
width = 301;
}
);
note = uni1ECA.ss03;
},
{
glyphname = uni1ED8.ss03;
layers = (
{
hints = (
{
horizontal = 1;
place = (-15, 119);
place = (-15, 119);
type = Stem;
},
{
horizontal = 1;
place = (593, 119);
place = (593, 119);
type = Stem;
},
{
place = (39, 125);
place = (39, 125);
type = Stem;
},
{
place = (580, 125);
place = (580, 125);
type = Stem;
},
{
horizontal = 1;
place = (-190, 149);
place = (-190, 149);
type = Stem;
},
{
place = (298, 148);
place = (298, 148);
type = Stem;
}
);
layerId = m01;
shapes = (
{
closed = 1;
nodes = (
(216,745,l),
(309,745,l),
(372,817,l),
(435,745,l),
(528,745,l),
(372,919,l)
);
},
{
closed = 1;
nodes = (
(570,-15,o),
(705,130,o),
(705,348,cs),
(705,567,o),
(571,712,o),
(372,712,cs),
(174,712,o),
(39,567,o),
(39,348,cs),
(39,130,o),
(174,-15,o),
(372,-15,cs)
);
},
{
closed = 1;
nodes = (
(245,104,o),
(164,197,o),
(164,348,cs),
(164,500,o),
(245,593,o),
(372,593,cs),
(499,593,o),
(580,499,o),
(580,348,cs),
(580,198,o),
(499,104,o),
(372,104,cs)
);
},
{
closed = 1;
nodes = (
(414,-190,o),
(446,-157,o),
(446,-115,cs),
(446,-73,o),
(414,-41,o),
(372,-41,cs),
(330,-41,o),
(298,-73,o),
(298,-115,cs),
(298,-157,o),
(331,-190,o),
(372,-190,cs)
);
}
);
width = 744;
}
);
note = uni1ED8.ss03;
},
{
glyphname = Odieresis.ss03;
layers = (
{
hints = (
{
horizontal = 1;
place = (-15, 119);
place = (-15, 119);
type = Stem;
},
{
horizontal = 1;
place = (593, 119);
place = (593, 119);
type = Stem;
},
{
horizontal = 1;
place = (762, 149);
place = (762, 149);
type = Stem;
},
{
place = (39, 125);
place = (39, 125);
type = Stem;
},
{
place = (200, 148);
place = (200, 148);
type = Stem;
},
{
place = (396, 148);
place = (396, 148);
type = Stem;
},
{
place = (580, 125);
place = (580, 125);
type = Stem;
}
);
layerId = m01;
shapes = (
{
closed = 1;
nodes = (
(316,762,o),
(348,795,o),
(348,837,cs),
(348,879,o),
(316,911,o),
(274,911,cs),
(232,911,o),
(200,879,o),
(200,837,cs),
(200,795,o),
(233,762,o),
(274,762,cs)
);
},
{
closed = 1;
nodes = (
(512,762,o),
(544,795,o),
(544,837,cs),
(544,879,o),
(512,911,o),
(470,911,cs),
(428,911,o),
(396,879,o),
(396,837,cs),
(396,795,o),
(429,762,o),
(470,762,cs)
);
},
{
closed = 1;
nodes = (
(570,-15,o),
(705,130,o),
(705,348,cs),
(705,567,o),
(571,712,o),
(372,712,cs),
(174,712,o),
(39,567,o),
(39,348,cs),
(39,130,o),
(174,-15,o),
(372,-15,cs)
);
},
{
closed = 1;
nodes = (
(245,104,o),
(164,197,o),
(164,348,cs),
(164,500,o),
(245,593,o),
(372,593,cs),
(499,593,o),
(580,499,o),
(580,348,cs),
(580,198,o),
(499,104,o),
(372,104,cs)
);
}
);
width = 744;
}
);
note = Odieresis.ss03;
},
{
glyphname = uni1ECC.ss03;
layers = (
{
hints = (
{
horizontal = 1;
place = (-15, 119);
place = (-15, 119);
type = Stem;
},
{
horizontal = 1;
place = (593, 119);
place = (593, 119);
type = Stem;
},
{
place = (39, 125);
place = (39, 125);
type = Stem;
},
{
place = (580, 125);
place = (580, 125);
type = Stem;
},
{
horizontal = 1;
place = (-190, 149);
place = (-190, 149);
type = Stem;
},
{
place = (298, 148);
place = (298, 148);
type = Stem;
}
);
layerId = m01;
shapes = (
{
closed = 1;
nodes = (
(570,-15,o),
(705,130,o),
(705,348,cs),
(705,567,o),
(571,712,o),
(372,712,cs),
(174,712,o),
(39,567,o),
(39,348,cs),
(39,130,o),
(174,-15,o),
(372,-15,cs)
);
},
{
closed = 1;
nodes = (
(245,104,o),
(164,197,o),
(164,348,cs),
(164,500,o),
(245,593,o),
(372,593,cs),
(499,593,o),
(580,499,o),
(580,348,cs),
(580,198,o),
(499,104,o),
(372,104,cs)
);
},
{
closed = 1;
nodes = (
(414,-190,o),
(446,-157,o),
(446,-115,cs),
(446,-73,o),
(414,-41,o),
(372,-41,cs),
(330,-41,o),
(298,-73,o),
(298,-115,cs),
(298,-157,o),
(331,-190,o),
(372,-190,cs)
);
}
);
width = 744;
}
);
note = uni1ECC.ss03;
},
{
glyphname = uni1EE2.ss03;
layers = (
{
hints = (
{
horizontal = 1;
place = (-15, 119);
place = (-15, 119);
type = Stem;
},
{
horizontal = 1;
place = (505, -20);
target = down;
type = TopGhost;
},
{
horizontal = 1;
place = (697, -20);
target = down;
type = TopGhost;
},
{
place = (39, 125);
place = (39, 125);
type = Stem;
},
{
place = (674, 91);
place = (674, 91);
type = Stem;
},
{
horizontal = 1;
place = (593, 119);
place = (593, 119);
type = Stem;
},
{
place = (580, 125);
place = (580, 125);
type = Stem;
},
{
horizontal = 1;
place = (-190, 149);
place = (-190, 149);
type = Stem;
},
{
place = (298, 148);
place = (298, 148);
type = Stem;
}
);
layerId = m01;
shapes = (
{
closed = 1;
nodes = (
(674,697,l),
(674,648,ls),
(674,624,o),
(667,592,o),
(640,578,c),
(582,663,o),
(488,712,o),
(372,712,cs),
(174,712,o),
(39,567,o),
(39,348,cs),
(39,130,o),
(174,-15,o),
(372,-15,cs),
(570,-15,o),
(705,130,o),
(705,348,cs),
(705,406,o),
(696,459,o),
(678,505,c),
(740,530,o),
(765,590,o),
(765,658,cs),
(765,697,l)
);
},
{
closed = 1;
nodes = (
(245,104,o),
(164,197,o),
(164,348,cs),
(164,500,o),
(245,593,o),
(372,593,cs),
(499,593,o),
(580,499,o),
(580,348,cs),
(580,198,o),
(499,104,o),
(372,104,cs)
);
},
{
closed = 1;
nodes = (
(330,-41,o),
(298,-73,o),
(298,-115,cs),
(298,-157,o),
(331,-190,o),
(372,-190,cs),
(414,-190,o),
(446,-157,o),
(446,-115,cs),
(446,-73,o),
(414,-41,o),
(372,-41,cs)
);
}
);
width = 744;
}
);
note = uni1EE2.ss03;
},
{
glyphname = Udieresis.ss03;
kernLeft = U;
layers = (
{
hints = (
{
horizontal = 1;
place = (-15, 121);
place = (-15, 121);
type = Stem;
},
{
horizontal = 1;
place = (697, -20);
target = down;
type = TopGhost;
},
{
horizontal = 1;
place = (762, 149);
place = (762, 149);
type = Stem;
},
{
place = (169, 148);
place = (169, 148);
type = Stem;
},
{
place = (365, 148);
place = (365, 148);
type = Stem;
},
{
place = (74, 125);
place = (74, 125);
type = Stem;
},
{
place = (482, 125);
place = (482, 125);
type = Stem;
}
);
layerId = m01;
shapes = (
{
closed = 1;
nodes = (
(285,762,o),
(317,795,o),
(317,837,cs),
(317,879,o),
(285,911,o),
(243,911,cs),
(201,911,o),
(169,879,o),
(169,837,cs),
(169,795,o),
(202,762,o),
(243,762,cs)
);
},
{
closed = 1;
nodes = (
(481,762,o),
(513,795,o),
(513,837,cs),
(513,879,o),
(481,911,o),
(439,911,cs),
(397,911,o),
(365,879,o),
(365,837,cs),
(365,795,o),
(398,762,o),
(439,762,cs)
);
},
{
closed = 1;
nodes = (
(516,-15,o),
(607,76,o),
(607,257,cs),
(607,697,l),
(482,697,l),
(482,266,ls),
(482,149,o),
(443,106,o),
(340,106,cs),
(237,106,o),
(199,148,o),
(199,266,cs),
(199,697,l),
(74,697,l),
(74,252,ls),
(74,74,o),
(165,-15,o),
(340,-15,cs)
);
}
);
width = 681;
}
);
note = Udieresis.ss03;
},
{
glyphname = uni01D7.ss03;
kernLeft = U;
layers = (
{
hints = (
{
horizontal = 1;
place = (-15, 121);
place = (-15, 121);
type = Stem;
},
{
horizontal = 1;
place = (697, -20);
target = down;
type = TopGhost;
},
{
horizontal = 1;
place = (762, 149);
place = (762, 149);
type = Stem;
},
{
horizontal = 1;
place = (973, 142);
place = (973, 142);
type = Stem;
},
{
place = (74, 125);
place = (74, 125);
type = Stem;
},
{
place = (482, 125);
place = (482, 125);
type = Stem;
},
{
place = (169, 148);
place = (169, 148);
type = Stem;
},
{
place = (365, 148);
place = (365, 148);
type = Stem;
}
);
layerId = m01;
shapes = (
{
closed = 1;
nodes = (
(297,973,l),
(385,973,l),
(537,1115,l),
(408,1115,l)
);
},
{
closed = 1;
nodes = (
(285,762,o),
(317,795,o),
(317,837,cs),
(317,879,o),
(285,911,o),
(243,911,cs),
(201,911,o),
(169,879,o),
(169,837,cs),
(169,795,o),
(202,762,o),
(243,762,cs)
);
},
{
closed = 1;
nodes = (
(481,762,o),
(513,795,o),
(513,837,cs),
(513,879,o),
(481,911,o),
(439,911,cs),
(397,911,o),
(365,879,o),
(365,837,cs),
(365,795,o),
(398,762,o),
(439,762,cs)
);
},
{
closed = 1;
nodes = (
(516,-15,o),
(607,76,o),
(607,257,cs),
(607,697,l),
(482,697,l),
(482,266,ls),
(482,149,o),
(443,106,o),
(340,106,cs),
(237,106,o),
(199,148,o),
(199,266,cs),
(199,697,l),
(74,697,l),
(74,252,ls),
(74,74,o),
(165,-15,o),
(340,-15,cs)
);
}
);
width = 681;
}
);
note = uni01D7.ss03;
},
{
glyphname = uni01D9.ss03;
kernLeft = U;
layers = (
{
hints = (
{
horizontal = 1;
place = (-15, 121);
place = (-15, 121);
type = Stem;
},
{
horizontal = 1;
place = (697, -20);
target = down;
type = TopGhost;
},
{
horizontal = 1;
place = (762, 149);
place = (762, 149);
type = Stem;
},
{
place = (74, 125);
place = (74, 125);
type = Stem;
},
{
place = (482, 125);
place = (482, 125);
type = Stem;
},
{
place = (169, 148);
place = (169, 148);
type = Stem;
},
{
place = (365, 148);
place = (365, 148);
type = Stem;
}
);
layerId = m01;
shapes = (
{
closed = 1;
nodes = (
(341,951,l),
(497,1115,l),
(404,1115,l),
(341,1048,l),
(278,1115,l),
(185,1115,l)
);
},
{
closed = 1;
nodes = (
(285,762,o),
(317,795,o),
(317,837,cs),
(317,879,o),
(285,911,o),
(243,911,cs),
(201,911,o),
(169,879,o),
(169,837,cs),
(169,795,o),
(202,762,o),
(243,762,cs)
);
},
{
closed = 1;
nodes = (
(481,762,o),
(513,795,o),
(513,837,cs),
(513,879,o),
(481,911,o),
(439,911,cs),
(397,911,o),
(365,879,o),
(365,837,cs),
(365,795,o),
(398,762,o),
(439,762,cs)
);
},
{
closed = 1;
nodes = (
(516,-15,o),
(607,76,o),
(607,257,cs),
(607,697,l),
(482,697,l),
(482,266,ls),
(482,149,o),
(443,106,o),
(340,106,cs),
(237,106,o),
(199,148,o),
(199,266,cs),
(199,697,l),
(74,697,l),
(74,252,ls),
(74,74,o),
(165,-15,o),
(340,-15,cs)
);
}
);
width = 681;
}
);
note = uni01D9.ss03;
},
{
glyphname = uni01DB.ss03;
kernLeft = U;
layers = (
{
hints = (
{
horizontal = 1;
place = (-15, 121);
place = (-15, 121);
type = Stem;
},
{
horizontal = 1;
place = (697, -20);
target = down;
type = TopGhost;
},
{
horizontal = 1;
place = (762, 149);
place = (762, 149);
type = Stem;
},
{
horizontal = 1;
place = (973, 142);
place = (973, 142);
type = Stem;
},
{
place = (74, 125);
place = (74, 125);
type = Stem;
},
{
place = (482, 125);
place = (482, 125);
type = Stem;
},
{
place = (169, 148);
place = (169, 148);
type = Stem;
},
{
place = (365, 148);
place = (365, 148);
type = Stem;
}
);
layerId = m01;
shapes = (
{
closed = 1;
nodes = (
(296,973,l),
(386,973,l),
(282,1115,l),
(154,1115,l)
);
},
{
closed = 1;
nodes = (
(285,762,o),
(317,795,o),
(317,837,cs),
(317,879,o),
(285,911,o),
(243,911,cs),
(201,911,o),
(169,879,o),
(169,837,cs),
(169,795,o),
(202,762,o),
(243,762,cs)
);
},
{
closed = 1;
nodes = (
(481,762,o),
(513,795,o),
(513,837,cs),
(513,879,o),
(481,911,o),
(439,911,cs),
(397,911,o),
(365,879,o),
(365,837,cs),
(365,795,o),
(398,762,o),
(439,762,cs)
);
},
{
closed = 1;
nodes = (
(516,-15,o),
(607,76,o),
(607,257,cs),
(607,697,l),
(482,697,l),
(482,266,ls),
(482,149,o),
(443,106,o),
(340,106,cs),
(237,106,o),
(199,148,o),
(199,266,cs),
(199,697,l),
(74,697,l),
(74,252,ls),
(74,74,o),
(165,-15,o),
(340,-15,cs)
);
}
);
width = 681;
}
);
note = uni01DB.ss03;
},
{
glyphname = uni01D5.ss03;
kernLeft = U;
layers = (
{
hints = (
{
horizontal = 1;
place = (-15, 121);
place = (-15, 121);
type = Stem;
},
{
horizontal = 1;
place = (697, -20);
target = down;
type = TopGhost;
},
{
horizontal = 1;
place = (762, 149);
place = (762, 149);
type = Stem;
},
{
horizontal = 1;
place = (984, 70);
place = (984, 70);
type = Stem;
},
{
place = (203, 275);
place = (203, 275);
type = Stem;
},
{
place = (169, 148);
place = (169, 148);
type = Stem;
},
{
place = (365, 148);
place = (365, 148);
type = Stem;
},
{
place = (74, 125);
place = (74, 125);
type = Stem;
},
{
place = (482, 125);
place = (482, 125);
type = Stem;
}
);
layerId = m01;
shapes = (
{
closed = 1;
nodes = (
(203,984,l),
(478,984,l),
(478,1054,l),
(203,1054,l)
);
},
{
closed = 1;
nodes = (
(285,762,o),
(317,795,o),
(317,837,cs),
(317,879,o),
(285,911,o),
(243,911,cs),
(201,911,o),
(169,879,o),
(169,837,cs),
(169,795,o),
(202,762,o),
(243,762,cs)
);
},
{
closed = 1;
nodes = (
(481,762,o),
(513,795,o),
(513,837,cs),
(513,879,o),
(481,911,o),
(439,911,cs),
(397,911,o),
(365,879,o),
(365,837,cs),
(365,795,o),
(398,762,o),
(439,762,cs)
);
},
{
closed = 1;
nodes = (
(516,-15,o),
(607,76,o),
(607,257,cs),
(607,697,l),
(482,697,l),
(482,266,ls),
(482,149,o),
(443,106,o),
(340,106,cs),
(237,106,o),
(199,148,o),
(199,266,cs),
(199,697,l),
(74,697,l),
(74,252,ls),
(74,74,o),
(165,-15,o),
(340,-15,cs)
);
}
);
width = 681;
}
);
note = uni01D5.ss03;
},
{
glyphname = uni1EE4.ss03;
kernLeft = U;
layers = (
{
hints = (
{
horizontal = 1;
place = (-15, 121);
place = (-15, 121);
type = Stem;
},
{
horizontal = 1;
place = (697, -20);
target = down;
type = TopGhost;
},
{
place = (74, 125);
place = (74, 125);
type = Stem;
},
{
place = (482, 125);
place = (482, 125);
type = Stem;
},
{
horizontal = 1;
place = (-190, 149);
place = (-190, 149);
type = Stem;
},
{
place = (267, 148);
place = (267, 148);
type = Stem;
}
);
layerId = m01;
shapes = (
{
closed = 1;
nodes = (
(516,-15,o),
(607,76,o),
(607,257,cs),
(607,697,l),
(482,697,l),
(482,266,ls),
(482,149,o),
(443,106,o),
(340,106,cs),
(237,106,o),
(199,148,o),
(199,266,cs),
(199,697,l),
(74,697,l),
(74,252,ls),
(74,74,o),
(165,-15,o),
(340,-15,cs)
);
},
{
closed = 1;
nodes = (
(383,-190,o),
(415,-157,o),
(415,-115,cs),
(415,-73,o),
(383,-41,o),
(341,-41,cs),
(299,-41,o),
(267,-73,o),
(267,-115,cs),
(267,-157,o),
(300,-190,o),
(341,-190,cs)
);
}
);
width = 681;
}
);
note = uni1EE4.ss03;
},
{
glyphname = uni1EF0.ss03;
kernLeft = U;
layers = (
{
hints = (
{
horizontal = 1;
place = (-15, 121);
place = (-15, 121);
type = Stem;
},
{
horizontal = 1;
place = (697, -20);
target = down;
type = TopGhost;
},
{
place = (74, 125);
place = (74, 125);
type = Stem;
},
{
place = (482, 125);
place = (482, 125);
type = Stem;
},
{
place = (663, 91);
place = (663, 91);
type = Stem;
},
{
horizontal = 1;
place = (-190, 149);
place = (-190, 149);
type = Stem;
},
{
place = (267, 148);
place = (267, 148);
type = Stem;
}
);
layerId = m01;
shapes = (
{
closed = 1;
nodes = (
(663,697,l),
(663,648,ls),
(663,619,o),
(653,577,o),
(607,572,c),
(607,697,l),
(482,697,l),
(482,266,ls),
(482,149,o),
(443,106,o),
(340,106,cs),
(237,106,o),
(199,148,o),
(199,266,cs),
(199,697,l),
(74,697,l),
(74,252,ls),
(74,74,o),
(165,-15,o),
(340,-15,cs),
(516,-15,o),
(607,76,o),
(607,257,cs),
(607,493,l),
(712,497,o),
(754,570,o),
(754,658,cs),
(754,697,l)
);
},
{
closed = 1;
nodes = (
(299,-41,o),
(267,-73,o),
(267,-115,cs),
(267,-157,o),
(300,-190,o),
(341,-190,cs),
(383,-190,o),
(415,-157,o),
(415,-115,cs),
(415,-73,o),
(383,-41,o),
(341,-41,cs)
);
}
);
width = 681;
}
);
note = uni1EF0.ss03;
},
{
glyphname = Wdieresis.ss03;
kernLeft = W;
kernRight = W;
layers = (
{
hints = (
{
horizontal = 1;
place = (0, 21);
target = up;
type = BottomGhost;
},
{
horizontal = 1;
place = (697, -20);
target = down;
type = TopGhost;
},
{
horizontal = 1;
place = (762, 149);
place = (762, 149);
type = Stem;
},
{
place = (321, 148);
place = (321, 148);
type = Stem;
},
{
place = (517, 148);
place = (517, 148);
type = Stem;
},
{
horizontal = 1;
place = (0, 191);
place = (0, 191);
type = Stem;
}
);
layerId = m01;
shapes = (
{
closed = 1;
nodes = (
(437,762,o),
(469,795,o),
(469,837,cs),
(469,879,o),
(437,911,o),
(395,911,cs),
(353,911,o),
(321,879,o),
(321,837,cs),
(321,795,o),
(354,762,o),
(395,762,cs)
);
},
{
closed = 1;
nodes = (
(633,762,o),
(665,795,o),
(665,837,cs),
(665,879,o),
(633,911,o),
(591,911,cs),
(549,911,o),
(517,879,o),
(517,837,cs),
(517,795,o),
(550,762,o),
(591,762,cs)
);
},
{
closed = 1;
nodes = (
(220,0,l),
(341,0,l),
(493,459,l),
(644,0,l),
(766,0,l),
(975,697,l),
(844,697,l),
(698,191,l),
(546,657,l),
(439,657,l),
(288,191,l),
(141,697,l),
(11,697,l)
);
}
);
width = 986;
}
);
note = Wdieresis.ss03;
},
{
glyphname = Ydieresis.ss03;
kernLeft = Y;
kernRight = Y;
layers = (
{
hints = (
{
horizontal = 1;
place = (0, 21);
target = up;
type = BottomGhost;
},
{
horizontal = 1;
place = (697, -20);
target = down;
type = TopGhost;
},
{
horizontal = 1;
place = (762, 149);
place = (762, 149);
type = Stem;
},
{
place = (152, 148);
place = (152, 148);
type = Stem;
},
{
place = (348, 148);
place = (348, 148);
type = Stem;
},
{
place = (262, 125);
place = (262, 125);
type = Stem;
}
);
layerId = m01;
shapes = (
{
closed = 1;
nodes = (
(268,762,o),
(300,795,o),
(300,837,cs),
(300,879,o),
(268,911,o),
(226,911,cs),
(184,911,o),
(152,879,o),
(152,837,cs),
(152,795,o),
(185,762,o),
(226,762,cs)
);
},
{
closed = 1;
nodes = (
(464,762,o),
(496,795,o),
(496,837,cs),
(496,879,o),
(464,911,o),
(422,911,cs),
(380,911,o),
(348,879,o),
(348,837,cs),
(348,795,o),
(381,762,o),
(422,762,cs)
);
},
{
closed = 1;
nodes = (
(262,0,l),
(387,0,l),
(387,272,l),
(650,697,l),
(502,697,l),
(322,392,l),
(144,697,l),
(-3,697,l),
(262,272,l)
);
}
);
width = 647;
}
);
note = Ydieresis.ss03;
},
{
glyphname = uni1EF4.ss03;
kernLeft = Y;
kernRight = Y;
layers = (
{
hints = (
{
horizontal = 1;
place = (-190, 149);
place = (-190, 149);
type = Stem;
},
{
horizontal = 1;
place = (0, 21);
target = up;
type = BottomGhost;
},
{
horizontal = 1;
place = (697, -20);
target = down;
type = TopGhost;
},
{
place = (262, 125);
place = (262, 125);
type = Stem;
},
{
place = (250, 148);
place = (250, 148);
type = Stem;
}
);
layerId = m01;
shapes = (
{
closed = 1;
nodes = (
(262,0,l),
(387,0,l),
(387,272,l),
(650,697,l),
(502,697,l),
(322,392,l),
(144,697,l),
(-3,697,l),
(262,272,l)
);
},
{
closed = 1;
nodes = (
(366,-190,o),
(398,-157,o),
(398,-115,cs),
(398,-73,o),
(366,-41,o),
(324,-41,cs),
(282,-41,o),
(250,-73,o),
(250,-115,cs),
(250,-157,o),
(283,-190,o),
(324,-190,cs)
);
}
);
width = 647;
}
);
note = uni1EF4.ss03;
},
{
glyphname = Zdotaccent.ss03;
kernLeft = Z;
kernRight = Z;
layers = (
{
hints = (
{
horizontal = 1;
place = (0, 115);
place = (0, 115);
type = Stem;
},
{
horizontal = 1;
place = (582, 115);
place = (582, 115);
type = Stem;
},
{
horizontal = 1;
place = (762, 149);
place = (762, 149);
type = Stem;
},
{
place = (238, 148);
place = (238, 148);
type = Stem;
}
);
layerId = m01;
shapes = (
{
closed = 1;
nodes = (
(354,762,o),
(386,795,o),
(386,837,cs),
(386,879,o),
(354,911,o),
(312,911,cs),
(270,911,o),
(238,879,o),
(238,837,cs),
(238,795,o),
(271,762,o),
(312,762,cs)
);
},
{
closed = 1;
nodes = (
(589,697,l),
(50,697,l),
(50,582,l),
(422,582,l),
(27,87,l),
(27,0,l),
(589,0,l),
(589,115,l),
(198,115,l),
(589,606,l)
);
}
);
width = 624;
}
);
note = Zdotaccent.ss03;
},
{
glyphname = a;
kernLeft = a;
kernRight = a;
lastChange = "2022-12-21 09:59:27 +0000";
layers = (
{
hints = (
{
horizontal = 1;
place = (-10, 102);
place = (-10, 102);
type = Stem;
},
{
horizontal = 1;
place = (207, 90);
place = (207, 90);
type = Stem;
},
{
horizontal = 1;
place = (398, 105);
place = (398, 105);
type = Stem;
},
{
place = (24, 120);
place = (24, 120);
type = Stem;
},
{
place = (352, 120);
place = (352, 120);
type = Stem;
},
{
horizontal = 1;
place = (0, 21);
target = up;
type = BottomGhost;
}
);
layerId = m01;
shapes = (
{
closed = 1;
nodes = (
(176,503,o),
(107,472,o),
(50,409,cs),
(43,402,o),
(44,393,o),
(51,387,cs),
(126,324,l),
(162,372,o),
(209,398,o),
(259,398,cs),
(316,398,o),
(352,365,o),
(352,311,cs),
(352,297,l),
(229,297,ls),
(173,297,o),
(131,290,o),
(98,275,cs),
(50,253,o),
(24,209,o),
(24,151,cs),
(24,57,o),
(98,-10,o),
(202,-10,cs),
(267,-10,o),
(323,18,o),
(352,64,c),
(366,0,l),
(421,0,l),
(472,57,l),
(472,311,ls),
(472,430,o),
(391,503,o),
(261,503,cs)
);
},
{
closed = 1;
nodes = (
(173,92,o),
(144,114,o),
(144,149,cs),
(144,167,o),
(151,181,o),
(164,190,cs),
(180,202,o),
(204,207,o),
(245,207,cs),
(352,207,l),
(352,143,o),
(293,92,o),
(221,92,cs)
);
}
);
width = 528;
}
);
note = a;
unicode = 97;
},
{
glyphname = aacute;
kernLeft = a;
kernRight = a;
layers = (
{
hints = (
{
horizontal = 1;
place = (-10, 102);
place = (-10, 102);
type = Stem;
},
{
horizontal = 1;
place = (207, 90);
place = (207, 90);
type = Stem;
},
{
horizontal = 1;
place = (398, 105);
place = (398, 105);
type = Stem;
},
{
horizontal = 1;
place = (555, 142);
place = (555, 142);
type = Stem;
},
{
place = (24, 120);
place = (24, 120);
type = Stem;
},
{
place = (352, 120);
place = (352, 120);
type = Stem;
},
{
horizontal = 1;
place = (0, 21);
target = up;
type = BottomGhost;
}
);
layerId = m01;
shapes = (
{
closed = 1;
nodes = (
(454,697,l),
(325,697,l),
(214,555,l),
(302,555,l)
);
},
{
closed = 1;
nodes = (
(171,503,o),
(98,468,o),
(39,397,c),
(126,324,l),
(162,372,o),
(209,398,o),
(259,398,cs),
(316,398,o),
(352,365,o),
(352,311,cs),
(352,297,l),
(229,297,ls),
(173,297,o),
(131,290,o),
(98,275,cs),
(50,253,o),
(24,209,o),
(24,151,cs),
(24,57,o),
(98,-10,o),
(202,-10,cs),
(267,-10,o),
(323,18,o),
(352,64,c),
(362,0,l),
(472,0,l),
(472,311,ls),
(472,430,o),
(391,503,o),
(261,503,cs)
);
},
{
closed = 1;
nodes = (
(173,92,o),
(144,114,o),
(144,149,cs),
(144,167,o),
(151,181,o),
(164,190,cs),
(180,202,o),
(204,207,o),
(245,207,cs),
(352,207,l),
(352,143,o),
(293,92,o),
(221,92,cs)
);
}
);
width = 528;
}
);
note = aacute;
unicode = 225;
},
{
glyphname = abreve;
kernLeft = a;
kernRight = a;
layers = (
{
hints = (
{
horizontal = 1;
place = (-10, 102);
place = (-10, 102);
type = Stem;
},
{
horizontal = 1;
place = (207, 90);
place = (207, 90);
type = Stem;
},
{
horizontal = 1;
place = (398, 105);
place = (398, 105);
type = Stem;
},
{
horizontal = 1;
place = (564, 133);
place = (564, 133);
type = Stem;
},
{
place = (102, 85);
place = (102, 85);
type = Stem;
},
{
place = (329, 85);
place = (329, 85);
type = Stem;
},
{
horizontal = 1;
place = (564, 70);
place = (564, 70);
type = Stem;
},
{
place = (24, 120);
place = (24, 120);
type = Stem;
},
{
place = (352, 120);
place = (352, 120);
type = Stem;
},
{
horizontal = 1;
place = (0, 21);
target = up;
type = BottomGhost;
}
);
layerId = m01;
shapes = (
{
closed = 1;
nodes = (
(361,564,o),
(414,607,o),
(414,697,c),
(329,697,l),
(329,656,o),
(299,634,o),
(258,634,cs),
(219,634,o),
(187,654,o),
(187,697,c),
(102,697,l),
(102,611,o),
(150,564,o),
(258,564,cs)
);
},
{
closed = 1;
nodes = (
(171,503,o),
(98,468,o),
(39,397,c),
(126,324,l),
(162,372,o),
(209,398,o),
(259,398,cs),
(316,398,o),
(352,365,o),
(352,311,cs),
(352,297,l),
(229,297,ls),
(173,297,o),
(131,290,o),
(98,275,cs),
(50,253,o),
(24,209,o),
(24,151,cs),
(24,57,o),
(98,-10,o),
(202,-10,cs),
(267,-10,o),
(323,18,o),
(352,64,c),
(362,0,l),
(472,0,l),
(472,311,ls),
(472,430,o),
(391,503,o),
(261,503,cs)
);
},
{
closed = 1;
nodes = (
(173,92,o),
(144,114,o),
(144,149,cs),
(144,167,o),
(151,181,o),
(164,190,cs),
(180,202,o),
(204,207,o),
(245,207,cs),
(352,207,l),
(352,143,o),
(293,92,o),
(221,92,cs)
);
}
);
width = 528;
}
);
note = abreve;
unicode = 259;
},
{
glyphname = uni1EAF;
kernLeft = a;
kernRight = a;
layers = (
{
hints = (
{
horizontal = 1;
place = (-10, 102);
place = (-10, 102);
type = Stem;
},
{
horizontal = 1;
place = (207, 90);
place = (207, 90);
type = Stem;
},
{
horizontal = 1;
place = (398, 105);
place = (398, 105);
type = Stem;
},
{
horizontal = 1;
place = (564, 133);
place = (564, 133);
type = Stem;
},
{
horizontal = 1;
place = (759, 142);
place = (759, 142);
type = Stem;
},
{
place = (24, 120);
place = (24, 120);
type = Stem;
},
{
place = (352, 120);
place = (352, 120);
type = Stem;
},
{
place = (102, 85);
place = (102, 85);
type = Stem;
},
{
place = (329, 85);
place = (329, 85);
type = Stem;
},
{
horizontal = 1;
place = (564, 70);
place = (564, 70);
type = Stem;
},
{
horizontal = 1;
place = (0, 21);
target = up;
type = BottomGhost;
}
);
layerId = m01;
shapes = (
{
closed = 1;
nodes = (
(454,901,l),
(325,901,l),
(214,759,l),
(302,759,l)
);
},
{
closed = 1;
nodes = (
(361,564,o),
(414,607,o),
(414,697,c),
(329,697,l),
(329,656,o),
(299,634,o),
(258,634,cs),
(219,634,o),
(187,654,o),
(187,697,c),
(102,697,l),
(102,611,o),
(150,564,o),
(258,564,cs)
);
},
{
closed = 1;
nodes = (
(171,503,o),
(98,468,o),
(39,397,c),
(126,324,l),
(162,372,o),
(209,398,o),
(259,398,cs),
(316,398,o),
(352,365,o),
(352,311,cs),
(352,297,l),
(229,297,ls),
(173,297,o),
(131,290,o),
(98,275,cs),
(50,253,o),
(24,209,o),
(24,151,cs),
(24,57,o),
(98,-10,o),
(202,-10,cs),
(267,-10,o),
(323,18,o),
(352,64,c),
(362,0,l),
(472,0,l),
(472,311,ls),
(472,430,o),
(391,503,o),
(261,503,cs)
);
},
{
closed = 1;
nodes = (
(173,92,o),
(144,114,o),
(144,149,cs),
(144,167,o),
(151,181,o),
(164,190,cs),
(180,202,o),
(204,207,o),
(245,207,cs),
(352,207,l),
(352,143,o),
(293,92,o),
(221,92,cs)
);
}
);
width = 528;
}
);
note = uni1EAF;
unicode = 7855;
},
{
glyphname = uni1EB7;
kernLeft = a;
kernRight = a;
layers = (
{
hints = (
{
horizontal = 1;
place = (-173, 111);
place = (-173, 111);
type = Stem;
},
{
horizontal = 1;
place = (-10, 102);
place = (-10, 102);
type = Stem;
},
{
horizontal = 1;
place = (207, 90);
place = (207, 90);
type = Stem;
},
{
horizontal = 1;
place = (398, 105);
place = (398, 105);
type = Stem;
},
{
horizontal = 1;
place = (564, 133);
place = (564, 133);
type = Stem;
},
{
place = (102, 85);
place = (102, 85);
type = Stem;
},
{
place = (195, 126);
place = (195, 126);
type = Stem;
},
{
place = (329, 85);
place = (329, 85);
type = Stem;
},
{
horizontal = 1;
place = (564, 70);
place = (564, 70);
type = Stem;
},
{
place = (24, 120);
place = (24, 120);
type = Stem;
},
{
place = (352, 120);
place = (352, 120);
type = Stem;
},
{
horizontal = 1;
place = (0, 21);
target = up;
type = BottomGhost;
}
);
layerId = m01;
shapes = (
{
closed = 1;
nodes = (
(361,564,o),
(414,607,o),
(414,697,c),
(329,697,l),
(329,656,o),
(299,634,o),
(258,634,cs),
(219,634,o),
(187,654,o),
(187,697,c),
(102,697,l),
(102,611,o),
(150,564,o),
(258,564,cs)
);
},
{
closed = 1;
nodes = (
(171,503,o),
(98,468,o),
(39,397,c),
(126,324,l),
(162,372,o),
(209,398,o),
(259,398,cs),
(316,398,o),
(352,365,o),
(352,311,cs),
(352,297,l),
(229,297,ls),
(173,297,o),
(131,290,o),
(98,275,cs),
(50,253,o),
(24,209,o),
(24,151,cs),
(24,57,o),
(98,-10,o),
(202,-10,cs),
(267,-10,o),
(323,18,o),
(352,64,c),
(362,0,l),
(472,0,l),
(472,311,ls),
(472,430,o),
(391,503,o),
(261,503,cs)
);
},
{
closed = 1;
nodes = (
(173,92,o),
(144,114,o),
(144,149,cs),
(144,167,o),
(151,181,o),
(164,190,cs),
(180,202,o),
(204,207,o),
(245,207,cs),
(352,207,l),
(352,143,o),
(293,92,o),
(221,92,cs)
);
},
{
closed = 1;
nodes = (
(195,-173,l),
(321,-173,l),
(321,-62,l),
(195,-62,l)
);
}
);
width = 528;
}
);
note = uni1EB7;
unicode = 7863;
},
{
glyphname = uni1EB1;
kernLeft = a;
kernRight = a;
layers = (
{
hints = (
{
horizontal = 1;
place = (-10, 102);
place = (-10, 102);
type = Stem;
},
{
horizontal = 1;
place = (207, 90);
place = (207, 90);
type = Stem;
},
{
horizontal = 1;
place = (398, 105);
place = (398, 105);
type = Stem;
},
{
horizontal = 1;
place = (564, 133);
place = (564, 133);
type = Stem;
},
{
horizontal = 1;
place = (759, 142);
place = (759, 142);
type = Stem;
},
{
place = (24, 120);
place = (24, 120);
type = Stem;
},
{
place = (352, 120);
place = (352, 120);
type = Stem;
},
{
place = (102, 85);
place = (102, 85);
type = Stem;
},
{
place = (329, 85);
place = (329, 85);
type = Stem;
},
{
horizontal = 1;
place = (564, 70);
place = (564, 70);
type = Stem;
},
{
horizontal = 1;
place = (0, 21);
target = up;
type = BottomGhost;
}
);
layerId = m01;
shapes = (
{
closed = 1;
nodes = (
(303,759,l),
(199,901,l),
(71,901,l),
(213,759,l)
);
},
{
closed = 1;
nodes = (
(102,697,l),
(102,611,o),
(150,564,o),
(258,564,cs),
(361,564,o),
(414,607,o),
(414,697,c),
(329,697,l),
(329,656,o),
(299,634,o),
(258,634,cs),
(219,634,o),
(187,654,o),
(187,697,c)
);
},
{
closed = 1;
nodes = (
(171,503,o),
(98,468,o),
(39,397,c),
(126,324,l),
(162,372,o),
(209,398,o),
(259,398,cs),
(316,398,o),
(352,365,o),
(352,311,cs),
(352,297,l),
(229,297,ls),
(173,297,o),
(131,290,o),
(98,275,cs),
(50,253,o),
(24,209,o),
(24,151,cs),
(24,57,o),
(98,-10,o),
(202,-10,cs),
(267,-10,o),
(323,18,o),
(352,64,c),
(362,0,l),
(472,0,l),
(472,311,ls),
(472,430,o),
(391,503,o),
(261,503,cs)
);
},
{
closed = 1;
nodes = (
(173,92,o),
(144,114,o),
(144,149,cs),
(144,167,o),
(151,181,o),
(164,190,cs),
(180,202,o),
(204,207,o),
(245,207,cs),
(352,207,l),
(352,143,o),
(293,92,o),
(221,92,cs)
);
}
);
width = 528;
}
);
note = uni1EB1;
unicode = 7857;
},
